<?xml version="1.0" standalone="no"?><!DOCTYPE svg PUBLIC "-//W3C//DTD SVG 1.1//EN" "http://www.w3.org/Graphics/SVG/1.1/DTD/svg11.dtd"><svg t="1547687815720" class="icon" style="" viewBox="0 0 1024 1024" version="1.1" xmlns="http://www.w3.org/2000/svg" p-id="3010" xmlns:xlink="http://www.w3.org/1999/xlink" width="200" height="200"><defs><style type="text/css"></style></defs><path d="M524.8 989.866667c-68.266667 0-166.4-51.2-247.466667-128-89.6-85.333333-145.066667-187.733333-145.066666-277.333334V204.8c0-8.533333 8.533333-12.8 12.8-17.066667h38.4s81.066667 0 166.4-34.133333 140.8-76.8 145.066666-76.8l21.333334-17.066667c4.266667-4.266667 12.8-4.266667 17.066666 0l21.333334 17.066667s55.466667 42.666667 145.066666 76.8c85.333333 34.133333 162.133333 34.133333 166.4 34.133333h38.4c8.533333 0 12.8 8.533333 12.8 17.066667v379.733333c0 89.6-51.2 192-145.066666 277.333334-81.066667 76.8-179.2 128-247.466667 128zM162.133333 217.6v362.666667c0 81.066667 46.933333 174.933333 136.533334 256 76.8 72.533333 166.4 119.466667 226.133333 119.466666s153.6-46.933333 226.133333-119.466666c85.333333-81.066667 136.533333-174.933333 136.533334-256V217.6h-21.333334c-4.266667 0-89.6-4.266667-174.933333-38.4-89.6-38.4-149.333333-76.8-149.333333-81.066667l-12.8-8.533333-17.066667 12.8s-59.733333 42.666667-149.333333 81.066667c-85.333333 34.133333-170.666667 38.4-174.933334 38.4l-25.6-4.266667z m341.333334 490.666667c-4.266667 0-8.533333 0-8.533334-4.266667l-162.133333-136.533333c-4.266667-4.266667-8.533333-12.8 0-21.333334 4.266667-4.266667 12.8-8.533333 21.333333 0l149.333334 128 234.666666-268.8c4.266667-4.266667 12.8-8.533333 21.333334 0 4.266667 4.266667 8.533333 12.8 0 21.333334l-243.2 281.6c-4.266667-4.266667-8.533333 0-12.8 0z m0 0" p-id="3011" fill="#BDBDBD"></path></svg>