<?xml version="1.0" standalone="no"?><!DOCTYPE svg PUBLIC "-//W3C//DTD SVG 1.1//EN" "http://www.w3.org/Graphics/SVG/1.1/DTD/svg11.dtd"><svg t="1547713421249" class="icon" style="" viewBox="0 0 1024 1024" version="1.1" xmlns="http://www.w3.org/2000/svg" p-id="39060" xmlns:xlink="http://www.w3.org/1999/xlink" width="200" height="200"><defs><style type="text/css"></style></defs><path d="M849.92 619.52c-25.6 35.84-51.2 66.56-56.32 102.4-20.48 87.04 10.24 148.48 25.6 174.08 5.12 10.24 5.12 20.48 0 30.72-5.12 10.24-15.36 20.48-25.6 20.48-76.8 25.6-153.6 40.96-230.4 40.96-97.28 0-158.72-20.48-174.08-25.6-20.48-10.24-35.84-25.6-35.84-51.2 0-5.12 0-15.36 0-25.6 0-30.72-10.24-40.96-40.96-40.96-5.12 0-15.36 0-20.48 5.12-10.24 0-25.6 5.12-40.96 5.12-56.32 0-92.16-30.72-92.16-81.92 0-10.24 0-20.48 0-30.72 0-40.96 0-107.52-15.36-112.64 0 0-5.12-5.12-15.36-5.12-5.12 0-15.36-5.12-20.48-5.12C102.4 614.4 92.16 604.16 81.92 593.92c-5.12-10.24-5.12-25.6 0-35.84 10.24-30.72 40.96-71.68 61.44-102.4C153.6 445.44 163.84 435.2 168.96 424.96c5.12-5.12 5.12-10.24 0-15.36C148.48 353.28 158.72 281.6 199.68 220.16c46.08-81.92 133.12-148.48 220.16-174.08C460.8 35.84 501.76 30.72 547.84 30.72c61.44 0 153.6 10.24 235.52 56.32 81.92 46.08 133.12 112.64 153.6 204.8C972.8 460.8 906.24 552.96 849.92 619.52zM522.24 486.4C460.8 476.16 435.2 465.92 435.2 435.2c0-20.48 10.24-35.84 30.72-46.08 35.84-15.36 92.16-10.24 117.76 15.36C593.92 409.6 609.28 409.6 619.52 399.36c10.24-10.24 5.12-25.6-5.12-35.84-20.48-15.36-46.08-25.6-76.8-30.72L537.6 286.72c0-15.36-10.24-25.6-25.6-25.6-15.36 0-25.6 10.24-25.6 25.6l0 46.08c-15.36 0-30.72 5.12-46.08 15.36-35.84 20.48-56.32 51.2-56.32 92.16 0 76.8 76.8 92.16 133.12 102.4 61.44 10.24 81.92 20.48 81.92 40.96 0 20.48-10.24 35.84-25.6 46.08-30.72 15.36-87.04 10.24-117.76-10.24-10.24-10.24-25.6-5.12-35.84 5.12-10.24 10.24-5.12 25.6 5.12 35.84 20.48 15.36 46.08 20.48 71.68 25.6l0 61.44c0 15.36 10.24 25.6 25.6 25.6 15.36 0 25.6-10.24 25.6-25.6l0-61.44c20.48 0 35.84-5.12 51.2-15.36 35.84-20.48 56.32-51.2 56.32-92.16C645.12 512 578.56 496.64 522.24 486.4z" p-id="39061" fill="#eb4110"></path></svg>