<?xml version="1.0" standalone="no"?><!DOCTYPE svg PUBLIC "-//W3C//DTD SVG 1.1//EN" "http://www.w3.org/Graphics/SVG/1.1/DTD/svg11.dtd"><svg t="1547799446291" class="icon" style="" viewBox="0 0 1024 1024" version="1.1" xmlns="http://www.w3.org/2000/svg" p-id="67370" xmlns:xlink="http://www.w3.org/1999/xlink" width="200" height="200"><defs><style type="text/css"></style></defs><path d="M0 147.2c0-25.6 19.2-44.8 44.8-44.8h780.8v179.2H217.6c-12.8 0-25.6 6.4-25.6 19.2v134.4c0 89.6 38.4 172.8 108.8 230.4 57.6 51.2 140.8 83.2 224 76.8 96-6.4 185.6-51.2 243.2-128 38.4-51.2 64-121.6 57.6-185.6V281.6H1024V448c0 115.2-51.2 230.4-134.4 313.6-96 102.4-236.8 160-377.6 160-102.4 0-204.8-32-288-89.6-76.8-51.2-140.8-121.6-179.2-204.8C12.8 569.6 0 505.6 0 441.6V147.2z" fill="#efb336" p-id="67371"></path></svg>