<?xml version="1.0" standalone="no"?><!DOCTYPE svg PUBLIC "-//W3C//DTD SVG 1.1//EN" "http://www.w3.org/Graphics/SVG/1.1/DTD/svg11.dtd"><svg t="1547648185871" class="icon" style="" viewBox="0 0 1084 1024" version="1.1" xmlns="http://www.w3.org/2000/svg" p-id="26399" xmlns:xlink="http://www.w3.org/1999/xlink" width="211.71875" height="200"><defs><style type="text/css"></style></defs><path d="M1084.758643 518.177866v-1.8811a14.245499 14.245499 0 0 0-14.245499-14.245499H14.245499a14.245499 14.245499 0 0 0-14.245499 14.245499v1.8811a14.245499 14.245499 0 0 0 14.245499 14.245499h1056.267645a14.248389 14.248389 0 0 0 14.245499-14.245499M137.773915 127.033444h272.695841v272.695841H137.773915V127.033444z m578.075422 136.346476h-94.788916v94.788916h94.788916V263.37992zM1054.372098 64.263672v417.618511H30.383656V64.263672C30.383656 28.831966 59.212732 0 94.644438 0h895.472657c35.428817 0 64.255003 28.831966 64.255003 64.263672M463.698222 101.842316a28.037338 28.037338 0 0 0-28.037338-28.037338H112.582787a28.037338 28.037338 0 0 0-28.037339 28.037338v323.078097a28.037338 28.037338 0 0 0 28.037339 28.037339h323.078097a28.037338 28.037338 0 0 0 28.037338-28.037339V101.842316z m536.514973-28.040228H810.635363v189.577832h-94.786026V73.802088h-94.788916v189.577832H526.274395v94.788916h94.786026v94.788916h284.363858v-94.788916H810.635363V263.37992h189.577832V73.802088z m54.158903 480.446075V959.736328c0 35.428817-28.826187 64.257893-64.255003 64.257893h-895.472657c-35.431706 0-64.260782-28.829076-64.260782-64.257893V554.248163h1023.988442zM99.654924 597.293843h-15.109476v353.089h15.109476V597.293843z m72.513347 0H137.658333v353.089h34.509938V597.293843z m72.510458 0H210.17168v353.089h34.507049V597.293843z m53.112885 0H282.685027v353.089h15.106587V597.293843z m102.475128 0H335.795022v353.089h64.47172V597.293843z m66.231458 0h-28.22516v353.089h28.22516V597.293843z m53.109995 0h-15.106587v353.089h15.106587V597.293843z m72.513347 0h-34.507049v353.089h34.507049V597.293843z m72.513347 0h-34.507049v353.089h34.507049V597.293843z m53.112885 0h-15.109476v353.089h15.109476V597.293843z m94.222563 0h-56.219155v353.089h56.219155V597.293843z m62.616626 0h-24.613217v353.089h24.613217V597.293843z m72.513347 0h-34.507049v353.089h34.507049V597.293843z m53.112885 0h-15.106586v353.089h15.106586V597.293843z" p-id="26400" fill="#bfbfbf"></path></svg>