<?xml version="1.0" standalone="no"?><!DOCTYPE svg PUBLIC "-//W3C//DTD SVG 1.1//EN" "http://www.w3.org/Graphics/SVG/1.1/DTD/svg11.dtd"><svg t="1547531583320" class="icon" style="" viewBox="0 0 1536 1024" version="1.1" xmlns="http://www.w3.org/2000/svg" p-id="24755" xmlns:xlink="http://www.w3.org/1999/xlink" width="300" height="200"><defs><style type="text/css"></style></defs><path d="M1457.611337 884.370286c-4.022857 78.774857-101.083429 62.098286-155.501714 62.098285H141.551909c-88.137143 0-62.683429-146.651429-62.683429-200.850285v-603.428572c0-76.288 83.090286-64.585143 134.875429-64.585143H1393.391909c84.845714 0 64.365714 117.028571 64.365714 171.227429V884.443429c0 49.956571 78.262857 49.956571 78.262857 0V178.176c0-30.134857 1.316571-59.245714-9.362286-88.210286C1493.890194 1.609143 1408.53248 0 1330.415909 0H144.697051C79.307337 0 28.546194 39.862857 6.530194 99.328c-9.142857 24.795429-5.997714 56.466286-5.997714 82.651429v647.972571c0 21.577143-0.512 43.154286 0.585143 64.731429C4.774766 967.241143 70.67648 1024 142.575909 1024h1249.28c80.749714 0 140.141714-61.44 144.091428-139.629714 2.56-50.029714-75.776-49.737143-78.262857 0z" p-id="24756" fill="#ffffff"></path><path d="M292.591909 257.682286v508.635428c0 50.980571 76.068571 50.980571 76.068571 0V257.682286c0-50.980571-76.068571-50.980571-76.068571 0z m291.620571 0v508.635428c0 50.980571 76.068571 50.980571 76.068571 0V257.682286c0-50.980571-76.068571-50.980571-76.068571 0z m291.547429 0v508.635428c0 50.980571 76.068571 50.980571 76.068571 0V257.682286c0-50.980571-76.068571-50.980571-76.068571 0z m291.620571 0v508.635428c0 50.980571 76.068571 50.980571 76.068571 0V257.682286c0-50.980571-76.068571-50.980571-76.068571 0z" p-id="24757" fill="#ffffff"></path></svg>