<?xml version="1.0" standalone="no"?><!DOCTYPE svg PUBLIC "-//W3C//DTD SVG 1.1//EN" "http://www.w3.org/Graphics/SVG/1.1/DTD/svg11.dtd"><svg t="1547724367095" class="icon" style="" viewBox="0 0 1024 1024" version="1.1" xmlns="http://www.w3.org/2000/svg" p-id="44792" xmlns:xlink="http://www.w3.org/1999/xlink" width="200" height="200"><defs><style type="text/css"></style></defs><path d="M814.32456 64.46829 209.023594 64.46829c-26.092261 0-47.319725 20.657482-47.319725 46.048779l0 802.27206c0 25.391297 21.227464 46.048779 47.319725 46.048779l605.301989 0c26.092261 0 47.319725-20.657482 47.319725-46.048779l0-802.27206C861.644285 85.125773 840.416821 64.46829 814.32456 64.46829zM830.945099 912.789129c0 8.463766-7.455809 15.349593-16.620539 15.349593L209.023594 928.138722c-9.16473 0-16.620539-6.885827-16.620539-15.349593l0-802.27206c0-8.463766 7.455809-15.349593 16.620539-15.349593l605.301989 0c9.16473 0 16.620539 6.885827 16.620539 15.349593L830.946123 912.789129z" p-id="44793" fill="#ffffff"></path><path d="M340.782453 649.799436l320.29484 0 0 30.699186-320.29484 0 0-30.699186Z" p-id="44794" fill="#ffffff"></path><path d="M340.782453 469.697545l320.29484 0 0 30.699186-320.29484 0 0-30.699186Z" p-id="44795" fill="#ffffff"></path><path d="M340.782453 283.455817l320.29484 0 0 30.699186-320.29484 0 0-30.699186Z" p-id="44796" fill="#ffffff"></path></svg>