<?xml version="1.0" standalone="no"?><!DOCTYPE svg PUBLIC "-//W3C//DTD SVG 1.1//EN" "http://www.w3.org/Graphics/SVG/1.1/DTD/svg11.dtd"><svg t="1547531465029" class="icon" style="" viewBox="0 0 1024 1024" version="1.1" xmlns="http://www.w3.org/2000/svg" p-id="20344" xmlns:xlink="http://www.w3.org/1999/xlink" width="200" height="200"><defs><style type="text/css"></style></defs><path d="M882.261 86.803H141.738C63.461 86.803 0.006 150.259 0.006 228.535v566.93c0 78.275 63.456 141.732 141.732 141.732H882.26c78.276 0 141.732-63.457 141.732-141.732v-566.93c0.001-78.277-63.455-141.732-141.731-141.732z m-740.523 80H882.26c34.039 0 61.732 27.693 61.732 61.732v202.283H596.881l-80 80-4.882 4.881-4.881-4.881-80-80H80.006V228.535c0-34.039 27.693-61.732 61.732-61.732z m740.523 690.394H141.738c-34.04 0-61.732-27.693-61.732-61.732V510.818h313.975l61.449 61.449 56.568 56.568 56.57-56.568 61.451-61.449h313.974v284.646c0 34.04-27.693 61.733-61.732 61.733z" p-id="20345" fill="#ffffff"></path><path d="M375.216 263.923H39.133v80h945.732v-80z" p-id="20346" fill="#ffffff"></path></svg>