<?xml version="1.0" standalone="no"?><!DOCTYPE svg PUBLIC "-//W3C//DTD SVG 1.1//EN" "http://www.w3.org/Graphics/SVG/1.1/DTD/svg11.dtd"><svg t="1547731775858" class="icon" style="" viewBox="0 0 1142 1024" version="1.1" xmlns="http://www.w3.org/2000/svg" p-id="60983" xmlns:xlink="http://www.w3.org/1999/xlink" width="223.046875" height="200"><defs><style type="text/css"></style></defs><path d="M1057.713231 114.254769C961.220923-1.693538 802.264615-31.074462 674.737231 33.792c0 10.24 0.787692 20.992 2.363077 32.019692 11.224615 81.250462 59.313231 175.143385 124.84923 255.763693 65.378462 80.344615 146.628923 145.486769 224.33477 169.314461 19.574154 5.986462 38.675692 9.137231 57.028923 9.137231 73.570462-117.090462 67.229538-274.235077-25.6-385.772308zM521.846154 377.895385L30.72 925.538462c-0.945231 57.737846 27.411692 89.639385 81.841231 98.461538L711.286154 612.352c-82.628923-53.641846-153.088-141.666462-189.479385-234.456615z m243.908923-24.300308c-69.238154-84.873846-122.407385-184.713846-143.832615-277.504a329.649231 329.649231 0 0 0-67.387077 251.470769c34.855385 106.968615 125.046154 217.757538 225.555692 265.058462a311.847385 311.847385 0 0 0 255.330461-35.446154c-96.846769-33.004308-193.654154-110.158769-269.666461-203.579077z" fill="#82529d" p-id="60984"></path></svg>