<?xml version="1.0" standalone="no"?><!DOCTYPE svg PUBLIC "-//W3C//DTD SVG 1.1//EN" "http://www.w3.org/Graphics/SVG/1.1/DTD/svg11.dtd"><svg t="1547713252818" class="icon" style="" viewBox="0 0 1024 1024" version="1.1" xmlns="http://www.w3.org/2000/svg" p-id="34159" xmlns:xlink="http://www.w3.org/1999/xlink" width="200" height="200"><defs><style type="text/css"></style></defs><path d="M923.674 897.106c-1.481-11.269-2.385-22.537-3.29-33.806-1.315-16.368-2.385-32.819-3.537-49.104-0.165-0.74-0.165-1.481-0.165-2.221-1.891-16.204-4.029-32.491-5.675-48.693-1.315-13.818-2.221-27.719-3.536-41.537-0.74-7.567-0.74-15.547-3.455-22.455-6.086-15.547-16.614-27.883-30.105-38.002-14.969-11.269-31.503-19.413-48.529-26.403-13.325-5.511-26.732-10.857-40.058-16.039-16.779-6.498-33.806-12.749-50.586-19.413-16.368-6.498-32.243-13.983-48.859-19.905-3.536-1.315-9.623 0.412-12.584 2.961-2.632 2.385-2.632 7.732-3.866 11.763-2.385 8.883-4.442 17.849-6.992 26.732-2.632 9.788-5.676 19.413-8.143 29.117-2.551 9.377-4.606 18.836-6.992 28.213-2.632 10.282-5.676 20.482-8.307 30.762-2.385 9.049-4.771 18.261-7.156 27.308-2.632 9.788-5.511 19.413-8.143 29.282-2.385 9.049-4.606 18.261-6.992 27.308-2.632 9.952-5.676 19.905-8.143 29.858-2.385 9.212-4.606 18.425-7.156 27.472-3.537 13.078-7.732 25.991-11.269 39.07-3.455 12.749-6.498 25.662-10.364 40.633-2.551-2.961-4.606-4.195-4.935-5.758-1.315-8.143-2.385-16.45-3.126-24.675-1.315-13.49-2.221-27.143-3.537-40.633-0.905-9.049-1.892-17.932-3.29-26.979-2.797-20.152-5.922-40.222-8.307-60.374-1.644-13.818-2.385-27.719-3.537-41.537-0.905-9.458-1.481-19.164-3.455-28.459-2.797-13.243-2.961-21.303-0.74-34.711 0.576-3.866 6.827-12.667 7.897-16.368 3.948-8.143 11.269-18.506 14.559-28.459 1.481-4.442-4.935-5.511-8.965-5.511-27.308 0-72.547-0.165-99.855 0.329-1.481 0-4.442 3.455-4.278 4.935 0.576 4.935 4.853 9.623 6.169 14.393 5.841 13.078 16.944 26.403 15.546 40.633-0.74 6.992-2.221 13.983-2.797 20.891-1.315 13.078-2.385 26.156-3.537 39.317-0.905 8.719-2.057 17.52-3.29 26.239-1.891 14.969-4.029 29.858-5.758 44.827-1.152 9.788-2.057 19.576-3.455 29.282-2.632 19.413-5.922 38.74-8.472 58.153-1.481 11.269-2.385 22.537-3.701 35.451-2.551-2.221-4.935-3.126-5.183-4.606-3.455-12.584-6.498-25.417-9.788-38.165-2.385-9.212-4.442-18.261-6.992-27.472-2.632-9.952-5.675-19.905-8.307-30.023-2.385-9.212-4.442-18.261-6.992-27.472-2.632-10.282-5.675-20.482-8.472-30.762-2.385-8.719-4.442-17.849-6.827-26.568-3.866-14.065-7.732-28.047-11.597-42.195-2.385-8.883-4.442-17.849-6.992-26.732-2.632-9.953-5.676-19.905-8.307-30.023-2.385-9.212-4.442-18.261-6.992-27.472-2.632-9.953-6.086-19.905-8.307-30.022-1.809-7.732-8.307-12.913-15.875-10.282-16.039 6.086-31.914 12.502-47.789 18.836-18.836 7.732-37.425 15.875-56.425 23.196-24.018 9.377-48.694 17.108-70.49 31.173-14.065 9.377-26.403 20.891-36.52 35.039-10.364 14.23-7.897 30.598-10.693 45.979-2.961 15.71-2.797 32.243-4.029 48.365-0.165 0.74-0.165 1.481-0.329 2.221-1.809 13.654-4.029 27.308-5.347 41.126-1.481 16.204-2.385 32.243-3.701 48.365-0.165 1.481-0.905 2.797-1.152 4.278-3.455 14.97-2.385 29.528 6.251 42.278 7.238 10.693 18.425 13.49 31.339 13.49 145.751-0.329 291.421-0.412 437.173-0.412 103.72 0 207.524-0.329 311.162 0.74 19.164 0.246 38.33-18.671 35.945-36.766z m-547.062-15.3c-9.294 1.563-209.827 18.589-218.3-3.043-9.788-24.593 6.992-119.76 10.693-152.002 3.043-26.32 144.435-88.833 153.566-74.356 11.679 18.26 63.252 227.84 54.04 229.403zM705.54 655.364c9.049-14.148 148.713 47.624 151.756 73.452 3.701 31.832 20.234 125.929 10.61 150.194-8.39 21.385-206.537 4.606-215.749 3.043-9.049-1.481 41.948-208.593 53.382-226.688zM490.039 636.2l49.269-0.164c-2.551 17.356-10.94 28.048-9.129 51.818 2.551 13.49 20.811 222.658 20.811 222.658h-75.179l22.455-220.848c0-0.082-1.233-33.148-8.225-53.465zM327.424 362.875c4.442 15.299 8.637 30.845 15.299 45.239 7.732 16.779 17.191 33.066 27.143 48.694 14.23 22.537 33.23 40.797 55.109 55.931 24.675 17.108 52.23 26.732 82.088 28.788 18.425 1.152 36.191-2.797 53.875-8.637 20.07-6.663 37.672-16.779 53.711-30.104 24.512-20.482 44.251-44.663 58.81-73.205 8.637-16.779 16.614-33.724 20.811-52.23 2.221-9.623 5.017-19.329 6.251-29.117 2.221-16.614 4.442-33.56 4.606-50.338 0.165-12.173-2.551-24.512-5.017-36.52-2.632-13.325-5.017-26.897-9.952-39.481-8.472-21.797-20.152-42.031-34.875-60.538-20.152-25.417-44.828-44.416-74.521-56.837-10.693-4.442-21.797-7.732-33.066-9.952-12.008-2.551-24.347-4.442-36.52-4.442-11.597 0.165-23.277 3.29-34.875 4.935-15.71 2.385-30.434 8.307-44.416 15.71-30.845 16.45-55.521 39.892-74.191 69.503-12.749 20.152-23.196 41.537-27.719 65.145-3.866 19.905-7.238 39.892-10.118 55.931 1.809 15.299 2.797 26.239 4.195 37.425 0.822 8.225 1.152 16.368 3.372 24.1z m185.563-223.481c78.223 0 141.886 76.413 141.886 172.319s-63.581 173.718-141.886 173.718-141.886-77.812-141.886-173.718 63.581-172.319 141.886-172.319z" p-id="34160" fill="#1296db"></path></svg>