<?xml version="1.0" standalone="no"?><!DOCTYPE svg PUBLIC "-//W3C//DTD SVG 1.1//EN" "http://www.w3.org/Graphics/SVG/1.1/DTD/svg11.dtd"><svg t="1547529036726" class="icon" style="" viewBox="0 0 1116 1024" version="1.1" xmlns="http://www.w3.org/2000/svg" p-id="16055" xmlns:xlink="http://www.w3.org/1999/xlink" width="217.96875" height="200"><defs><style type="text/css"></style></defs><path d="M498.22541778 566.18857267a240.26399317 240.26399317 0 0 1-239.96868263-239.96868264 240.26399317 240.26399317 0 0 1 239.96868263-240.02774397 240.26399317 240.26399317 0 0 1 240.02774406 240.02774397 240.26399317 240.26399317 0 0 1-240.02774406 239.96868264z m0-428.08097395a188.28947907 188.28947907 0 0 0-188.05323379 188.11229131 188.28947907 188.28947907 0 0 0 188.05323379 188.05323384 188.28947907 188.28947907 0 0 0 188.11229513-188.05323384 188.28947907 188.28947907 0 0 0-188.11229513-188.11229131z" p-id="16056" fill="#ffffff"></path><path d="M851.23865994 926.34831132a25.98725701 25.98725701 0 0 1-25.98725307-25.98725709c0-27.81817712-9.80428268-57.99883005-19.31325889-87.17542897l-4.66589411-14.4111155c-43.29240403-136.90558986-162.24316076-225.38037933-302.98777473-225.38037932a325.43131419 325.43131419 0 0 0-312.43768954 229.98721217 326.96692767 326.96692767 0 0 0-14.58829951 96.97971162 25.98725701 25.98725701 0 1 1-51.97451012 0c0-38.27214204 5.72900942-76.13084706 17.00984046-112.39488104a377.1695791 377.1695791 0 0 1 361.93159735-266.4874916c163.89689692 0 302.33809639 102.70872109 352.59980914 261.6444134l4.48870627 13.99768249c10.21771575 31.48001731 21.85291856 67.15343047 21.85292244 103.24027675a25.98725701 25.98725701 0 0 1-25.98725698 25.98725709zM978.16277926 486.04151369h-224.08101881a25.98725701 25.98725701 0 1 1 0-51.97451018h224.08101881a25.98725701 25.98725701 0 1 1 0 51.97451018zM978.16277926 601.44855285h-171.04338952a25.98725701 25.98725701 0 1 1 0-51.97451023h171.04338952a25.98725701 25.98725701 0 1 1 0 51.97451023zM978.16277926 716.85559195h-105.07119688a25.98725701 25.98725701 0 1 1 0-51.97451008h105.13025818a25.98725701 25.98725701 0 1 1 0 51.97451008z" p-id="16057" fill="#ffffff"></path></svg>