<?xml version="1.0" standalone="no"?><!DOCTYPE svg PUBLIC "-//W3C//DTD SVG 1.1//EN" "http://www.w3.org/Graphics/SVG/1.1/DTD/svg11.dtd"><svg t="1547647565061" class="icon" style="" viewBox="0 0 1024 1024" version="1.1" xmlns="http://www.w3.org/2000/svg" p-id="23056" xmlns:xlink="http://www.w3.org/1999/xlink" width="200" height="200"><defs><style type="text/css"></style></defs><path d="M562.016953 1021.660181c-14.221714-47.271663-42.043629-84.452854-76.519404-101.928381 15.940019-12.320611 27.858474-31.295084 32.86715-53.596486 18.864793-11.808776 56.448142-33.196187 129.969652-69.317148 0 0 6.653861-3.729087 10.675426 2.705416 0 0 40.946839 47.637259 88.840016 45.151201 0 0 8.189368-0.511835 11.772216-9.761434 6.361384-16.378735-37.40055-35.609126-37.40055-35.609125-20.583098-9.286158-17.914242-29.43054-17.914242-29.430541 1.352708-12.905566-7.385055-20.034703-7.385055-20.034703-15.537863-12.686208-67.269806 21.131493-67.269806 21.131494a4956.614802 4956.614802 0 0 0-109.057517 61.566496c-2.705416-29.540219-17.292727-54.766397-37.948945-69.170909 34.585455-5.520511 71.291371-15.793781 107.997287-33.415545 89.424971-39.740369 114.797387-132.857867 114.797386-132.857867 37.40055-124.668499-38.753258-223.19683-38.753258-223.19683-19.632547-25.591774-48.989968-43.506016-77.872112-55.936306 80.285051-115.345782 177.241315-150.296833 194.351244-155.780785 7.165697 18.608876 30.783248 31.258524 57.983648 29.393981 31.806919-2.193581 56.301903-23.178835 54.729837-46.942626-1.462387-23.76379-28.516548-41.275876-60.323467-39.118854-27.895034 1.901103-50.123318 18.352958-54.108323 38.46078-117.393124 37.729587-186.85651 110.373666-223.672105 162.544325-34.110179-10.821664-61.493377-14.221714-61.493377-14.221714s-62.590167-5.410832-100.685351-56.448142c0 0-31.989718 53.26745-110.556464 88.255061 0.329037-127.227677 48.989968-208.170802 63.175122-229.156057 16.598093 10.931343 43.213539 6.617302 64.125674-11.735657 24.129387-21.204613 31.624121-53.011532 16.524974-71.108572-15.135706-18.09704-46.979185-15.610982-71.145132 5.593631-21.058374 18.462637-29.320861 44.895284-21.241173 63.35792-67.269806 96.700346-82.295833 191.938306-82.62487 255.881182-28.187511 13.380842-104.085401 60.579385-108.289764 182.103752 0 0-10.748545 193.181335 144.264486 232.885144 0 0 43.506016 14.331393 106.790818 16.561534-18.389518 15.976579-30.63701 41.202756-31.697241 69.865543-27.017601-13.417402-66.392374-32.647792-110.117747-53.011532 0 0-53.742726-30.417651-68.476276-16.817452 0 0-8.189368 7.677532-6.142026 20.509979 0 0 3.985005 19.925024-16.086258 30.490771 0.03656 0-42.409226 22.045485-35.06073 37.948945a14.441073 14.441073 0 0 0 12.320611 9.03024c48.002856-0.694634 85.878682-50.817951 85.878682-50.817951 3.655968-6.726981 10.529187-3.473169 10.529187-3.473169 72.022564 29.796137 110.483345 48.295334 130.883644 59.116998 5.410832 19.449748 16.159377 36.011282 30.161734 47.344782-35.901603 17.292727-64.856867 55.826627-79.22482 104.999393l242.427219-2.010782zM220.33021 482.880217c1.352708-120.537256 187.075868-124.668499 187.075868-124.668499s216.433289-21.862687 220.491414 106.863936c0 0 22.740119 110.95862-201.736299 128.763184-210.291264 18.1336-205.830983-110.95862-205.830983-110.958621z m75.678532 180.970402c-8.445285-3.071013-9.980792-11.041023-8.043129-18.279838 2.559177-9.761434 13.527081-9.03024 18.535756-7.604413 69.09779 19.595987 162.763683 29.393981 255.917741-20.4003 6.544182-3.473169 15.940019-2.741976 20.107822 4.204363 3.948445 6.580742 1.827984 14.623871-5.337713 19.084151-66.648292 41.458674-178.374665 60.542826-281.180477 23.032597z" fill="#00C1DE" p-id="23057"></path><path d="M347.923483 506.863365s0.292477 5.739869 9.980792 4.898997c9.615195-0.804313 61.858974-12.46685 129.2019-10.931343 7.275376-0.658074 6.690421-6.324824 6.690421-6.324825-4.094684-34.073619-39.923168-58.86108-80.248492-55.46103-40.252205 3.40005-69.682745 33.817701-65.624621 67.818201" fill="#00C1DE" p-id="23058"></path></svg>