<?xml version="1.0" standalone="no"?><!DOCTYPE svg PUBLIC "-//W3C//DTD SVG 1.1//EN" "http://www.w3.org/Graphics/SVG/1.1/DTD/svg11.dtd"><svg t="1547799062099" class="icon" style="" viewBox="0 0 1024 1024" version="1.1" xmlns="http://www.w3.org/2000/svg" p-id="61168" xmlns:xlink="http://www.w3.org/1999/xlink" width="200" height="200"><defs><style type="text/css"></style></defs><path d="M331.68 251.36c51.84-61.12 115.36-110.4 173.44-165.44 111.52 96.32 218.24 200.48 299.84 324 43.2 64.48 73.6 144.48 57.76 222.88-20.32 174.88-190.4 320.64-366.88 308.16-197.12 4.32-371.68-187.68-350.56-383.68 20.64-121.76 107.36-216.64 186.4-305.92m25.92 353.28c55.2 0.48 110.4 0.32 165.76 0.64-18.56 58.56-42.24 115.68-57.12 175.52 65.12-77.28 125.76-158.08 188.16-237.6-48.16-4.64-96-11.68-143.04-22.24 12.96-52.96 22.88-106.56 39.2-158.72-66.4 79.2-128.96 161.44-192.96 242.4z" p-id="61169" fill="#1296db"></path></svg>