<?xml version="1.0" standalone="no"?><!DOCTYPE svg PUBLIC "-//W3C//DTD SVG 1.1//EN" "http://www.w3.org/Graphics/SVG/1.1/DTD/svg11.dtd"><svg t="1547799184293" class="icon" style="" viewBox="0 0 1024 1024" version="1.1" xmlns="http://www.w3.org/2000/svg" p-id="63779" xmlns:xlink="http://www.w3.org/1999/xlink" width="200" height="200"><defs><style type="text/css"></style></defs><path d="M757.398721 37.821389 303.293671 37.821389c0 0-65.210849-1.038677-65.210849 67.446262l-0.338699 813.780816c0 0-6.119162 67.130143 62.162558 67.130143l460.517751 0c0 0 63.201235 0.993517 63.201235-64.397971L823.625667 105.267652C823.648247 105.267652 825.612701 37.821389 757.398721 37.821389L757.398721 37.821389zM464.943418 70.562293l130.376538 0 0 32.650584-130.376538 0L464.943418 70.562293 464.943418 70.562293zM416.035281 70.562293c9.031974 0 16.325292 7.270739 16.325292 16.302712 0 9.031974-7.270739 16.370452-16.325292 16.370452-8.986814 0-16.280132-7.315899-16.280132-16.370452C399.777729 77.833032 407.048467 70.562293 416.035281 70.562293L416.035281 70.562293zM530.176847 920.741963c-18.041367 0-32.605424-14.631797-32.605424-32.695744 0-18.041367 14.586637-32.718324 32.605424-32.718324 17.996207 0 32.605424 14.676957 32.605424 32.718324C562.782271 906.110165 548.173054 920.741963 530.176847 920.741963L530.176847 920.741963zM759.724454 789.913826 300.584079 789.913826 300.584079 135.908622l459.140375 0L759.724454 789.913826 759.724454 789.913826zM759.724454 789.913826" fill="#1296db" p-id="63780"></path></svg>