<?xml version="1.0" standalone="no"?><!DOCTYPE svg PUBLIC "-//W3C//DTD SVG 1.1//EN" "http://www.w3.org/Graphics/SVG/1.1/DTD/svg11.dtd"><svg t="1547647108187" class="icon" style="" viewBox="0 0 1025 1024" version="1.1" xmlns="http://www.w3.org/2000/svg" p-id="3658" xmlns:xlink="http://www.w3.org/1999/xlink" width="200.1953125" height="200"><defs><style type="text/css"></style></defs><path d="M967.285 512h-109.07V73.143C858.214 32.82 825.392 0 785.071 0H239.035c-40.322 0-73.143 32.821-73.143 73.143V512H56.713C25.428 512 0 536.858 0 567.428c0 12.642 4.5 24.963 12.5 34.75a36.477 36.477 0 0 0 5.928 6.5L452.464 983.25c14.178 13.25 32.82 20.535 52.534 20.535 19.608 0 38.25-7.25 51.001-19.178l449.214-375.5c2.75-2.323 5.107-4.965 7-7.858 7.572-9.642 11.785-21.572 11.785-33.821C1024 536.858 998.57 512 967.285 512zM509.071 928.464c-0.465 0.428-3.608 1.75-4.073 2.178l-401.892-345.5h98.106c0.214 0 0.393-0.142 0.644-0.142 0.214 0 0.393 0.143 0.607 0.143 20.215 0 36.572-16.357 36.572-36.572V73.143H785.07V548.57c0 20.215 16.356 36.572 36.571 36.572 0.214 0 0.428-0.143 0.644-0.143s0.428 0.143 0.643 0.143h96.893L509.07 928.464z" fill="#bfbfbf" p-id="3659"></path><path d="M658.357 457.143c20.215 0 36.571-16.357 36.571-36.572S678.572 384 658.357 384H548.643v-3.143l108.143-108.144c14.285-14.285 14.285-37.429 0-51.714s-37.429-14.284-51.714 0l-92.999 93-93-93c-14.284-14.284-37.428-14.284-51.713 0s-14.285 37.43 0 51.714l108.144 108.144V384H365.789c-20.215 0-36.571 16.357-36.571 36.571s16.356 36.572 36.571 36.572h109.715V512H365.789c-20.215 0-36.571 16.357-36.571 36.571s16.356 36.572 36.571 36.572h109.715v73.143c0 20.215 16.356 36.571 36.571 36.571s36.571-16.356 36.571-36.571v-73.143h109.715c20.215 0 36.571-16.357 36.571-36.572S678.576 512 658.361 512H548.646v-54.857h109.711z" fill="#bfbfbf" p-id="3660"></path></svg>