<?xml version="1.0" standalone="no"?><!DOCTYPE svg PUBLIC "-//W3C//DTD SVG 1.1//EN" "http://www.w3.org/Graphics/SVG/1.1/DTD/svg11.dtd"><svg t="1547531409514" class="icon" style="" viewBox="0 0 1024 1024" version="1.1" xmlns="http://www.w3.org/2000/svg" p-id="19492" xmlns:xlink="http://www.w3.org/1999/xlink" width="200" height="200"><defs><style type="text/css"></style></defs><path d="M512.00512 919.51104a31.39584 31.39584 0 0 1-20.1984-7.36256l-376.30976-316.04224a31.52384 31.52384 0 0 1-9.31328-34.80064 31.49824 31.49824 0 0 1 29.50656-20.64896h86.80448V181.61152c0-42.52672 34.59584-77.12256 77.11744-77.12256h424.7808c42.52672 0 77.12256 34.59584 77.12256 77.12256v359.10144l86.73792-0.0512a31.5392 31.5392 0 0 1 29.55776 20.63872 31.52384 31.52384 0 0 1-9.29792 34.80064l-376.32 316.05248a31.38048 31.38048 0 0 1-20.18816 7.35744z m0-72.40192l290.02752-243.58912-31.91808 0.02048a31.44704 31.44704 0 0 1-31.4112-31.4112V181.61152a14.33088 14.33088 0 0 0-14.3104-14.31552H299.61216a14.336 14.336 0 0 0-14.3104 14.31552v390.46144a31.43168 31.43168 0 0 1-31.40096 31.40096h-31.98976l290.09408 243.6352z" fill="#ffffff" p-id="19493"></path><path d="M612.61824 505.61024c17.73056 0 32.15872-13.57824 32.15872-30.27456 0-16.6912-14.42816-30.26944-32.15872-30.26944h-69.9904l85.28896-85.2992c5.48864-5.48864 8.30976-12.93824 7.92064-20.98176-0.36864-7.64416-3.6608-14.91968-9.25184-20.50048-5.888-5.90336-13.9008-9.28768-21.95968-9.28768-7.47008 0-14.40256 2.82112-19.52256 7.95136l-72.40192 72.4224-72.40704-72.42752c-5.12-5.12512-12.05248-7.95136-19.52256-7.95136-8.05888 0-16.06656 3.38432-21.9648 9.28768-5.58592 5.5808-8.87296 12.86656-9.24672 20.51072-0.39424 8.02304 2.41152 15.46752 7.90528 20.9664l85.30944 85.2992H411.38176c-17.73056 0-32.15872 13.57824-32.15872 30.26944s14.42816 30.27456 32.15872 30.27456h70.34368v40.07424H411.38176c-17.73056 0-32.15872 13.568-32.15872 30.26944 0 16.6912 14.42816 30.2592 32.15872 30.2592h70.34368v72.9088c0 19.7888 13.58336 35.88096 30.27456 35.88096 16.6912 0 30.27968-16.09216 30.27968-35.88096v-72.89856h70.33856c17.73056 0 32.15872-13.57824 32.15872-30.26944 0-16.70144-14.42816-30.26944-32.15872-30.26944h-70.33856v-40.06912h70.33856z" fill="#ffffff" p-id="19494"></path></svg>