<?xml version="1.0" standalone="no"?><!DOCTYPE svg PUBLIC "-//W3C//DTD SVG 1.1//EN" "http://www.w3.org/Graphics/SVG/1.1/DTD/svg11.dtd"><svg t="1547685325923" class="icon" style="" viewBox="0 0 1024 1024" version="1.1" xmlns="http://www.w3.org/2000/svg" p-id="2275" xmlns:xlink="http://www.w3.org/1999/xlink" width="200" height="200"><defs><style type="text/css"></style></defs><path d="M935.5 894.5L756 715c26.4-30.5 47.7-64.6 63.4-101.9 20.1-47.5 30.3-97.9 30.3-149.9s-10.2-102.4-30.3-149.9c-19.4-45.9-47.1-87-82.5-122.4-35.3-35.3-76.5-63.1-122.4-82.5-47.5-20.1-97.9-30.3-149.9-30.3s-102.4 10.2-149.9 30.3c-45.9 19.4-87 47.1-122.4 82.5-35.3 35.3-63.1 76.5-82.5 122.4-20.1 47.5-30.3 97.9-30.3 149.9s10.2 102.4 30.3 149.9c19.4 45.9 47.1 87 82.5 122.4 35.3 35.3 76.5 63.1 122.4 82.5 47.5 20.1 97.9 30.3 149.9 30.3S567 838.1 614.5 818c36-15.2 69.1-35.6 98.8-60.8L893.1 937c5.9 5.9 13.5 8.8 21.2 8.8s15.4-2.9 21.2-8.8c11.7-11.8 11.7-30.8 0-42.5zM464.7 788.3c-86.8 0-168.4-33.8-229.8-95.2s-95.2-143-95.2-229.8 33.8-168.4 95.2-229.8 143-95.2 229.8-95.2 168.4 33.8 229.8 95.2 95.2 143 95.2 229.8-33.8 168.4-95.2 229.8-143 95.2-229.8 95.2z" fill="#FFFFFF" p-id="2276"></path></svg>