<?xml version="1.0" standalone="no"?><!DOCTYPE svg PUBLIC "-//W3C//DTD SVG 1.1//EN" "http://www.w3.org/Graphics/SVG/1.1/DTD/svg11.dtd"><svg t="1547528352080" class="icon" style="" viewBox="0 0 1024 1024" version="1.1" xmlns="http://www.w3.org/2000/svg" p-id="3427" xmlns:xlink="http://www.w3.org/1999/xlink" width="200" height="200"><defs><style type="text/css"></style></defs><path d="M512 720.529636c-104.789767 0-187.181721-88.191388-189.581486-196.980764V196.980764C322.418514 88.091397 407.210233 0 512 0s189.581486 88.191388 189.581486 196.980764v326.468118c0 108.889366-84.79172 197.080754-189.581486 197.080754z m302.770433-331.16766c10.199004-0.299971 20.098037 3.699639 27.397324 10.798946 7.299287 7.199297 11.298897 16.99834 11.098916 27.297334v104.089835c0 172.583146-133.486964 317.269017-302.770432 335.067279v81.192071h128.287472c20.997949 0.399961 37.896299 17.19832 38.49624 38.096279-0.599941 20.897959-17.598281 37.696319-38.49624 38.09628H345.216287c-20.997949-0.399961-37.896299-17.19832-38.49624-38.09628 0.599941-20.897959 17.598281-37.696319 38.49624-38.096279h128.287472v-81.192071c-169.383459-17.898252-302.770433-162.484132-302.770432-335.067279V417.259252c0.599941-20.997949 17.598281-37.696319 38.49624-38.09628 20.897959 0.399961 37.896299 17.19832 38.496241 38.09628v114.188849C247.625818 676.133971 365.714286 792.922566 512 792.922566s264.374182-116.788595 264.374182-261.474465v-103.989845c0.599941-20.897959 17.498291-37.696319 38.396251-38.09628z m0 0" p-id="3428" fill="#bfbfbf"></path></svg>