<?xml version="1.0" standalone="no"?><!DOCTYPE svg PUBLIC "-//W3C//DTD SVG 1.1//EN" "http://www.w3.org/Graphics/SVG/1.1/DTD/svg11.dtd"><svg t="1547724410281" class="icon" style="" viewBox="0 0 1024 1024" version="1.1" xmlns="http://www.w3.org/2000/svg" p-id="46294" xmlns:xlink="http://www.w3.org/1999/xlink" width="200" height="200"><defs><style type="text/css"></style></defs><path d="M499.2 924.16c-225.28 0-409.6-184.32-409.6-409.6s184.32-409.6 409.6-409.6 409.6 184.32 409.6 409.6-184.32 409.6-409.6 409.6z m0-768c-197.12 0-358.4 161.28-358.4 358.4s161.28 358.4 358.4 358.4 358.4-161.28 358.4-358.4-161.28-358.4-358.4-358.4z" p-id="46295" fill="#ffffff"></path><path d="M499.2 606.72c-89.6 0-161.28-71.68-161.28-161.28s71.68-161.28 161.28-161.28 161.28 71.68 161.28 161.28-71.68 161.28-161.28 161.28z m0-271.36c-61.44 0-110.08 48.64-110.08 110.08s48.64 110.08 110.08 110.08 110.08-48.64 110.08-110.08-48.64-110.08-110.08-110.08zM220.16 803.84c-7.68 0-15.36-2.56-20.48-10.24-10.24-10.24-7.68-28.16 2.56-35.84 81.92-69.12 189.44-107.52 302.08-107.52 107.52 0 212.48 35.84 294.4 102.4 10.24 7.68 12.8 25.6 5.12 35.84-7.68 10.24-25.6 12.8-35.84 5.12-71.68-58.88-166.4-89.6-263.68-89.6-99.84 0-197.12 33.28-268.8 94.72-5.12 2.56-10.24 5.12-15.36 5.12z" p-id="46296" fill="#ffffff"></path></svg>