<?xml version="1.0" standalone="no"?><!DOCTYPE svg PUBLIC "-//W3C//DTD SVG 1.1//EN" "http://www.w3.org/Graphics/SVG/1.1/DTD/svg11.dtd"><svg t="1547799309533" class="icon" style="" viewBox="0 0 1024 1024" version="1.1" xmlns="http://www.w3.org/2000/svg" p-id="66461" xmlns:xlink="http://www.w3.org/1999/xlink" width="200" height="200"><defs><style type="text/css"></style></defs><path d="M953.408 488.32c8.128 17.024 8.128 29.76 4.032 46.72-89.792 190.912-240.896 288.448-445.12 296.96-204.16-12.736-355.264-110.272-445.12-301.184-4.096-12.8-4.096-29.696 0-38.208C201.984 174.464 602.24 89.6 847.232 331.392c44.864 46.72 77.568 97.6 106.176 156.992zM512 349.44c83.904 0 154.432 73.152 154.432 160.128 0 87.04-70.528 160.128-154.432 160.128-83.904 0-154.432-73.088-154.432-160.128C357.568 422.528 428.16 349.44 512 349.44zM384 448a64 64 0 1 0 128 0 64 64 0 0 0-128 0z m473.536 85.12a43.648 43.648 0 0 0 0-42.88c-75.072-136.448-191.488-206.72-349.12-214.464-153.92 7.808-266.496 78.016-345.344 218.368-7.488 15.616-7.488 27.328 0 39.04 78.848 140.352 195.2 214.4 349.12 214.4 153.856 0 270.272-77.952 345.344-214.4z" p-id="66462" fill="#1296db"></path></svg>