<?xml version="1.0" standalone="no"?><!DOCTYPE svg PUBLIC "-//W3C//DTD SVG 1.1//EN" "http://www.w3.org/Graphics/SVG/1.1/DTD/svg11.dtd"><svg t="1547687961523" class="icon" style="" viewBox="0 0 1026 1024" version="1.1" xmlns="http://www.w3.org/2000/svg" p-id="4467" data-spm-anchor-id="a313x.7781069.0.i6" xmlns:xlink="http://www.w3.org/1999/xlink" width="200.390625" height="200"><defs><style type="text/css"></style></defs><path d="M511.103584 777.090541c-179.796946 0-350.028025-133.709281-427.777807-265.270643 77.749782-132.12418 247.980861-265.270643 427.777807-265.270642S861.131609 379.696742 938.88139 511.819898c-77.749782 131.561361-247.980861 265.270643-427.777806 265.270643z m501.537717-283.633873C928.293241 333.046259 729.314421 171.050748 511.103584 171.050748S93.913926 333.046259 10.077519 493.456668l-10.076496 18.36323 10.076496 18.312065c83.836407 159.898757 282.866393 322.405921 501.026065 322.40592 218.210837 0 417.189657-162.507164 501.537717-322.40592l9.616009-18.312065-9.616009-18.36323z m-351.510795-78.107938c0 34.066887-25.780153 61.330834-58.10742 61.330833-32.327266 0-58.619072-27.263947-58.619072-61.330833 0-33.555234 26.291806-60.819181 58.619072-60.819181 4.041036 0 7.570419 1.586125 11.611456 2.096754C585.376171 335.143013 549.468356 322.047764 511.104607 322.047764c-100.000552 0-180.819229 84.910878-180.819228 189.771111 0 104.297414 80.767512 189.259458 180.819228 189.259458 100.000552 0 180.819229-84.962044 180.819229-189.259458a193.323007 193.323007 0 0 0-33.350573-108.543112c1.022283 4.195555 2.557242 7.878434 2.557243 12.072967z" p-id="4468" fill="#BDBDBD"></path></svg>