<?xml version="1.0" standalone="no"?><!DOCTYPE svg PUBLIC "-//W3C//DTD SVG 1.1//EN" "http://www.w3.org/Graphics/SVG/1.1/DTD/svg11.dtd"><svg t="1547799153697" class="icon" style="" viewBox="0 0 1028 1024" version="1.1" xmlns="http://www.w3.org/2000/svg" p-id="63030" xmlns:xlink="http://www.w3.org/1999/xlink" width="200.78125" height="200"><defs><style type="text/css"></style></defs><path d="M73.434263 1019.104382c-35.493227 0-64.458964-28.965737-64.458964-64.458964V69.354582C8.975299 33.861355 37.941036 4.895618 73.434263 4.895618h885.290837c35.493227 0 64.458964 28.965737 64.458964 64.458964v885.290836c0 35.493227-28.965737 64.458964-64.458964 64.458964H73.434263z" fill="#FFFFFF" p-id="63031"></path><path d="M958.7251 10.199203c32.63745 0 59.155378 26.517928 59.155378 59.155379v885.290836c0 32.63745-26.517928 59.155378-59.155378 59.155379H73.434263c-32.63745 0-59.155378-26.517928-59.155379-59.155379V69.354582C14.278884 36.717131 40.796813 10.199203 73.434263 10.199203h885.290837m0-10.199203H73.434263C35.085259 0 4.079681 31.005578 4.079681 69.354582v885.290836c0 38.349004 31.005578 69.354582 69.354582 69.354582h885.290837c38.349004 0 69.354582-31.005578 69.354581-69.354582V69.354582c0-38.349004-31.005578-69.354582-69.354581-69.354582z" fill="#CCCCCC" p-id="63032"></path><path d="M705.376892 563.811952l-40.796812-39.572908s-9.383267-6.935458-20.398407 3.263745c0 0-39.572908 38.349004-73.026295 69.354582-31.821514 28.965737-63.643028 58.74741-75.882071 67.314741 0 0-51.811952 53.035857-117.086853 1.223904 0 0-88.937052-69.76255-177.466135-190.113147l-2.855777 14.278884s-3.263745 11.831076 4.487649 22.846215c0 0 68.946614 101.584064 153.803984 174.610359 0 0 42.428685 44.876494 96.280478 54.667729 0 0 44.468526 12.239044 86.897212-22.030279 20.806375-15.910757 65.682869-57.931474 103.623904-93.832669 34.677291-33.045418 62.419124-62.011155 62.419123-62.011156" fill="#048BDB" p-id="63033"></path><path d="M782.890837 647.445418l-35.901196-39.572908s-4.487649-5.711554-13.05498 1.631872c-8.567331 7.343426-119.534661 115.45498-161.963346 144.828686-24.478088 19.58247-50.588048 29.373705-79.553785 31.821514-21.622311 2.447809-44.876494-2.447809-70.170518-12.239044-27.333865-12.239044-68.538645-46.100398-107.295618-85.673307-27.333865-28.557769-54.667729-59.971315-77.513944-90.568924-15.502789-20.806375-30.59761-41.612749-41.612749-59.563347 0 0 0 24.886056 11.01514 46.100399 0 0 45.284462 86.897211 133.813545 167.266932 8.567331 9.791235 84.041434 85.265339 157.475698 82.81753 0 0 68.538645 4.895618 130.957769-46.100399 10.199203-10.199203 119.534661-104.031873 153.803984-140.749004M310.055777 481.810359l40.796813 39.572908s9.383267 6.935458 20.398406-3.263745c0 0 39.16494-38.349004 73.026295-69.354582 31.821514-28.965737 63.643028-58.74741 75.882072-67.314741 0 0 51.811952-53.443825 117.086852-1.223904 0 0 89.34502 69.76255 177.466136 190.113147l2.855776-14.278884s3.263745-11.831076-4.487649-22.846215c0 0-68.538645-101.584064-153.396016-174.202391 0 0-42.428685-44.876494-96.280478-55.891633 0 0-44.468526-10.607171-86.897211 22.846215-20.806375 16.318725-66.090837 58.339442-103.623904 94.240637-35.085259 32.63745-62.827092 61.603187-62.827092 61.603188" fill="#048BDB" p-id="63034"></path><path d="M232.133865 398.176892l35.901195 39.572909s4.487649 5.711554 13.05498-1.631873c8.567331-7.343426 119.534661-115.047012 161.963346-145.644621 24.478088-17.134661 50.588048-28.557769 79.145817-30.59761 22.030279-1.631873 45.284462 1.223904 70.170518 11.831076 27.333865 12.239044 68.538645 45.69243 107.295618 86.081275 27.333865 28.149801 54.667729 59.563347 77.513944 90.160956 15.502789 20.806375 30.59761 41.612749 41.612749 59.563347 0 0 0-24.886056-11.01514-46.100399 0 0-45.69243-86.489243-133.813545-168.490836-8.567331-7.751394-84.449402-83.633466-157.475698-82.001594 0 0-68.538645-4.079681-130.957769 47.324303-9.791235 8.975299-119.126693 103.215936-153.396015 139.933067" fill="#048BDB" p-id="63035"></path><path d="M219.078884 423.470916s63.23506 83.633466 132.99761 138.709164c0 0 26.517928 22.846215 54.667729-2.855777l144.828685-131.365737s43.65259-43.65259 92.608765-0.407968c0 0 103.215936 91.792829 159.515538 168.898804 0 0 3.263745 2.855777 0 7.751395-2.855777 5.303586-8.159363 18.358566-8.159362 18.358566s-62.011155-79.961753-133.405578-139.5251c0 0-27.741833-21.214343-51.811952 1.223904s-137.485259 126.062151-155.435857 139.5251c-17.950598 13.05498-47.732271 26.925896-90.160956-10.607171-33.045418-29.373705-119.534661-110.967331-153.396016-162.371315 0 0-3.263745-2.855777-0.407968-8.567331 3.263745-6.935458 8.159363-18.766534 8.159362-18.766534" fill="#A3EF24" p-id="63036"></path></svg>