<?xml version="1.0" standalone="no"?><!DOCTYPE svg PUBLIC "-//W3C//DTD SVG 1.1//EN" "http://www.w3.org/Graphics/SVG/1.1/DTD/svg11.dtd"><svg t="1547829723019" class="icon" style="" viewBox="0 0 1024 1024" version="1.1" xmlns="http://www.w3.org/2000/svg" p-id="2399" xmlns:xlink="http://www.w3.org/1999/xlink" width="200" height="200"><defs><style type="text/css"></style></defs><path d="M997.55008 634.17344c-89.48736-118.360747-223.197867-239.44192-260.150613-269.38368-25.934507-21.00224-51.623253-31.52896-77.062827-31.133013-25.43616 0.26624-50.039467 10.78272-71.847253 29.733547-4.314453 3.764907-10.605227 9.362773-18.31936 16.257707-53.15584 44.745387-217.371307 195.7376-221.10208 199.181653-12.489387 11.70432-28.412587 19.32288-46.32576 18.735787-15.77984-0.64512-33.088853-7.697067-50.814293-24.169813-12.240213-11.322027-68.338347-55.371093-133.891413-129.051307-40.31488-45.284693-73.61536-85.756587-73.61536-85.756587s-7.430827 15.301973-11.5712 25.883307c-3.46112 8.833707-0.474453 14.404267 1.201493 16.80384 21.88288 31.450453 121.934507 151.15264 259.853653 270.015147 25.245013 21.722453 51.623253 31.481173 77.042347 31.133013 25.45664-0.334507 50.029227-10.830507 71.81312-29.81888 4.334933-3.76832 10.65984-9.29792 18.377387-16.237227 53.118293-44.75904 152.630613-135.990613 199.816533-179.708587 10.069333-9.137493 17.554773-16.01536 21.265067-19.541333 12.475733-11.639467 28.412587-19.288747 46.29504-18.691413 15.824213 0.68608 32.4608 8.495787 50.875733 24.162987 29.457067 25.20064 77.267627 69.440853 133.870933 129.078613 41.601707 43.830613 73.345707 84.855467 73.70752 85.282133 0 0 7.75168-15.75936 11.864747-26.56256C1002.185387 641.539413 999.307947 636.53888 997.55008 634.17344z" fill="#0085d0" p-id="2400"></path><path d="M466.19648 199.133867c-46.168747 33.7408-236.27776 210.3296-273.595733 252.545707 0 0 26.774187 29.538987 66.914987 62.7712 10.386773 8.915627 23.022933 7.1168 33.867093-3.918507 73.188693-73.618773 222.6176-205.318827 242.72896-221.39904 56.316587-47.86176 121.93792-52.097707 182.033067-7.038293 145.885867 109.284693 274.916693 281.27232 297.168213 313.35424 0 0 3.252907-15.79008 5.280427-30.020267 0.09216-0.791893 2.812587-13.581653-4.5056-24.32-136.84736-197.632-282.463573-319.583573-338.37056-349.989547C613.710507 156.238507 539.856213 145.360213 466.19648 199.133867z" fill="#8EC31F" p-id="2401"></path><path d="M312.244907 96.013653C218.361173 171.892053 97.42336 283.562667 66.730667 317.197653c0 0 22.879573 28.45696 58.832213 63.648427 6.898347 5.911893 14.2336 4.338347 20.302507-2.0992 92.890453-89.695573 193.55648-181.193387 251.917653-226.399573 98.56-76.161707 214.07744-83.575467 326.734507 6.4512 41.960107 33.56672 79.179093 66.75456 133.57056 122.753707 69.533013 75.79648 114.91328 139.103573 164.590933 210.459307 0 0-0.252587-19.11808-5.741227-44.4416-0.9216-4.304213-2.812587-11.229867-5.911893-17.48992-9.94304-19.954347-53.848747-95.276373-117.510827-169.588053-126.21824-147.452587-205.91616-192.320853-257.020587-219.139413C568.777387 5.7344 436.770133-4.621653 312.244907 96.013653z" fill="#8EC31F" p-id="2402"></path><path d="M565.459627 836.870827c46.1824-33.727147 236.291413-210.28864 273.588907-252.532053 0 0-26.750293-29.535573-66.914987-62.7712-10.37312-8.94976-23.033173-7.08608-33.870507 3.86048-73.202347 73.673387-222.603947 205.329067-242.694827 221.508267-56.316587 47.77984-121.934507 52.04992-182.012587 6.97344-145.92-109.298347-274.950827-281.23136-297.168213-313.2928 0 0-3.304107 15.745707-5.297493 29.96224-0.09216 0.836267-2.812587 13.626027 4.44416 24.343893 136.874667 197.62176 282.494293 319.556267 338.40128 349.93152C417.972907 879.776427 491.810133 890.641067 565.459627 836.870827z" fill="#8EC31F" p-id="2403"></path><path d="M719.39072 940.00128c93.904213-75.844267 214.8352-187.531947 245.54496-221.180587 0 0-22.889813-28.514987-58.804907-63.648427-6.935893-5.946027-14.271147-4.365653-20.363947 2.085547-92.869973 89.709227-193.501867 181.241173-251.91424 226.37568-98.49856 76.212907-214.080853 83.54816-326.74816-6.43072-41.898667-33.539413-79.148373-66.740907-133.556907-122.743467C104.031573 678.64576 58.65472 615.31136 9.0112 543.982933c0 0-0.365227 18.469547 5.690027 44.445013 0.996693 4.283733 2.843307 11.270827 5.911893 17.390933 9.99424 20.097707 53.869227 95.3856 117.507413 169.700693 126.266027 147.452587 205.953707 192.32768 257.05472 219.122347C462.875307 1030.26688 594.8928 1040.64 719.39072 940.00128z" fill="#8EC31F" p-id="2404"></path></svg>