<?xml version="1.0" standalone="no"?><!DOCTYPE svg PUBLIC "-//W3C//DTD SVG 1.1//EN" "http://www.w3.org/Graphics/SVG/1.1/DTD/svg11.dtd"><svg t="1547796514283" class="icon" style="" viewBox="0 0 1024 1024" version="1.1" xmlns="http://www.w3.org/2000/svg" p-id="58524" xmlns:xlink="http://www.w3.org/1999/xlink" width="200" height="200"><defs><style type="text/css"></style></defs><path d="M842.176 0l-512 0 0 1024 512 0c70.656 0 128-57.344 128-128L970.176 128C970.176 57.344 912.896 0 842.176 0zM841.664 409.792c0.512 28.544-2.112 37.376-13.568 37.376C823.104 448 815.04 444.928 803.328 434.816c-17.6-12.48-29.888-23.36-40.512-30.144-9.472-8.192-24.384-7.232-33.728 0-12.288 6.912-29.888 22.144-40 30.144-12.48 11.008-20.864 12.352-23.808 12.352-11.968 0-15.04-10.368-14.592-37.376l-0.512-311.808C650.176 68.48 662.08 64 674.176 64l144 0c14.656 0 24 6.72 24 33.984L841.664 409.792zM74.176 128l0 768c0 70.656 57.344 128 128 128l64 0L266.176 0l-64 0C131.52 0 74.176 57.344 74.176 128z" fill="#d81e06" p-id="58525"></path></svg>