<?xml version="1.0" standalone="no"?><!DOCTYPE svg PUBLIC "-//W3C//DTD SVG 1.1//EN" "http://www.w3.org/Graphics/SVG/1.1/DTD/svg11.dtd"><svg t="1547794929312" class="icon" style="" viewBox="0 0 1024 1024" version="1.1" xmlns="http://www.w3.org/2000/svg" p-id="26023" xmlns:xlink="http://www.w3.org/1999/xlink" width="200" height="200"><defs><style type="text/css"></style></defs><path d="M177.259789 286.773895l0.026948-0.10779s57.236211-98.357895 187.014737-152.737684c0 0-66.290526 77.770105-10.374737 187.823158 0 0-202.590316 276.48 93.507368 291.84 2.964211 0.053895 5.982316 0.134737 9.027369 0.269474 1.482105 0.053895 2.964211 0.053895 5.658947 0.188631a381.035789 381.035789 0 0 1 29.534316 2.694737c13.419789 1.670737 25.653895 4.096 37.079579 7.033263 1.994105 0.512 4.122947 0.997053 7.168 1.886316 3.179789 0.862316 6.197895 1.886316 9.242947 2.856421a172.867368 172.867368 0 0 1 115.334737 184.373895 96.471579 96.471579 0 0 1-3.045053 18.970947c-0.808421 3.395368-1.886316 7.006316-3.233684 10.805895a171.924211 171.924211 0 0 1-30.908631 57.856 400.357053 400.357053 0 0 1-76.099369 14.066526 401.946947 401.946947 0 0 1-208.545684-37.025684C202.266947 812.975158 107.789474 674.034526 107.789474 512.970105c0-13.824 0.673684-27.567158 2.048-41.040842 0.323368-2.263579 0.512-4.392421 0.889263-7.437474a401.354105 401.354105 0 0 1 66.533052-177.852631v0.134737z m268.934737 326.817684z m400.518737 123.742316s-57.236211 98.357895-187.014737 152.710737c0 0 66.290526-77.770105 10.374737-187.823158 0 0 202.590316-276.48-93.507368-291.84a351.609263 351.609263 0 0 1-9.027369-0.242527c-1.482105-0.053895-2.964211-0.053895-5.658947-0.188631a381.035789 381.035789 0 0 1-29.534316-2.694737 296.771368 296.771368 0 0 1-37.079579-7.033263c-1.994105-0.512-4.122947-0.997053-7.168-1.886316-3.179789-0.862316-6.197895-1.886316-9.242947-2.856421a172.867368 172.867368 0 0 1-115.334737-184.400842 96.471579 96.471579 0 0 1 3.045053-18.970948c0.808421-3.368421 1.886316-7.006316 3.233684-10.778947A171.924211 171.924211 0 0 1 400.707368 123.418947a400.357053 400.357053 0 0 1 76.099369-14.012631 401.946947 401.946947 0 0 1 208.545684 37.025684C821.733053 210.997895 916.210526 349.938526 916.210526 510.976c0 13.850947-0.673684 27.594105-2.048 41.067789-0.323368 2.263579-0.512 4.365474-0.889263 7.437474a401.354105 401.354105 0 0 1-66.56 177.798737zM577.751579 410.408421z" p-id="26024" fill="#198d87"></path></svg>