<?xml version="1.0" standalone="no"?><!DOCTYPE svg PUBLIC "-//W3C//DTD SVG 1.1//EN" "http://www.w3.org/Graphics/SVG/1.1/DTD/svg11.dtd"><svg t="1547776274150" class="icon" style="" viewBox="0 0 1024 1024" version="1.1" xmlns="http://www.w3.org/2000/svg" p-id="9411" xmlns:xlink="http://www.w3.org/1999/xlink" width="200" height="200"><defs><style type="text/css"></style></defs><path d="M736.788975 119.409868C545.10175 81.032511 508.433464 0 508.433464 0S389.166872 97.703635 280.763629 119.409868C172.345036 141.116102 63.921326 130.268102 63.921326 130.268102s10.822415 271.379086 10.822415 488.477238c0 217.103269 433.69484 390.783838 433.69484 390.783838s434.329346-179.606032 434.329346-390.783838c0-217.098152 10.848-488.477238 10.848-488.477238s-108.42371 10.842883-216.826952-10.858234z m152.624191 483.319322c0 180.936447-380.949 334.798949-380.949 334.798948s-380.350313-148.79669-380.350313-334.798948c0-185.992025-9.512468-418.476939-9.512468-418.476939s95.093975 9.297554 190.198183-9.302671c95.078624-18.595109 199.664598-102.298684 199.664598-102.298684s32.18581 69.411847 200.263285 102.298684c95.114442 18.600226 190.2033 9.302671 190.2033 9.302671s-9.517585 232.484914-9.517585 418.476939z" fill="#1296db" p-id="9412"></path><path d="M370.223808 267.039886H293.612369s-18.313675 106.382035-111.18688 147.563498v36.371501s53.55944-14.404301 64.402323-22.647758v270.432445h77.972556V372.055687s37.962882-60.395727 45.42344-105.015801zM787.856445 269.434634v97.841793c0.685675 66.162564-70.506881 65.456421-70.506881 65.456421h-68.480557v41.539651h180.353112v41.519184h-82.726232c17.638233 86.599786 79.333673 121.078004 79.333674 121.078004v37.313025c-149.154879-47.879591-148.484554-158.385912-148.484555-158.385912h-28.465765v182.312915h-80.689673v-182.318032h-27.795441c-13.565117 128.809762-149.840554 158.380795-149.840554 158.380795v-36.611999c75.941115-52.085749 80.684556-121.773913 80.684557-121.773913H388.527249v-40.828391h180.342878v-42.91612H435.306689V268.713139l352.549756 0.721495zM522.054868 391.899339h135.599996l33.899999-0.701026c33.899999-0.701026 27.800558-33.081282 27.800557-33.081282v-47.869357h-197.970877l0.670325 81.651665z" fill="#1296db" p-id="9413"></path></svg>