<?xml version="1.0" standalone="no"?><!DOCTYPE svg PUBLIC "-//W3C//DTD SVG 1.1//EN" "http://www.w3.org/Graphics/SVG/1.1/DTD/svg11.dtd"><svg t="1547778180079" class="icon" style="" viewBox="0 0 1024 1024" version="1.1" xmlns="http://www.w3.org/2000/svg" p-id="2247" xmlns:xlink="http://www.w3.org/1999/xlink" width="200" height="200"><defs><style type="text/css"></style></defs><path d="M736.789 119.41C545.102 81.033 508.433 0 508.433 0s-119.266 97.704-227.67 119.41c-108.418 21.706-216.842 10.858-216.842 10.858s10.823 271.38 10.823 488.477c0 217.104 433.695 390.784 433.695 390.784s434.329-179.606 434.329-390.784c0-217.098 10.848-488.477 10.848-488.477s-108.424 10.843-216.827-10.858z m152.624 483.32c0 180.936-380.949 334.798-380.949 334.798s-380.35-148.797-380.35-334.799c0-185.992-9.513-418.477-9.513-418.477s95.094 9.298 190.199-9.302c95.078-18.596 199.664-102.3 199.664-102.3s32.186 69.413 200.263 102.3c95.115 18.6 190.204 9.302 190.204 9.302s-9.518 232.485-9.518 418.477z" fill="#ffffff" p-id="2248"></path><path d="M370.224 267.04h-76.612S275.3 373.422 182.425 414.603v36.372s53.56-14.404 64.403-22.648V698.76H324.8V372.056s37.963-60.396 45.424-105.016z m417.632 2.395v97.841c0.686 66.163-70.506 65.457-70.506 65.457h-68.481v41.54h180.353v41.519h-82.726c17.638 86.6 79.334 121.078 79.334 121.078v37.313c-149.155-47.88-148.485-158.386-148.485-158.386h-28.466V698.11h-80.69V515.792h-27.795c-13.565 128.81-149.84 158.38-149.84 158.38V637.56c75.94-52.085 80.684-121.773 80.684-121.773h-82.71v-40.829H568.87v-42.916H435.307V268.713l352.55 0.722zM522.055 391.899h135.6l33.9-0.7c33.9-0.702 27.8-33.082 27.8-33.082v-47.87h-197.97l0.67 81.652z" fill="#ffffff" p-id="2249"></path></svg>