<?xml version="1.0" standalone="no"?><!DOCTYPE svg PUBLIC "-//W3C//DTD SVG 1.1//EN" "http://www.w3.org/Graphics/SVG/1.1/DTD/svg11.dtd"><svg t="1547798355119" class="icon" style="" viewBox="0 0 1024 1024" version="1.1" xmlns="http://www.w3.org/2000/svg" p-id="60220" xmlns:xlink="http://www.w3.org/1999/xlink" width="200" height="200"><defs><style type="text/css"></style></defs><path d="M484.042708 308.071324l191.080809 0 0 85.384207-191.080809 0 0-85.384207Z" p-id="60221" fill="#1296db"></path><path d="M881.188879 126.619479c-8.74099 0.360739-17.398732 0.443987-25.86223 0.443987L855.271151 127.063466c-222.298629 0-320.280961-101.867216-321.030188-102.72744L511.986125 0l-22.227088 24.336025C488.787816 25.362745 385.449894 134.888732 142.783372 126.619479L111.593301 125.592759l0 461.912742c0 120.903149 40.402797 297.332394 389.45965 432.304374l10.933174 4.190125 10.877676-4.190125c349.140101-134.97198 389.542898-311.401225 389.542898-432.304374L912.406699 125.592759 881.188879 126.619479zM784.843749 679.937999c-10.683432 14.818059-19.313425 27.554929-25.86223 38.210612l-5.827326 9.517967-9.545716-5.771828c-55.137608-33.437754-100.202266-76.976207-134.389247-129.810634l0 172.988348L548.365292 765.072463l0-176.318248c-39.487074 60.937185-87.187903 109.165249-142.159016 143.601973l-8.352501 5.216845-6.271313-7.603274c-7.825267-9.517967-17.481979-20.062652-28.720395-31.273319L360.975123 696.781747l0 65.654545L300.676169 762.436291 300.676169 501.427565c-8.74099 14.457319-17.731722 28.359655-26.888949 41.62376l-12.76462 18.48095-7.103788-21.311365c-4.800607-14.42957-10.128448-28.52615-15.983524-42.261991l-2.35868-5.577584 3.385399-5.05035c46.063628-68.790201 82.359547-153.45293 107.833288-251.629505l2.913663-11.238415 60.937185 18.12021-3.35765 10.849927c-14.124329 45.508645-29.691616 88.825104-46.285621 128.811663l0 301.134031 4.412119-2.414178c54.527126-30.024606 100.368761-71.343125 136.470435-123.039835L373.767492 557.924883l0-58.190017 174.5978 0 0-48.561054-64.322584 0 0 23.670045-62.407891 0L421.634816 250.408542l315.896591 0 0 220.689177-62.407891 0 0-19.979405-65.904287 0 0 48.561054 173.515582 0 0 58.190017-133.529023 0c30.829332 43.566202 74.895019 78.946399 131.28134 105.335863l12.265135 5.744079L784.843749 679.937999z" p-id="60222" fill="#1296db"></path></svg>