<?xml version="1.0" standalone="no"?><!DOCTYPE svg PUBLIC "-//W3C//DTD SVG 1.1//EN" "http://www.w3.org/Graphics/SVG/1.1/DTD/svg11.dtd"><svg t="1547795182785" class="icon" style="" viewBox="0 0 1025 1024" version="1.1" xmlns="http://www.w3.org/2000/svg" p-id="35290" xmlns:xlink="http://www.w3.org/1999/xlink" width="200.1953125" height="200"><defs><style type="text/css"></style></defs><path d="M1024.1 605.6 1024.1 244.5c0-126.6-102.6-229.2-229.2-229.2L229.2 15.3C102.6 15.3 0 117.9 0 244.4l0 535.2c0 126.5 102.6 229.1 229.2 229.1l565.7 0c95.2 0 176.9-58.1 211.5-140.8l-69.8-13.1c-153.6-95.2-308.7 32.3-469.8-36.5-64.3-27.5-113.2-72.3-171.9-111.4-31.4-20.9-62-47.7-94.1-67.5-5.6-3.4-0.7-43.3 38.6-27.5 39.3 15.8 25.1 36.4 246 85.5 3.9 0.8 334.9-62.7 206.9-85.5-58.7-10.4-162 9.3-206.9-8.2l-39.1-34.5c-15.5-13.1 123.7-53.8 179.2-62.1 111.5-16.6 249 46.3 356.9 89l10.5 0c-2.5 0-4.9 0.1-7.3 0.2C999.4 597.1 1012.4 600.3 1024.1 605.6zM596 412.7 244.6 412.7c-16.9 0-30.6-13.6-30.6-30.6 0-16.9 13.7-30.6 30.7-30.6L596 351.5c16.9 0 30.7 13.6 30.7 30.6C626.7 399 613 412.7 596 412.7zM596 275.1 244.6 275.1c-16.9 0-30.6-13.6-30.6-30.6 0-16.9 13.7-30.6 30.7-30.6L596 213.9c16.9 0 30.7 13.6 30.7 30.6C626.7 261.4 613 275.1 596 275.1z" p-id="35291" fill="#1296db"></path><path d="M983.4 596.5c0.7-0.1 1.4-0.1 2.2-0.2-1-0.1-2-0.1-3.1-0.1C982.8 596.3 983.1 596.4 983.4 596.5z" p-id="35292" fill="#1296db"></path></svg>