<?xml version="1.0" standalone="no"?><!DOCTYPE svg PUBLIC "-//W3C//DTD SVG 1.1//EN" "http://www.w3.org/Graphics/SVG/1.1/DTD/svg11.dtd"><svg t="1547732402821" class="icon" style="" viewBox="0 0 1024 1024" version="1.1" xmlns="http://www.w3.org/2000/svg" p-id="96161" xmlns:xlink="http://www.w3.org/1999/xlink" width="200" height="200"><defs><style type="text/css"></style></defs><path d="M402.285714 0H36.571429C14.628571 0 0 14.628571 0 36.571429v365.714285c0 21.942857 14.628571 36.571429 36.571429 36.571429h365.714285c21.942857 0 36.571429-14.628571 36.571429-36.571429V36.571429c0-21.942857-14.628571-36.571429-36.571429-36.571429zM402.285714 585.142857H36.571429c-21.942857 0-36.571429 14.628571-36.571429 36.571429v365.714285c0 21.942857 14.628571 36.571429 36.571429 36.571429h365.714285c21.942857 0 36.571429-14.628571 36.571429-36.571429V621.714286c0-21.942857-14.628571-36.571429-36.571429-36.571429z" fill="#09af08" p-id="96162"></path><path d="M804.571429 219.428571m-219.428572 0a219.428571 219.428571 0 1 0 438.857143 0 219.428571 219.428571 0 1 0-438.857143 0Z" fill="#09af08" p-id="96163"></path><path d="M987.428571 585.142857H621.714286c-21.942857 0-36.571429 14.628571-36.571429 36.571429v365.714285c0 21.942857 14.628571 36.571429 36.571429 36.571429h365.714285c21.942857 0 36.571429-14.628571 36.571429-36.571429V621.714286c0-21.942857-14.628571-36.571429-36.571429-36.571429z" fill="#09af08" p-id="96164"></path></svg>