<?xml version="1.0" standalone="no"?><!DOCTYPE svg PUBLIC "-//W3C//DTD SVG 1.1//EN" "http://www.w3.org/Graphics/SVG/1.1/DTD/svg11.dtd"><svg t="1547554690139" class="icon" style="" viewBox="0 0 1024 1024" version="1.1" xmlns="http://www.w3.org/2000/svg" p-id="12782" xmlns:xlink="http://www.w3.org/1999/xlink" width="200" height="200"><defs><style type="text/css"></style></defs><path d="M337.92 201.28c-34.56 0.96-34.08-51.68-3.68-59.2 69.44-3.04 140.16-6.72 208.96 6.72 45.28 97.12 91.2 193.92 136.16 291.2 110.24-36.16 243.52 14.72 291.68 122.4 59.36 111.84 5.92 265.28-109.28 316.8-109.92 56.64-258.4 8.32-313.28-102.56-55.68-101.6-21.92-239.36 73.28-304.8-7.52-18.56-15.2-37.12-22.56-55.84-44.16 39.04-88.48 78.08-134.56 114.72 49.76 84.16 52.96 196.8-8.48 276-67.84 97.76-213.92 125.44-314.08 61.76C39.84 809.6-2.24 667.36 52.64 562.56c49.28-109.44 187.2-161.92 298.4-119.2-17.28-31.2-34.24-62.72-49.44-95.04-34.88-5.92-83.36 10.72-104.64-25.76 2.4-8.96 7.36-27.04 9.76-36 69.44-11.52 140.96-5.92 211.04-3.68 8.96 12.48 17.28 25.28 25.12 38.72-20 18.4-44.16 27.84-71.68 26.4 22.56 41.6 43.36 83.84 62.72 126.88 44.8-40 91.36-78.08 136.64-117.6-24.48-51.04-48.16-102.4-71.52-153.92-53.6-0.8-107.68 3.04-161.12-2.08M91.04 673.12c1.76 91.68 88 173.92 180.48 166.56 88 0.32 167.84-80.16 168-167.84 2.88-33.92-12.16-65.28-21.76-96.96-51.84 36.48-94.88 83.68-146.56 120-28 7.36-42.88-12-44.32-37.76 41.76-51.2 100-85.76 146.72-132.16-32-14.72-64.16-34.24-100.64-33.92-97.44-6.72-188.64 84.64-181.92 182.08m613.92-179.68c27.2 61.44 56.16 122.08 84 183.2-11.84 14.08-25.12 26.88-39.84 38.08-49.28-53.12-66.72-126.24-100.64-188.8-29.76 38.24-65.6 78.4-63.52 130.24-10.4 99.36 83.04 192.96 182.4 183.36 115.36 0.16 202.08-136.8 151.84-241.12-34.56-82.56-128.8-121.92-214.24-104.96zM689.76 192c3.84-17.44 7.84-34.72 12-52 111.2 19.36 183.36 134.08 164.96 243.04-18.24-3.2-36.64-6.08-55.04-8.48-2.56-33.6 1.44-69.92-16-100.32-21.92-41.12-64.16-65.44-105.92-82.24z" p-id="12783" fill="#1296db"></path><path d="M682.88 232.8c62.24 12 97.92 71.68 95.52 132.32-17.76-1.44-35.68-2.4-53.44-2.88-6.4-32.48-20.8-61.92-50.88-78.24 2.24-12.8 6.56-38.4 8.8-51.2z" p-id="12784" fill="#1296db"></path></svg>