<?xml version="1.0" standalone="no"?><!DOCTYPE svg PUBLIC "-//W3C//DTD SVG 1.1//EN" "http://www.w3.org/Graphics/SVG/1.1/DTD/svg11.dtd"><svg t="1547774508692" class="icon" style="" viewBox="0 0 1024 1024" version="1.1" xmlns="http://www.w3.org/2000/svg" p-id="1903" xmlns:xlink="http://www.w3.org/1999/xlink" width="200" height="200"><defs><style type="text/css"></style></defs><path d="M154.818923 807.009598A461.33577 461.33577 0 0 1 48.761976 511.999745a463.237769 463.237769 0 1 1 233.861883 402.577799L63.194969 970.165517l-6.484997 25.551987 21.064989 21.01599 25.550988-6.484997L154.819923 806.959598z m121.269939 159.499921A509.804746 509.804746 0 0 0 511.999745 1023.99949c282.769859 0 511.999745-229.229886 511.999745-511.999745S794.769604 0 511.999745 0 0 229.229886 0 511.999745c0 114.833943 37.789981 220.84189 101.668949 306.223847l-52.077974 205.629898 226.498887-57.344971z" p-id="1904" fill="#dbdbdb"></path><path d="M486.448758 481.57176h-193.389904a24.624988 24.624988 0 0 0-24.868988 24.380988c0 13.067993 11.117994 24.380988 24.868988 24.380988h193.389904v195.437903c0 13.749993 11.311994 24.867988 24.379988 24.867987 13.458993 0 24.380988-11.116994 24.380987-24.867987V530.333736h195.729903c13.750993 0 24.869988-10.921995 24.869988-24.379988a24.868988 24.868988 0 0 0-24.869988-24.381988H535.209733v-193.729903a24.868988 24.868988 0 0 0-24.379987-24.869988c-13.458993 0-24.380988 11.118994-24.380988 24.869988v193.729903z" p-id="1905" fill="#dbdbdb"></path></svg>