<?xml version="1.0" standalone="no"?><!DOCTYPE svg PUBLIC "-//W3C//DTD SVG 1.1//EN" "http://www.w3.org/Graphics/SVG/1.1/DTD/svg11.dtd"><svg t="1547633714557" class="icon" style="" viewBox="0 0 1308 1024" version="1.1" xmlns="http://www.w3.org/2000/svg" p-id="5088" xmlns:xlink="http://www.w3.org/1999/xlink" width="255.46875" height="200"><defs><style type="text/css"></style></defs><path d="M575.314775 843.283369c-20.739472 0-37.550321-16.902213-37.550321-37.550321v-44.037117l-2.923626-1.187723c-84.236974-33.530335-141.52177-95.017844-174.686652-140.790863-38.738044-53.356174-65.690221-114.20414-72.177017-162.718059-7.309065-53.264811-0.365453-211.414704-0.091363-218.084225v-0.182727c0.091363-32.708066 25.855817-58.381156 58.563883-58.381156h615.057816c32.159886 0 58.47252 26.129907 58.563883 58.381156v0.182727c0.27409 6.669522 7.217702 164.088508 1.004996 217.992862-3.197716 28.68808-14.709493 67.882941-24.576731 91.820128-48.879372 112.01142-122.426838 194.147038-218.541042 244.214133C690.615275 838.441113 609.393291 843.283369 578.512491 843.283369h-3.197716z m6.121342-43.5803l4.659529-0.091363c76.927909-2.101356 266.780871-32.525339 368.83369-268.059957 7.948608-18.820842 18.364026-54.726624 21.561742-80.125625 5.938615-39.468951 2.558173-155.134904 0-210.957887v-1.461813c0-8.222698-6.669522-14.89222-14.89222-14.89222H346.541042c-8.222698 0-14.89222 6.669522-14.89222 14.800857v0.456816c-2.375446 51.985724-5.024982 171.123483 0 210.866524 3.563169 30.05853 22.018558 85.059243 62.127052 141.430407 30.515346 42.849393 83.506067 100.13419 162.809422 129.64454l24.942184 8.770878v69.618843z" fill="#777777" p-id="5089"></path><path d="M644.659529 655.4404c-132.385439 0-240.194147-107.717345-240.194147-240.194147 0-11.877231 9.958601-21.835832 21.835831-21.835832 11.877231 0 21.835832 9.958601 21.835832 21.835832 0 108.356888 88.165596 196.522484 196.522484 196.522484 64.319772 0 124.802284-31.977159 161.895789-85.51606 4.385439-6.029979 11.146324-9.775874 18.181299-9.775875 4.385439 0 8.679515 1.37045 12.42541 4.019986 10.141328 7.309065 12.608137 20.648108 5.573162 30.515346-45.042113 65.416131-119.046395 104.428266-198.07566 104.428266z m238.184154-212.054247c-7.491792 0-14.89222-2.009993-21.379015-5.755889-13.24768-7.583155-21.379015-21.835832-21.379015-37.093505 0-23.571734 19.186296-42.849393 42.849393-42.849393 23.571734 0 42.849393 19.186296 42.849394 42.849393 0 15.257673-8.222698 29.51035-21.379015 37.093505-6.578158 3.837259-13.978587 5.755889-21.561742 5.755889z" fill="#777777" p-id="5090"></path></svg>