<?xml version="1.0" standalone="no"?><!DOCTYPE svg PUBLIC "-//W3C//DTD SVG 1.1//EN" "http://www.w3.org/Graphics/SVG/1.1/DTD/svg11.dtd"><svg t="1547633722321" class="icon" style="" viewBox="0 0 1024 1024" version="1.1" xmlns="http://www.w3.org/2000/svg" p-id="5214" xmlns:xlink="http://www.w3.org/1999/xlink" width="200" height="200"><defs><style type="text/css"></style></defs><path d="M863.232 245.76c0-27.648-22.528-51.2-51.2-51.2H211.968c-28.672 0-51.2 22.528-51.2 51.2 0 0-7.168 159.744 0 211.968C172.032 541.696 256 696.32 404.48 751.616V798.72c0 16.384 13.312 30.72 30.72 30.72 81.92 1.024 295.936-31.744 405.504-283.648 9.216-22.528 20.48-60.416 23.552-88.064 6.144-53.248-1.024-211.968-1.024-211.968z" fill="#29A1F7" p-id="5215"></path><path d="M687.104 525.312c-7.168-5.12-16.384-3.072-21.504 4.096-36.864 53.248-98.304 86.016-162.816 86.016-109.568 0-197.632-89.088-197.632-197.632 0-8.192-7.168-15.36-15.36-15.36s-15.36 7.168-15.36 15.36c0 125.952 102.4 228.352 228.352 228.352 74.752 0 145.408-36.864 188.416-99.328 5.12-7.168 3.072-16.384-4.096-21.504z" fill="#FFFFFF" p-id="5216"></path><path d="M735.232 403.456m-35.84 0a35.84 35.84 0 1 0 71.68 0 35.84 35.84 0 1 0-71.68 0Z" fill="#FFFFFF" p-id="5217"></path></svg>