<?xml version="1.0" standalone="no"?><!DOCTYPE svg PUBLIC "-//W3C//DTD SVG 1.1//EN" "http://www.w3.org/Graphics/SVG/1.1/DTD/svg11.dtd"><svg t="1547794360316" class="icon" style="" viewBox="0 0 1255 1024" version="1.1" xmlns="http://www.w3.org/2000/svg" p-id="17625" xmlns:xlink="http://www.w3.org/1999/xlink" width="245.1171875" height="200"><defs><style type="text/css"></style></defs><path d="M910.534469 926.444731h-781.763441V532.92043a174.850753 174.850753 0 0 0 44.593548 5.835699 172.868817 172.868817 0 0 0 147.268818-82.580645 172.75871 172.75871 0 0 0 293.711828 1.32129 172.75871 172.75871 0 0 0 293.711827-1.32129A172.923871 172.923871 0 0 0 1096.175759 534.021505v6.606452a223.903656 223.903656 0 0 1 54.062796 12.662366v-43.052043a174.135054 174.135054 0 0 0 78.341505-145.507097l-0.385376-60.283871a24.553978 24.553978 0 0 0-1.266237-8.03785L1144.678125 27.141505A27.086452 27.086452 0 0 0 1117.591673 0H114.787372a27.086452 27.086452 0 0 0-27.031398 27.141505v-1.376344a18.773333 18.773333 0 0 0-0.935914 2.47742L1.761996 294.978065A28.683011 28.683011 0 0 0 0.495759 302.795699L0.000275 364.621075a174.135054 174.135054 0 0 0 76.524731 144.516129 28.407742 28.407742 0 0 0-2.036989 10.405162v434.043871a27.086452 27.086452 0 0 0 27.031398 27.141505h862.802581l-51.530323-51.750538c-0.770753-0.825806-1.486452-1.706667-2.257204-2.532473zM54.063071 364.84129l0.495484-57.255914L132.129308 63.697204h965.092473l76.8 245.044301v55.989678a119.08129 119.08129 0 1 1-238.107527 0 27.086452 27.086452 0 0 0-27.031398-27.141506h-2.202151a27.086452 27.086452 0 0 0-27.031397 27.141506 119.136344 119.136344 0 1 1-238.272689 0 27.086452 27.086452 0 0 0-27.031397-27.141506h-0.550538a27.086452 27.086452 0 0 0-27.031398 27.141506 119.191398 119.191398 0 1 1-238.382796 0 27.086452 27.086452 0 0 0-27.031398-27.141506H319.312103a27.086452 27.086452 0 0 0-27.031398 27.141506 119.191398 119.191398 0 1 1-238.382795 0z" fill="#ffffff" p-id="17626"></path><path d="M1073.163286 582.468817a183.053763 183.053763 0 0 0-128.550538 312.430108l45.529463 45.749677 14.148817-14.203871-45.474409-45.584516a162.07828 162.07828 0 1 1 242.236559-15.525161l14.258925 14.313978a183.053763 183.053763 0 0 0-142.313978-296.96z" fill="#ffffff" p-id="17627"></path><path d="M1073.163286 995.537204l-54.668387-54.943656-14.203871 14.258925L1073.163286 1024l128.935914-129.541505-14.148817-14.203871-114.787097 115.28258zM1116.655759 690.374194l-28.572903 52.851612a287.325591 287.325591 0 0 0-13.983656 28.572904h-0.550538q-7.542366-17.231828-42.501505-81.424516h-26.866237l49.933764 86.159139H1012.989523V798.27957h48.997849v23.783226H1012.989523V842.322581h48.997849v38.537634h22.021505v-38.537634h47.291183v-20.094624h-47.291183V798.27957h47.291183v-21.746237h-39.748817l50.429247-86.159139z" fill="#ffffff" p-id="17628"></path></svg>