<?xml version="1.0" standalone="no"?><!DOCTYPE svg PUBLIC "-//W3C//DTD SVG 1.1//EN" "http://www.w3.org/Graphics/SVG/1.1/DTD/svg11.dtd"><svg t="1547790906824" class="icon" style="" viewBox="0 0 1024 1024" version="1.1" xmlns="http://www.w3.org/2000/svg" p-id="15611" xmlns:xlink="http://www.w3.org/1999/xlink" width="200" height="200"><defs><style type="text/css"></style></defs><path d="M944.133333 495.733333C735.733333 450.933333 573.066667 288.266667 528.266667 79.866667L512 4l-16.8 77.866667C450.8 289.066667 288.933333 450.8 81.733333 495.333333L4 512l77.066667 16.533333c207.6 44.666667 369.733333 206.666667 414.266666 414.266667L512 1020l16.133333-74.8c44.8-208.933333 208.133333-372.266667 417.066667-417.066667L1020 512l-75.866667-16.266667z m-127.333333 27.6c-147.066667 31.6-261.866667 146.4-293.466667 293.466667L512 869.333333l-11.733333-54.266666c-31.333333-146-145.466667-260.133333-291.466667-291.466667L154.666667 512l54.8-11.866667c145.6-31.2 259.466667-145.066667 290.666666-290.8l11.866667-54.666666 11.466667 53.333333C554.933333 354.533333 669.466667 469.066667 816 500.533333l53.333333 11.466667-52.533333 11.333333z" fill="#ffffff" p-id="15612"></path></svg>