<?xml version="1.0" standalone="no"?><!DOCTYPE svg PUBLIC "-//W3C//DTD SVG 1.1//EN" "http://www.w3.org/Graphics/SVG/1.1/DTD/svg11.dtd"><svg t="1547731948473" class="icon" style="" viewBox="0 0 1024 1024" version="1.1" xmlns="http://www.w3.org/2000/svg" p-id="66877" xmlns:xlink="http://www.w3.org/1999/xlink" width="200" height="200"><defs><style type="text/css"></style></defs><path d="M499.809524 731.428571c-51.053714 0-93.598476-31.158857-105.837714-73.142857L368.39619 658.285714c12.434286 55.637333 66.535619 97.52381 131.413333 97.52381s118.979048-41.886476 131.413333-97.52381l-25.575619 0C593.408 700.269714 550.863238 731.428571 499.809524 731.428571z" p-id="66878" fill="#f54614"></path><path d="M353.52381 499.809524m-36.571429 0a1.5 1.5 0 1 0 73.142857 0 1.5 1.5 0 1 0-73.142857 0Z" p-id="66879" fill="#f54614"></path><path d="M621.714286 499.809524m-36.571429 0a1.5 1.5 0 1 0 73.142857 0 1.5 1.5 0 1 0-73.142857 0Z" p-id="66880" fill="#f54614"></path><path d="M636.68419 866.230857c47.201524-26.526476 86.016-66.218667 111.274667-114.224762 67.681524-18.139429 307.224381-111.640381 11.849143-478.695619C718.360381 170.325333 617.667048 97.52381 499.809524 97.52381l-24.380952 0c-118.247619 0-219.184762 73.313524-260.412952 176.859429C-75.556571 672.865524 162.255238 742.473143 228.10819 753.737143c26.453333 49.468952 67.31581 90.087619 116.97981 116.224C237.860571 892.65981 141.58019 937.74019 64.877714 999.619048l83.480381 0c97.060571-61.049905 218.940952-97.52381 351.451429-97.52381s254.415238 36.473905 351.451429 97.52381l83.480381 0C853.796571 934.326857 751.128381 887.466667 636.68419 866.230857zM475.428571 853.333333c-124.196571 0-225.28-97.840762-231.058286-220.598857C202.800762 627.004952 170.666667 591.725714 170.666667 548.571429c0-42.959238 31.841524-78.140952 73.142857-84.114286l0-61.318095c113.152 48.39619 246.150095-64.804571 296.326095-113.761524C544.353524 320.828952 546.620952 379.855238 512 414.47619c0 0 99.254857-13.04381 103.911619-97.401905 3.437714 1.999238 6.875429 3.900952 10.337524 5.607619 11.702857 27.257905 19.529143 66.80381-16.725333 91.794286 0 0 80.65219-10.093714 90.160762-71.43619 10.898286 0.999619 20.626286 1.097143 28.964571 0.853333C730.307048 355.011048 731.428571 366.299429 731.428571 377.904762l0 86.552381c41.301333 5.973333 73.142857 41.155048 73.142857 84.114286 0 43.154286-32.134095 78.433524-73.703619 84.163048C725.089524 755.492571 624.006095 853.333333 499.809524 853.333333L475.428571 853.333333z" p-id="66881" fill="#f54614"></path></svg>