<?xml version="1.0" standalone="no"?><!DOCTYPE svg PUBLIC "-//W3C//DTD SVG 1.1//EN" "http://www.w3.org/Graphics/SVG/1.1/DTD/svg11.dtd"><svg t="1547702281975" class="icon" style="" viewBox="0 0 1024 1024" version="1.1" xmlns="http://www.w3.org/2000/svg" p-id="9616" xmlns:xlink="http://www.w3.org/1999/xlink" width="200" height="200"><defs><style type="text/css"></style></defs><path d="M808.692794 958.323185 212.188168 958.323185c-82.363869 0-149.216463-66.780963-149.216463-148.997476L62.971705 585.317843c0-82.144882 66.853617-148.997476 149.216463-148.997476l0 0 0-74.572416c0-164.875095 133.487224-298.28864 298.287617-298.28864 164.656107 0 298.217009 133.413546 298.217009 298.28864l0 74.572416c82.362846 0 149.142785 66.851571 149.142785 148.997476l0 224.00889C957.835579 891.543246 891.056664 958.323185 808.692794 958.323185L808.692794 958.323185zM435.832761 788.497335l0 57.967226c0 20.537755 16.748453 37.141922 37.286208 37.141922l74.571393 0c20.609387 0 37.287231-16.604166 37.287231-37.141922l0-57.967226c44.421722-25.925463 74.571393-73.40687 74.571393-128.461767 0-82.292238-66.779939-149.143808-149.072177-149.143808-82.436524 0-149.143808 66.851571-149.143808 149.143808C361.333 715.090465 391.408993 762.571872 435.832761 788.497335L435.832761 788.497335zM659.547962 361.747951c0-72.243371-67.508533-149.144832-149.142785-149.144832-76.976162 0-149.0732 72.240301-149.0732 149.144832l0 74.572416 298.215986 0L659.547962 361.747951 659.547962 361.747951zM659.547962 361.747951" p-id="9617" fill="#1296db"></path></svg>