<?xml version="1.0" standalone="no"?><!DOCTYPE svg PUBLIC "-//W3C//DTD SVG 1.1//EN" "http://www.w3.org/Graphics/SVG/1.1/DTD/svg11.dtd"><svg t="1547776364559" class="icon" style="" viewBox="0 0 1024 1024" version="1.1" xmlns="http://www.w3.org/2000/svg" p-id="13386" xmlns:xlink="http://www.w3.org/1999/xlink" width="200" height="200"><defs><style type="text/css"></style></defs><path d="M292.54483 508.756701l225.752321 130.735459 212.710426-123.176559L505.245947 385.589452 292.535521 508.747392z m-66.307938-38.390275l505.254753-292.581562-166.686779-96.627319a105.247443 105.247443 0 0 0-105.619803 0l-291.743753 169.107116a106.597247 106.597247 0 0 0-53.014699 92.270711v63.077718l111.810281 64.753336zM114.426611 482.40295v198.337345c0 38.101697 20.228436 73.271062 53.00539 92.270711l60.117459 34.84355 224.439754-129.972121L114.43592 482.40295z m457.127273-135.213083L813.094253 487.057445l96.469065 55.872559V342.544681c0-38.111006-20.228436-73.280371-53.00539-92.28002l-58.786273-34.070904-226.217771 130.99611z m338.009434 272.529997L797.315514 554.705877l-503.486044 291.557573 165.346284 95.845363a105.247443 105.247443 0 0 0 105.629112 0l291.743753-169.097807a106.597247 106.597247 0 0 0 53.014699-92.270711V619.710555zM132.867721 192.707175L425.486519 23.246317a172.597987 172.597987 0 0 1 173.016892 0L891.122209 192.707175A173.1286 173.1286 0 0 1 977.444475 342.563299v338.903097A173.119291 173.119291 0 0 1 891.122209 831.303903l-292.618798 169.451548a172.607296 172.607296 0 0 1-173.016892 0L132.867721 831.303903A173.119291 173.119291 0 0 1 46.545455 681.466396V342.544681A173.119291 173.119291 0 0 1 132.867721 192.707175z" p-id="13387" fill="#ffffff"></path></svg>