<?xml version="1.0" standalone="no"?><!DOCTYPE svg PUBLIC "-//W3C//DTD SVG 1.1//EN" "http://www.w3.org/Graphics/SVG/1.1/DTD/svg11.dtd"><svg t="1547554280748" class="icon" style="" viewBox="0 0 1024 1024" version="1.1" xmlns="http://www.w3.org/2000/svg" p-id="3348" xmlns:xlink="http://www.w3.org/1999/xlink" width="200" height="200"><defs><style type="text/css"></style></defs><path d="M569.25184 310.91712c34.048-11.75552 59.94496-32.70656 81.90976-66.2528 10.73152-16.41472 10.35264-37.5296-0.9728-53.8112-11.27424-16.19968-29.99296-23.6032-48.98816-19.28192l-1.73056 0.4096c-14.03904 3.40992-28.17024-3.64544-32.77824-16.44544a196.88448 196.88448 0 0 0-12.78976-28.49792A46.96064 46.96064 0 0 0 512.17408 102.4h-0.09216a47.7696 47.7696 0 0 0-42.41408 25.23136 200.4992 200.4992 0 0 0-12.73856 28.70272c-4.66944 13.11744-18.74944 20.87936-31.93856 17.664l-1.77152-0.4096c-19.03616-4.27008-37.92896 3.03104-49.29536 19.15904-11.42784 16.24064-11.9808 36.63872-1.42336 53.248 21.6576 34.0992 47.104 54.80448 80.0256 65.32096-141.49632 27.79136-248.576 152.71936-248.576 302.2336C203.95008 783.4112 342.13888 921.6 512 921.6s308.04992-138.1888 308.04992-308.04992c0-150.29248-108.21632-275.712-250.79808-302.63296zM389.77536 235.008c-7.19872-11.32544-4.25984-23.17312 0.89088-30.48448 4.2496-6.03136 11.93984-11.68384 21.88288-11.68384 1.95584 0 4.02432 0.21504 6.15424 0.70656l1.44384 0.32768c23.22432 5.64224 47.94368-7.8336 56.09472-30.68928 3.2768-9.20576 7.1168-17.87904 11.4176-25.77408a27.5456 27.5456 0 0 1 24.46336-14.55104h0.0512c10.07616 0 18.97472 5.24288 23.79776 14.01856a178.688 178.688 0 0 1 11.4688 25.56928c8.15104 22.66112 32.64512 35.29728 56.71936 29.45024l1.5872-0.36864c10.83392-2.47808 21.1456 1.64864 27.62752 10.97728 5.20192 7.48544 8.09984 19.52768 0.65536 30.91456-23.49056 35.90144-50.55488 54.90688-90.4704 63.55968-31.08864 6.72768-62.91456 0.13312-63.72352-0.03072-39.64928-6.4512-66.58048-24.97536-90.0608-61.94176zM512 901.12c-158.5664 0-287.56992-129.00352-287.56992-287.56992 0-158.5664 129.00352-287.56992 287.56992-287.56992 158.5664 0 287.56992 129.00352 287.56992 287.56992C799.56992 772.11648 670.5664 901.12 512 901.12z" fill="#d81e06" p-id="3349"></path><path d="M518.20544 559.36c-3.88096-4.13696-11.10016-4.13696-14.98112 0l-73.17504 78.39744a10.27072 10.27072 0 0 0-1.87392 11.13088l73.17504 165.43744a10.24 10.24 0 0 0 18.71872 0l73.17504-165.43744a10.24 10.24 0 0 0-1.87392-11.13088l-73.1648-78.39744z m-7.48544 225.51552L449.6384 646.78912l61.0816-65.4336 61.0816 65.4336-61.0816 138.0864zM446.5152 504.7296a10.24 10.24 0 1 0 20.48 0c0-31.20128-25.57952-56.576-57.01632-56.576-31.4368 0-57.01632 25.38496-57.01632 56.576a10.24 10.24 0 1 0 20.48 0c0-19.90656 16.39424-36.096 36.53632-36.096s36.53632 16.18944 36.53632 36.096zM611.82976 448.1536c-31.4368 0-57.01632 25.38496-57.01632 56.576a10.24 10.24 0 1 0 20.48 0c0-19.90656 16.39424-36.096 36.53632-36.096 20.15232 0 36.53632 16.18944 36.53632 36.096a10.24 10.24 0 1 0 20.48 0c0-31.20128-25.57952-56.576-57.01632-56.576z" fill="#d81e06" p-id="3350"></path></svg>