<?xml version="1.0" standalone="no"?><!DOCTYPE svg PUBLIC "-//W3C//DTD SVG 1.1//EN" "http://www.w3.org/Graphics/SVG/1.1/DTD/svg11.dtd"><svg t="1547635536872" class="icon" style="" viewBox="0 0 1024 1024" version="1.1" xmlns="http://www.w3.org/2000/svg" p-id="9652" xmlns:xlink="http://www.w3.org/1999/xlink" width="200" height="200"><defs><style type="text/css"></style></defs><path d="M511.978511 118.482485c36.927027 0 73.303516 12.334933 102.430904 34.732036 14.422478 11.090593 26.397207 24.162306 35.592636 38.85289 9.498328 15.174608 15.787568 31.749098 18.692734 49.26503l0.007163 0.044002 0.007163 0.044002c5.678326 33.778314 10.844999 85.5924 3.214205 140.614551-6.92369 49.926086-22.693862 90.204441-46.873564 119.714546l-0.016373 0.020466-0.016373 0.020466c-31.610952 38.680974-48.475038 74.523297-50.124608 106.534362-1.437745 27.90556 9.005095 45.235251 14.393825 52.222385 53.816696 71.118757 124.793214 86.884836 187.41853 100.793614 12.153808 2.699482 23.635303 5.249561 34.768875 8.149611 19.962657 5.378497 42.736337 12.583596 60.474326 25.207102l0.032746 0.023536 0.032746 0.023536c22.573111 15.997346 36.719296 43.742247 42.046628 82.465177 1.282203 9.31925 1.880837 18.246573 2.081405 26.260084L589.853136 903.469879l-77.874625 0L436.18836 903.469879 107.848287 903.469879c0.189312-7.474228 0.727571-15.754822 1.846044-24.430412 2.360767-18.311041 6.80294-34.519188 13.201673-48.173163 7.306406-15.59007 16.83748-27.40107 29.137621-36.106336l0.046049-0.032746 0.046049-0.032746c18.35095-13.06455 41.457204-20.301372 61.665455-25.653263 10.656711-2.728134 21.609157-5.154393 33.202193-7.721869 62.753229-13.897521 133.867894-29.642111 187.767478-100.744495 5.3918-6.979972 15.857153-24.309662 14.431687-52.229548-1.63422-32.018228-18.494213-67.867714-50.110281-106.553805l-0.019443-0.023536-0.019443-0.023536c-24.186865-29.507034-39.959084-69.781296-46.876634-119.706359-7.621585-55.001685-2.450818-106.827027 3.228531-140.617621l0.007163-0.042979 0.007163-0.044002c2.904143-17.508769 9.195429-34.082236 18.700921-49.25889 9.200546-14.691607 21.180392-27.76639 35.606962-38.862099C438.839747 130.817418 475.15586 118.482485 511.978511 118.482485M511.978511 77.550237c-92.264357 0-181.322695 62.883189-196.947558 157.085688-15.838733 94.236268-10.700713 216.130456 52.357462 293.057499 62.635549 76.640518 34.874275 107.99462 34.874275 107.99462-53.80851 71.116711-130.72839 76.292594-198.782346 93.739964-27.024493 7.148817-52.853765 16.08842-75.093279 31.91999C49.529043 817.161165 68.952418 944.402127 68.952418 944.402127l8.721639 0L436.18836 944.402127l75.79015 0 77.874625 0 358.1541 0 7.045463 0c0 0 19.384489-127.241986-59.371202-183.054129-21.852704-15.551184-47.185672-24.282033-73.721025-31.423687-68.406996-17.844413-145.968489-22.48613-200.154599-94.236268 0 0-27.728528-31.354102 34.905998-107.99462 63.026452-76.91988 68.204381-198.821231 52.363601-293.057499C693.452655 140.433426 604.491531 77.550237 511.978511 77.550237L511.978511 77.550237z" p-id="9653" fill="#bfbfbf"></path></svg>