<?xml version="1.0" standalone="no"?><!DOCTYPE svg PUBLIC "-//W3C//DTD SVG 1.1//EN" "http://www.w3.org/Graphics/SVG/1.1/DTD/svg11.dtd"><svg t="1547554326377" class="icon" style="" viewBox="0 0 1024 1024" version="1.1" xmlns="http://www.w3.org/2000/svg" p-id="4191" xmlns:xlink="http://www.w3.org/1999/xlink" width="200" height="200"><defs><style type="text/css"></style></defs><path d="M754.609231 0c57.186462 0 103.975385 43.165538 103.975384 96.019692v832c0 52.775385-46.788923 95.980308-103.975384 95.980308H269.390769C212.204308 1024 165.415385 980.834462 165.415385 928.019692V96.019692C165.415385 43.165538 212.204308 0 269.390769 0h485.218462zM414.011077 42.653538c-9.728 0-17.565538 9.570462-17.565539 21.346462 0 11.776 7.876923 21.346462 17.565539 21.346462h195.977846c9.728 0 17.565538-9.570462 17.565539-21.346462 0-11.776-7.876923-21.346462-17.565539-21.346462H414.011077zM512 981.346462c38.242462 0 69.316923-28.672 69.316923-64 0-35.367385-31.074462-64-69.316923-64-38.281846 0-69.316923 28.632615-69.316923 64 0 35.328 31.035077 64 69.316923 64zM254.976 768h519.876923V128h-519.876923V768z" fill="#f26709" p-id="4192"></path></svg>