<?xml version="1.0" standalone="no"?><!DOCTYPE svg PUBLIC "-//W3C//DTD SVG 1.1//EN" "http://www.w3.org/Graphics/SVG/1.1/DTD/svg11.dtd"><svg t="1547633670911" class="icon" style="" viewBox="0 0 1024 1024" version="1.1" xmlns="http://www.w3.org/2000/svg" p-id="4090" xmlns:xlink="http://www.w3.org/1999/xlink" width="200" height="200"><defs><style type="text/css"></style></defs><path d="M511.997 1022.91c-69.032 0-136.015-13.527-199.087-40.204-60.903-25.765-115.601-62.637-162.565-109.601C103.383 826.147 66.509 771.449 40.746 710.54c-26.679-63.067-40.2-130.049-40.2-199.088 0-69.033 13.522-136.016 40.2-199.087 25.763-60.904 62.636-115.602 109.599-162.566C197.309 102.837 252.006 65.963 312.91 40.2 375.982 13.522 442.965 0 511.997 0c69.034 0 136.023 13.522 199.088 40.2 60.909 25.762 115.601 62.642 162.564 109.599 46.965 46.964 83.837 101.661 109.601 162.566 26.677 63.071 40.204 130.054 40.204 199.093 0 69.033-13.527 136.016-40.204 199.087-25.764 60.909-62.636 115.602-109.601 162.56-46.964 46.964-101.655 83.842-162.559 109.601C648.014 1009.381 581.031 1022.91 511.997 1022.91L511.997 1022.91zM511.997 35.03c-64.32 0-126.711 12.597-185.442 37.436-56.73 23.997-107.678 58.346-151.437 102.106-43.761 43.753-78.11 94.707-102.107 151.438-24.838 58.73-37.436 121.122-37.436 185.442 0 64.319 12.598 126.717 37.436 185.441 23.997 56.73 58.352 107.684 102.107 151.438 43.759 43.759 94.707 78.114 151.437 102.106 58.731 24.845 121.124 37.437 185.442 37.437 64.326 0 126.718-12.592 185.442-37.437 56.73-23.996 107.684-58.348 151.438-102.106 43.761-43.755 78.114-94.703 102.106-151.438 24.845-58.726 37.437-121.116 37.437-185.441 0-64.324-12.592-126.718-37.437-185.442-23.996-56.73-58.346-107.684-102.106-151.438-43.755-43.761-94.708-78.115-151.438-102.106C638.714 47.627 576.323 35.03 511.997 35.03L511.997 35.03zM607.874 564.948c53.033-96.426 72.318-188.025 72.318-188.025l-9.645 0 0 0L588.59 376.923l-86.78 0 0-67.5 212.132 0 0-28.924L501.81 280.499 501.81 179.254l-96.423 0 0 101.245L212.541 280.499l0 28.924 192.846 0 0 67.5-163.92 0 0 28.926 332.662 0c0 4.821-28.926 91.603-48.212 130.169-245.879-96.423-318.198-38.566-337.482-28.926C24.517 622.799 178.793 767.435 202.9 762.613c173.563 38.568 284.446-33.749 361.586-125.353 4.819 4.823 9.642 4.823 14.464 4.823 53.032 28.924 308.552 149.453 308.552 149.453l0-144.63C848.932 646.907 709.118 598.695 607.874 564.948L607.874 564.948zM482.524 608.337c-120.528 154.277-265.161 106.065-289.269 96.422-57.852-14.463-77.137-120.529-4.822-154.277 120.528-38.565 226.595 4.822 303.735 43.393C487.346 603.515 482.524 608.337 482.524 608.337L482.524 608.337z" p-id="4091" fill="#bfbfbf"></path></svg>