<?xml version="1.0" standalone="no"?><!DOCTYPE svg PUBLIC "-//W3C//DTD SVG 1.1//EN" "http://www.w3.org/Graphics/SVG/1.1/DTD/svg11.dtd"><svg t="1547860157103" class="icon" style="" viewBox="0 0 1024 1024" version="1.1" xmlns="http://www.w3.org/2000/svg" p-id="2543" xmlns:xlink="http://www.w3.org/1999/xlink" width="200" height="200"><defs><style type="text/css"></style></defs><path d="M512 960a446.56 446.56 0 0 1-316.8-131.2A446.464 446.464 0 0 1 64 512a446.56 446.56 0 0 1 131.2-316.8A446.56 446.56 0 0 1 512 64a446.56 446.56 0 0 1 316.8 131.2A446.528 446.528 0 0 1 960 512a446.4 446.4 0 0 1-131.2 316.8A446.464 446.464 0 0 1 512 960z m0-865.312a415.936 415.936 0 0 0-295.072 122.24 415.872 415.872 0 0 0-122.24 295.04 415.968 415.968 0 0 0 122.24 295.072 415.872 415.872 0 0 0 295.04 122.272 415.904 415.904 0 0 0 295.072-122.24A415.776 415.776 0 0 0 929.344 512a415.872 415.872 0 0 0-122.24-295.072A415.808 415.808 0 0 0 512 94.688z m83.968 464.16c46.464-84.48 63.36-164.704 63.36-164.704H503.04V335.04h185.824v-25.344H503.04V221.024h-84.48v88.672H249.728v25.344h168.928v59.104H275.04v25.344H566.4c0 4.224-25.344 80.256-42.24 114.016-215.36-84.448-278.72-33.76-295.616-25.312-143.584 101.344-8.448 228.032 12.672 223.808 152.032 33.792 249.152-29.568 316.736-109.792 4.224 4.224 8.448 4.224 12.672 4.224 46.432 25.312 270.272 130.88 270.272 130.88v-126.656c-33.792 0-156.256-42.24-244.96-71.808z m-109.76 38.016c-105.6 135.136-232.32 92.896-253.408 84.48-50.688-12.704-67.552-105.6-4.224-135.168 105.6-33.76 198.496 4.224 266.048 38.016a52.288 52.288 0 0 1-8.448 12.672z" fill="#bfbfbf" p-id="2544"></path></svg>