<?xml version="1.0" standalone="no"?><!DOCTYPE svg PUBLIC "-//W3C//DTD SVG 1.1//EN" "http://www.w3.org/Graphics/SVG/1.1/DTD/svg11.dtd"><svg t="1547633442859" class="icon" style="" viewBox="0 0 1024 1024" version="1.1" xmlns="http://www.w3.org/2000/svg" p-id="1986" xmlns:xlink="http://www.w3.org/1999/xlink" width="200" height="200"><defs><style type="text/css"></style></defs><path d="M236.810756 560.016134c-11.702857 9.465546-24.266218 23.233613-28.052437 40.7879-4.990924 23.922017-1.032605 54.039664 22.028908 77.445378 28.052437 28.568739 70.561345 36.313277 88.976134 37.690084 49.909244 3.614118 103.088403-21.168403 143.1879-49.392941 15.661176-11.014454 42.681008-33.387563 68.324033-67.807731-57.481681-29.601345-129.591933-62.644706-206.521008-59.37479-39.238992 1.721008-67.463529 9.809748-87.94353 20.6521zM968.067227 691.673277c25.470924-59.718992 39.583193-125.461513 39.583193-194.301848 0-274.328739-223.042689-497.371429-497.371428-497.371429s-497.371429 223.042689-497.371429 497.371429 223.042689 497.371429 497.371429 497.371428c165.561008 0 312.363025-81.403697 402.715966-206.004706-85.534118-42.508908-226.312605-112.381849-313.223529-154.718655-41.476303 47.15563-102.572101 94.483361-171.756639 115.135462-43.369412 12.907563-82.608403 17.898487-123.568403 9.465546-40.615798-8.26084-70.389244-27.364034-87.771429-46.295126-8.949244-9.637647-19.103193-22.028908-26.503529-36.657479 0.688403 1.893109 1.204706 2.925714 1.204705 2.925714s-4.302521-7.228235-7.400336-18.931092c-1.721008-5.679328-2.753613-11.530756-3.269916-17.554286-0.344202-3.958319-0.516303-8.26084-0.1721-12.735462-0.344202-7.400336 0-15.316975 1.548907-23.405714 4.13042-19.619496 12.391261-42.508908 34.248067-63.849412C264.002689 495.306218 327.852101 492.724706 360.895462 493.068908c49.048739 0.344202 134.066555 21.684706 205.832605 46.983529 19.791597-42.336807 32.527059-87.427227 40.787899-117.716975H309.437311V390.152605h152.997647V325.786891H277.254454v-32.182857H462.434958v-64.365715c0-8.777143 1.721008-16.177479 16.177479-16.177479h72.454454v80.543194h201.357983v32.182857h-201.357983v64.365714h161.086386s-16.177479 90.18084-66.775126 178.984874c112.381849 40.271597 270.198319 101.883697 322.689076 122.535798z" fill="#1296DB" p-id="1987"></path></svg>