<?xml version="1.0" standalone="no"?><!DOCTYPE svg PUBLIC "-//W3C//DTD SVG 1.1//EN" "http://www.w3.org/Graphics/SVG/1.1/DTD/svg11.dtd"><svg t="1547554721156" class="icon" style="" viewBox="0 0 1024 1024" version="1.1" xmlns="http://www.w3.org/2000/svg" p-id="13571" xmlns:xlink="http://www.w3.org/1999/xlink" width="200" height="200"><defs><style type="text/css"></style></defs><path d="M20.50926062 408.37401499c0 31.26616292 25.59989548 56.8721599 56.90470126 56.8721599H405.83375363c31.29870431 0 56.89046444-25.60599695 56.89046442-56.8721599V79.91761418c0-31.28243361-25.5917601-56.88029525-56.89046442-56.88029526H77.41192804c-31.30480581 0-56.90470128 25.59786162-56.90470127 56.88029526v328.45640081zM618.17031404 23.03731892c-31.29667049 0-56.90470128 25.59786162-56.90470129 56.88029526v328.45640081c0 31.26616292 25.60803083 56.8721599 56.90470129 56.8721599h328.4116564c31.29667049 0 56.90876895-25.60599695 56.90876894-56.8721599V79.91761418c0-31.28243361-25.6141323-56.88029525-56.90876894-56.88029526H618.17031404zM20.50926062 944.06408128c0 31.29056897 25.59989548 56.90063361 56.90470126 56.90063362H405.83375363c31.29870431 0 56.89046444-25.61006465 56.89046442-56.90063362V615.61378202c0-31.27023059-25.5917601-56.87622756-56.89046442-56.8762276H77.41192804c-31.30480581 0-56.90470128 25.60599695-56.90470127 56.8762276v328.45029926zM561.26764659 944.06408128c0 31.29056897 25.60803083 56.90063361 56.90470127 56.90063362h328.41165641c31.29667049 0 56.90876895-25.61006465 56.90876896-56.90063362V615.61378202c0-31.27023059-25.6141323-56.87622756-56.90876896-56.8762276H618.17031404c-31.29667049 0-56.90470128 25.60599695-56.90470129 56.8762276v328.45029926z" fill="#8a8a8a" p-id="13572"></path></svg>