<?xml version="1.0" standalone="no"?><!DOCTYPE svg PUBLIC "-//W3C//DTD SVG 1.1//EN" "http://www.w3.org/Graphics/SVG/1.1/DTD/svg11.dtd"><svg t="1547633767964" class="icon" style="" viewBox="0 0 1024 1024" version="1.1" xmlns="http://www.w3.org/2000/svg" p-id="5966" xmlns:xlink="http://www.w3.org/1999/xlink" width="200" height="200"><defs><style type="text/css"></style></defs><path d="M697.344 674.816s-1.024 0 0 0c-8.192-5.12-17.408-9.216-26.624-11.264-67.584-28.672-147.456-66.56-147.456-106.496 0-8.192 13.312-44.032 36.864-77.824 24.576-35.84 28.672-72.704 24.576-114.688-6.144-81.92-63.488-148.48-141.312-148.48-77.824 0-134.144 66.56-141.312 148.48-3.072 40.96 1.024 78.848 24.576 114.688 23.552 34.816 36.864 69.632 36.864 77.824 0 40.96-79.872 77.824-147.456 106.496-9.216 2.048-17.408 6.144-25.6 11.264h-1.024c-26.624 17.408-45.056 47.104-45.056 80.896v55.296h598.016v-55.296c0-33.792-18.432-63.488-45.056-80.896z" fill="#29A1F7" p-id="5967"></path><path d="M835.584 648.192c-1.024 0-1.024 0 0 0-8.192-5.12-17.408-8.192-25.6-11.264-65.536-27.648-131.072-62.464-131.072-101.376 0-8.192 13.312-41.984 35.84-73.728 23.552-33.792 27.648-69.632 24.576-108.544-6.144-77.824-61.44-140.288-138.24-140.288-14.336 0-46.08 6.144-59.392 11.264l27.648 24.576c10.24-3.072 20.48-5.12 30.72-5.12h2.048c56.32 1.024 101.376 48.128 106.496 112.64 3.072 38.912-2.048 64.512-19.456 89.088-17.408 24.576-41.984 68.608-41.984 91.136 0 58.368 75.776 98.304 150.528 130.048l2.048 1.024 2.048 1.024c6.144 1.024 11.264 4.096 16.384 7.168l1.024 1.024c18.432 11.264 28.672 30.72 28.672 51.2 0 12.288-10.24 21.504-21.504 21.504l-55.296 1.024v30.72l55.296-1.024c28.672 0 52.224-23.552 52.224-53.248 1.024-34.816-17.408-62.464-43.008-78.848z" fill="#29A1F7" p-id="5968"></path></svg>