<?xml version="1.0" standalone="no"?><!DOCTYPE svg PUBLIC "-//W3C//DTD SVG 1.1//EN" "http://www.w3.org/Graphics/SVG/1.1/DTD/svg11.dtd"><svg t="1547782432549" class="icon" style="" viewBox="0 0 1024 1024" version="1.1" xmlns="http://www.w3.org/2000/svg" p-id="2759" xmlns:xlink="http://www.w3.org/1999/xlink" width="200" height="200"><defs><style type="text/css"></style></defs><path d="M593.60328 925.513292h-163.206544a11.222904 11.222904 0 0 0-11.239264 11.239264c0 48.09816 41.652352 87.247444 92.826176 87.247444s92.858896-39.149284 92.858896-87.247444a11.222904 11.222904 0 0 0-11.239264-11.239264z m0 0M784.638045 673.374233a249.799591 249.799591 0 0 0 14.184049-82.683026V363.893661c0-115.664622-77.595092-216.605317-193.97955-253.676892v-22.903886C604.842544 39.165644 563.190192 0 512.000008 0s-92.826176 39.165644-92.826176 87.312883v22.903886C302.773014 147.239264 225.227002 248.278119 225.227002 363.893661v226.797546a249.128834 249.128834 0 0 0 14.134969 82.683026C162.568515 677.562372 104.278127 716.662577 104.278127 765.840491V847.443763a11.239264 11.239264 0 0 0 11.239264 11.255624h792.948875a11.255624 11.255624 0 0 0 11.255624-11.255624v-81.635992c0-49.177914-58.306748-88.343558-135.083845-92.466258z m0 0" p-id="2760" fill="#ffffff"></path></svg>