<?xml version="1.0" standalone="no"?><!DOCTYPE svg PUBLIC "-//W3C//DTD SVG 1.1//EN" "http://www.w3.org/Graphics/SVG/1.1/DTD/svg11.dtd"><svg t="1547554514598" class="icon" style="" viewBox="0 0 1024 1024" version="1.1" xmlns="http://www.w3.org/2000/svg" p-id="9558" xmlns:xlink="http://www.w3.org/1999/xlink" width="200" height="200"><defs><style type="text/css"></style></defs><path d="M131.139248 261.656325C107.974665 405.856541 58.13556 525.282514 0.346389 641.162732l0 139.941216c57.769728-87.60422 104.769159-157.396773 130.792858-222.479047l0 443.177542L261.755074 1001.802442 261.755074 511.99693c25.984814 45.258787 68.326155 109.588931 108.843964 163.268504L370.599038 535.324218c-40.518832-73.495898-85.757153-160.564929-108.843964-273.667893l87.068008 0L348.823082 152.816454 261.755074 152.816454 261.755074 22.198581 131.139248 22.198581l0 130.617873L22.30654 152.816454l0 108.839871L131.139248 261.656325 131.139248 261.656325zM1023.458159 912.565025c-112.718201-39.540552-198.010773-84.802408-255.789711-135.700635 69.40779-70.629617 125.553531-161.809269 168.907944-297.519114L805.96773 479.345276c-28.928866 93.309152-71.545476 157.581991-120.650871 216.95524-43.35339-48.039109-81.303724-112.324228-118.828362-216.95524l-130.60457 0c40.436968 130.091894 94.756107 221.194798 167.038364 297.519114-63.612807 53.756321-147.229203 97.091292-254.118652 133.797285l0 91.140767c147.404188-48.098461 258.4544-101.951997 336.51322-152.850224 78.014818 50.898227 190.757578 100.3188 338.1413 148.435681L1023.458159 912.565025 1023.458159 912.565025zM1023.652588 218.120786 1023.652588 109.275799 762.420935 109.275799 762.420935 22.198581 631.812271 22.198581l0 87.078241L392.371924 109.276822 392.371924 218.120786 1023.652588 218.120786 1023.652588 218.120786zM653.588227 261.656325 522.978541 261.656325c-20.258393 65.071018-68.589145 93.960998-152.379503 125.050064l0 68.352761c150.242839-14.111392 242.470357-72.378447 282.989189-199.612247L653.588227 261.656325 653.588227 261.656325zM1023.652588 386.706389c-78.014818-25.441439-126.388549-54.338582-152.379503-125.050064L740.664422 261.656325c34.664497 121.590266 126.915551 173.632549 282.988166 193.387475L1023.652588 386.706389 1023.652588 386.706389zM1023.652588 386.706389" p-id="9559" fill="#d81e06"></path></svg>