<?xml version="1.0" standalone="no"?><!DOCTYPE svg PUBLIC "-//W3C//DTD SVG 1.1//EN" "http://www.w3.org/Graphics/SVG/1.1/DTD/svg11.dtd"><svg t="1547733619440" class="icon" style="" viewBox="0 0 1024 1024" version="1.1" xmlns="http://www.w3.org/2000/svg" p-id="97557" xmlns:xlink="http://www.w3.org/1999/xlink" width="200" height="200"><defs><style type="text/css"></style></defs><path d="M512 860.16c-193.097143 0-349.622857-137.508571-349.622857-305.737143 0-118.491429 80.457143-226.742857 201.874286-276.48-29.257143-59.977143-26.331429-81.92-17.554286-95.085714 5.851429-8.777143 16.091429-19.017143 40.96-19.017143 39.497143 0 114.102857 26.331429 160.914286 86.308571 177.005714 16.091429 314.514286 147.748571 314.514285 304.274286C861.622857 722.651429 705.097143 860.16 512 860.16zM403.748571 213.577143c-7.314286-1.462857-13.165714 4.388571-10.24 11.702857 4.388571 11.702857 11.702857 29.257143 24.868572 54.125714 2.925714 5.851429 4.388571 13.165714 1.462857 20.48-2.925714 7.314286-8.777143 11.702857-14.628571 13.165715-115.565714 38.034286-194.56 134.582857-194.56 241.371428 0 141.897143 134.582857 257.462857 301.348571 257.462857s301.348571-115.565714 301.348571-257.462857c0-134.582857-122.88-248.685714-280.868571-257.462857-7.314286 0-13.165714-4.388571-17.554286-10.24C487.131429 245.76 437.394286 220.891429 403.748571 213.577143z" fill="#e5260e" p-id="97558"></path><path d="M762.148571 459.337143h-160.914285c-1.462857 0-2.925714 0-4.388572 0-7.314286 2.925714-33.645714 11.702857-45.348571 23.405714-2.925714 2.925714-5.851429 2.925714-8.777143 2.925714-11.702857-1.462857-30.72-1.462857-30.72-1.462857s-19.017143-1.462857-30.72 1.462857c-2.925714 0-7.314286 0-8.777143-2.925714-11.702857-11.702857-38.034286-20.48-45.348571-23.405714-1.462857 0-2.925714 0-4.388572 0h-160.914285c-1.462857 0-2.925714 1.462857-2.925715 2.925714v30.72c0 1.462857 1.462857 2.925714 2.925715 2.925714 5.851429 0 16.091429 1.462857 16.091428 8.777143-1.462857 43.885714 5.851429 71.68 5.851429 71.68 11.702857 35.108571 38.034286 48.274286 48.274285 54.125715 2.925714 1.462857 5.851429 2.925714 7.314286 2.925714h95.085714c24.868571 0 48.274286-52.662857 55.588572-67.291429 7.314286-11.702857 11.702857-20.48 13.165714-21.942857 2.925714-2.925714 7.314286-2.925714 7.314286-2.925714s4.388571 0 7.314286 2.925714c2.925714 2.925714 7.314286 10.24 13.165714 21.942857 8.777143 14.628571 32.182857 67.291429 55.588571 67.291429h95.085715c2.925714 0 5.851429-1.462857 7.314285-2.925714 10.24-7.314286 36.571429-19.017143 48.274286-54.125715 0 0 7.314286-26.331429 5.851429-71.68 0-7.314286 10.24-7.314286 16.091428-8.777143 1.462857 0 2.925714-1.462857 2.925714-2.925714v-30.72C765.074286 460.8 763.611429 459.337143 762.148571 459.337143zM469.577143 548.571429c-11.702857 35.108571-33.645714 54.125714-33.645714 54.125714-7.314286 8.777143-77.531429 11.702857-96.548572 0-19.017143-11.702857-27.794286-39.497143-27.794286-39.497143-1.462857-10.24-2.925714-21.942857-1.462857-38.034286 1.462857-14.628571 13.165714-26.331429 27.794286-27.794285 39.497143-2.925714 92.16 1.462857 105.325714 4.388571 8.777143 1.462857 17.554286 11.702857 24.868572 20.48C472.502857 529.554286 472.502857 539.794286 469.577143 548.571429zM712.411429 563.2c0 0-8.777143 27.794286-27.794286 39.497143-19.017143 11.702857-89.234286 8.777143-96.548572 0 0 0-20.48-19.017143-33.645714-54.125714-2.925714-8.777143-1.462857-19.017143 2.925714-26.331429 5.851429-8.777143 14.628571-19.017143 24.868572-20.48 13.165714-1.462857 65.828571-7.314286 105.325714-4.388571 14.628571 1.462857 26.331429 13.165714 27.794286 27.794285C713.874286 541.257143 713.874286 552.96 712.411429 563.2z" fill="#e5260e" p-id="97559"></path></svg>