<?xml version="1.0" standalone="no"?><!DOCTYPE svg PUBLIC "-//W3C//DTD SVG 1.1//EN" "http://www.w3.org/Graphics/SVG/1.1/DTD/svg11.dtd"><svg t="1547731357612" class="icon" style="" viewBox="0 0 1024 1024" version="1.1" xmlns="http://www.w3.org/2000/svg" p-id="49351" xmlns:xlink="http://www.w3.org/1999/xlink" width="200" height="200"><defs><style type="text/css"></style></defs><path d="M905.19002 490.709077C905.117137 491.833024 904.013325 497.766366 898.15287 499.233634 897.882432 499.29693 897.621585 499.452288 897.361694 499.57696 889.794219 502.948804 878.303467 512.494703 874.232508 539.432081 872.733589 551.611396 870.277585 564.330628 867.62307 577.986803L867.592384 578.142161C860.055595 616.988416 847.99232 649.245372 831.722867 674.019247 808.958101 708.659324 778.023603 727.967851 742.237521 729.841741 716.122005 731.20544 694.169515 731.287915 675.120875 730.091081 619.96393 726.62525 588.341828 712.323669 565.95299 680.721707 535.828851 638.212066 522.058556 560.95686 504.176064 560.95686 486.293572 560.95686 472.522317 638.212066 442.399133 680.721707 420.009336 712.322709 388.388195 726.62429 333.23125 730.091081 314.182612 731.287915 292.231078 731.20448 266.114603 729.841741 230.329479 727.967851 199.394024 708.659324 176.629257 674.019247 160.360763 649.246332 148.29653 616.989372 140.7607 578.142161L140.730012 577.986803C138.075497 564.330628 135.618537 551.610436 134.120577 539.432081 130.050577 512.494703 118.559826 502.948804 110.992349 499.57696 110.731501 499.451328 110.471611 499.29597 110.201173 499.233634 104.340718 497.766366 103.237867 491.833024 103.164023 490.709077 102.477379 479.800439 99.771078 455.506065 98.813036 440.350972 98.104334 429.036678 107.421029 427.558857 109.190386 427.443777 174.297926 423.352679 325.351139 415.233776 394.029039 433.169013 414.544948 438.529829 473.20896 449.667667 504.176064 449.667667 535.142208 449.667667 593.806217 438.529829 614.322129 433.169013 683.000026 415.234735 834.053239 423.353638 899.160781 427.443777 900.930138 427.557898 910.245875 429.036678 909.538129 440.350972 908.582967 455.506065 905.876663 479.800439 905.19002 490.709077ZM789.96221 486.008051C780.490155 480.648196 765.699482 477.879561 748.712695 476.816986 710.137839 474.391671 660.288964 480.699981 635.839232 485.268663 634.080427 485.601438 632.435738 485.924621 630.957918 486.225745 570.304939 498.768521 545.95878 558.869116 607.538155 650.342473 618.310613 666.330935 633.934656 678.134323 677.267119 680.861722 691.360597 681.74688 708.379029 681.673993 729.103044 680.465651 775.287573 677.790997 797.468309 624.517534 806.847339 574.472064 808.606148 565.124681 810.241246 556.381466 811.395883 548.230916 815.349845 520.181094 813.445265 499.290219 789.96221 486.008051ZM377.397084 486.226705C375.918304 485.924621 374.273617 485.602394 372.51481 485.269623 348.064119 480.700941 298.216204 474.392631 259.641346 476.817946 242.653602 477.880521 227.862929 480.649156 218.390875 486.009011 194.908776 499.291174 193.003241 520.181094 196.95912 548.233796 198.114717 556.384346 199.748854 565.127556 201.507662 574.47494 210.885733 624.52041 233.067427 677.793877 279.251959 680.468531 299.975971 681.675913 316.994403 681.749756 331.087883 680.864597 374.420345 678.137199 390.043431 666.333815 400.817807 650.345348 462.395264 558.870076 438.049105 498.769481 377.397084 486.226705Z" p-id="49352" fill="#f54614"></path><path d="M629.181854 167.729033C550.303061 146.818016 526.028826 42.666667 378.567072 42.666667 431.944111 103.974644 407.316964 157.798577 367.263327 170.154347 171.815079 222.334553 25.269171 386.992154 34.54367 614.592832 44.098197 848.865276 244.250345 1001.667708 502.941837 1001.667708 761.634283 1001.667708 961.796023 848.865276 971.340958 614.592832 980.771776 383.348909 829.323456 217.067719 629.181854 167.729033L629.181854 167.729033Z" p-id="49353" fill="#f54614"></path></svg>