<?xml version="1.0" standalone="no"?><!DOCTYPE svg PUBLIC "-//W3C//DTD SVG 1.1//EN" "http://www.w3.org/Graphics/SVG/1.1/DTD/svg11.dtd"><svg t="1547774561994" class="icon" style="" viewBox="0 0 1077 1024" version="1.1" xmlns="http://www.w3.org/2000/svg" p-id="2652" xmlns:xlink="http://www.w3.org/1999/xlink" width="210.3515625" height="200"><defs><style type="text/css"></style></defs><path d="M658.620632 89.788632c38.453895 49.664 48.370526 111.373474 47.157894 172.732631a545.226105 545.226105 0 0 1-10.64421 99.543579c-6.197895 30.019368-15.952842 59.715368-32.741053 85.584842-8.623158 12.826947-19.833263 23.632842-28.56421 36.352-7.599158 10.994526-15.090526 24.791579-13.770106 38.615579 0.619789 6.682947 6.521263 13.069474 4.688842 19.779369s-8.623158 8.865684-14.686315 8.973473c-8.704 0.134737-17.434947 0-26.138948 0-8.165053 0-16.734316 0.673684-24.872421-0.080842-7.437474-0.673684-10.401684-5.362526-11.452631-12.261052a118.703158 118.703158 0 0 1-1.347369-24.144843 121.640421 121.640421 0 0 1 12.045474-45.568c6.521263-13.824 15.144421-26.650947 24.710737-38.534736 4.796632-5.982316 10.401684-11.290947 14.928842-17.461895a107.250526 107.250526 0 0 0 11.317895-20.426105c13.581474-30.908632 18.728421-66.074947 21.207579-99.462737 4.581053-62.032842 2.425263-130.479158-45.783579-176.154948-44.382316-42.037895-113.556211-55.942737-171.385264-37.995789-27.944421 8.677053-54.218105 23.794526-73.835789 45.702737-20.48 22.824421-31.528421 51.792842-35.974737 81.839158-4.931368 33.091368-3.395368 67.880421 0.188632 101.052631 3.476211 32.067368 9.431579 67.233684 25.653894 95.609263 7.706947 13.473684 19.132632 24.225684 28.294737 36.648421 8.838737 11.964632 16.033684 25.303579 21.234527 39.235369 10.159158 27.216842 10.886737 58.394947-1.886316 84.857263-12.8 26.462316-38.049684 44.840421-62.652632 59.499789-27.513263 16.410947-56.966737 29.480421-85.423158 44.193685-29.453474 15.225263-58.583579 31.258947-86.339368 49.475368-13.204211 8.650105-25.950316 17.973895-37.402947 28.887579-10.401684 9.916632-20.938105 21.450105-24.441264 35.786105-2.101895 8.677053-2.048 18.189474-2.533052 27.082106-0.458105 7.733895-0.835368 15.467789-1.347369 23.174736-0.646737 9.135158-1.293474 18.216421-1.886315 27.324632-0.485053 6.952421-0.350316 14.093474-1.832421 20.965053-5.443368 25.6-37.834105 37.780211-58.772211 22.096842-10.778947-8.057263-14.632421-19.941053-14.309053-32.983579 0.404211-16.949895 2.667789-33.818947 3.69179-50.714948 1.024-16.222316 1.077895-32.794947 3.772631-48.855579 2.479158-14.551579 8.245895-28.618105 16.033685-41.121684 16.491789-26.435368 41.606737-46.430316 66.910315-63.973052 27.216842-18.809263 56.293053-35.031579 85.61179-50.28379 30.154105-15.710316 60.901053-30.288842 90.812631-46.457263 13.204211-7.168 27.863579-14.659368 38.049685-26.031158 10.051368-11.237053 9.593263-26.731789 3.826526-39.882105-5.793684-13.258105-15.602526-23.821474-25.492211-34.115369a132.042105 132.042105 0 0 1-23.44421-34.304c-12.719158-26.408421-19.671579-55.754105-24.872421-84.453052a528.707368 528.707368 0 0 1-8.084211-100.944842c0.458105-32.417684 3.610947-65.131789 14.309053-95.905685a220.537263 220.537263 0 0 1 99.705263-119.484631 255.164632 255.164632 0 0 1 182.595369-26.812632c52.736 11.991579 101.861053 40.367158 135.168 83.402106z m394.374736 640.943157c13.743158 0 24.899368 11.317895 24.899369 24.737685v19.051789a24.737684 24.737684 0 0 1-24.899369 24.764632h-163.624421v180.789894c0 13.743158-11.317895 24.872421-24.764631 24.872422h-19.05179a24.710737 24.710737 0 0 1-24.737684-24.872422v-180.816842h-163.624421a24.980211 24.980211 0 0 1-24.926316-24.737684v-19.051789c0-13.662316 11.021474-24.737684 24.926316-24.737685h163.624421v-163.651368c0-13.743158 11.317895-24.899368 24.737684-24.899368h19.05179c13.662316 0 24.764632 10.994526 24.764631 24.899368v163.651368h163.624421z" p-id="2653" fill="#dbdbdb"></path></svg>