<?xml version="1.0" standalone="no"?><!DOCTYPE svg PUBLIC "-//W3C//DTD SVG 1.1//EN" "http://www.w3.org/Graphics/SVG/1.1/DTD/svg11.dtd"><svg t="1547731576995" class="icon" style="" viewBox="0 0 1024 1024" version="1.1" xmlns="http://www.w3.org/2000/svg" p-id="54852" xmlns:xlink="http://www.w3.org/1999/xlink" width="200" height="200"><defs><style type="text/css"></style></defs><path d="M884.224 74.752c7.168 7.168 10.752 16.896 10.752 28.16v818.176c0 11.264-3.584 20.48-10.752 28.16-7.168 7.168-16.384 10.752-27.136 10.752H167.936c-11.264 0-20.48-3.584-28.16-10.752-7.168-7.168-10.752-16.896-10.752-28.16V102.912c0-11.264 3.584-20.48 10.752-28.16 7.168-7.168 16.896-10.752 28.16-10.752h689.152c10.752 0 19.456 3.584 27.136 10.752z m-66.048 67.072H205.824v739.84h611.84V141.824zM266.24 695.808c-7.168-7.168-10.752-16.384-10.752-27.648s3.584-19.968 10.752-27.648c7.168-7.168 16.384-10.752 27.136-10.752H317.44v-24.064c0-10.752 3.584-19.456 10.752-27.136 7.168-7.168 16.384-10.752 27.648-10.752s19.968 3.584 27.136 10.752c7.168 7.168 10.752 16.384 11.264 27.136v24.064h23.04c11.264 0 20.48 3.584 28.16 10.752 7.168 7.168 10.752 16.384 10.752 27.648s-3.584 19.968-10.752 27.648c-7.168 7.168-16.896 10.752-28.16 10.752H394.24v23.04c-0.512 11.264-4.608 20.48-11.264 28.16-7.168 7.168-15.872 10.752-27.136 10.752s-19.968-3.584-27.648-10.752c-7.168-7.168-10.752-16.896-10.752-28.16V706.56h-24.064c-11.264 0.512-19.968-3.072-27.136-10.752z m29.696-220.672c-7.168-7.168-10.752-16.896-10.752-28.16V262.144c0-10.752 3.584-19.456 10.752-27.136 7.168-7.168 16.896-11.264 28.16-11.776h376.832c11.264 0.512 20.48 4.608 27.648 11.776 7.168 7.168 10.752 16.384 11.264 27.136v184.832c-0.512 11.264-4.608 20.48-11.264 28.16-7.168 7.168-16.384 10.752-27.648 10.752H324.096c-11.264 0-20.992-3.584-28.16-10.752z m66.048-66.048h301.056V301.056H361.984v108.032z m369.152 158.72c10.752 0 19.456 3.584 27.136 10.752 7.168 7.168 10.752 16.384 10.752 27.648s-3.584 19.968-10.752 27.648c-7.168 7.168-16.384 10.752-27.136 10.752h-123.904c-11.264 0-20.48-3.584-28.16-10.752-7.168-7.168-10.752-16.384-10.752-27.648s3.584-19.968 10.752-27.648c7.168-7.168 16.896-10.752 28.16-10.752h123.904z m26.624 178.176c7.168 7.168 10.752 16.384 10.752 27.136 0 10.752-3.584 19.456-10.752 27.136-7.168 7.168-16.384 11.264-27.136 11.776h-123.904c-11.264-0.512-20.48-4.608-28.16-11.776-7.168-7.168-10.752-16.384-10.752-27.136 0-10.752 3.584-19.456 10.752-27.136 7.168-7.168 16.896-11.264 28.16-11.776h123.904c11.264 0.512 19.968 4.608 27.136 11.776z" p-id="54853" fill="#ed672f"></path></svg>