<?xml version="1.0" standalone="no"?><!DOCTYPE svg PUBLIC "-//W3C//DTD SVG 1.1//EN" "http://www.w3.org/Graphics/SVG/1.1/DTD/svg11.dtd"><svg t="1547776425167" class="icon" style="" viewBox="0 0 1024 1024" version="1.1" xmlns="http://www.w3.org/2000/svg" p-id="14049" xmlns:xlink="http://www.w3.org/1999/xlink" width="200" height="200"><defs><style type="text/css"></style></defs><path d="M1001.634921 636.521026a493.095385 493.095385 0 0 0-0.761436-259.990975c-13.732103 42.285949-40.132923 85.858462-75.736615 128.787693 36.286359 43.756308 62.976 88.155897 76.498051 131.203282M217.907331 870.465641c-22.081641 0-42.968615-1.877333-62.542769-5.579487a505.291487 505.291487 0 0 0 100.023795 74.60759 512.301949 512.301949 0 0 0 118.232615 48.836923c-28.186256-32.781128-51.659487-75.749744-70.419692-125.505641-29.735385 4.962462-58.341744 7.640615-85.293949 7.640615M950.093588 757.011692c24.917333-42.574769 18.852103-96.098462-17.985641-159.035077-10.633846-18.208821-23.460103-36.49641-38.084923-54.718359-131.977846 138.89641-352.636718 264.927179-540.908308 309.221744 2.061128 5.303795 4.161641 10.541949 6.340923 15.622564 23.105641 53.956923 61.111795 116.355282 117.497436 136.073846 11.907282 0.827077 23.853949 1.352205 35.84 1.352205 180.040205 0 347.595487-95.218872 437.300513-248.516923M305.262408 156.658872c19.797333-51.239385 44.714667-94.930051 74.686359-127.474872a513.536 513.536 0 0 0-124.284718 50.517333 510.765949 510.765949 0 0 0-100.299487 74.633846 337.460513 337.460513 0 0 1 62.818462-5.618871c27.477333 0 56.713846 2.783179 87.079384 7.942564M353.114716 168.736821c187.825231 44.727795 407.355077 170.404103 538.847179 308.775384 14.637949-18.208821 27.451077-36.49641 38.098052-54.705231 35.866256-61.282462 42.299077-113.532718 19.639795-155.556102-2.048-3.544615-4.069744-7.154872-6.209641-10.660103-0.590769-0.984615-1.234051-1.956103-1.851077-2.953846a503.821128 503.821128 0 0 0-87.223795-105.065026c-1.772308-1.614769-3.505231-3.268923-5.290667-4.857435a505.908513 505.908513 0 0 0-24.94359-20.742565c-2.888205-2.258051-5.750154-4.555487-8.690871-6.761025A511.199179 511.199179 0 0 0 546.059947 16.541538c-0.905846-0.065641-1.811692-0.157538-2.730667-0.210051a509.046154 509.046154 0 0 0-31.927795-1.050256c-68.699897 0.249436-121.882256 62.070154-158.286769 153.468718M215.833075 826.302359c22.38359 0 46.040615-2.021744 70.616615-5.750154-55.466667-183.624205-55.033436-436.250256 1.444103-618.653538-25.101128-3.872821-49.270154-5.986462-72.073846-5.986462-60.586667 0-104.868103 14.834872-132.660513 43.716923a496.692513 496.692513 0 0 0-65.877333 144.699077 496.863179 496.863179 0 0 0-16.46277 96.754872l-0.131282 2.835692c-0.275692 4.358564-0.393846 8.717128-0.577641 13.088821-2.153026 101.349744 27.227897 201.649231 84.073026 286.588718 27.831795 28.199385 71.785026 42.706051 131.662769 42.706051" fill="#ffffff" p-id="14050"></path></svg>