<?xml version="1.0" standalone="no"?><!DOCTYPE svg PUBLIC "-//W3C//DTD SVG 1.1//EN" "http://www.w3.org/Graphics/SVG/1.1/DTD/svg11.dtd"><svg t="1547732025727" class="icon" style="" viewBox="0 0 1024 1024" version="1.1" xmlns="http://www.w3.org/2000/svg" p-id="69180" xmlns:xlink="http://www.w3.org/1999/xlink" width="200" height="200"><defs><style type="text/css"></style></defs><path d="M601.670136 591.242003 436.08835 747.924768c-3.899571 3.799582-10.098889 3.799582-14.098449 0.099989L255.308236 590.942036c-24.99725 35.396106-39.9956 78.791333-39.9956 125.786164 0 119.386867 95.489496 216.076232 213.076562 216.076232 117.687054 0 212.976573-96.689364 212.976573-216.076232C641.36577 669.933347 626.567398 626.63811 601.670136 591.242003L601.670136 591.242003zM305.102759 409.561988 170.517563 409.561988 417.190429 705.329454 305.102759 409.561988zM817.346412 387.064463 667.662877 528.848867c39.695633 51.994281 63.493016 117.08712 63.493016 187.979322 0 169.681335-135.585086 307.166212-302.766696 307.166212S125.622502 886.409535 125.622502 716.828189c0-70.992191 23.797382-136.085031 63.692994-188.079311L39.331993 387.36443c-4.699483-4.399516-4.399516-11.898691 0.499945-15.798262L299.00343 162.889122c3.099659-2.599714 6.99923-3.99956 10.99879-3.99956l237.873834 0c3.99956 0 7.899131 1.399846 10.99879 3.799582l257.671656 205.977342C822.245873 373.36597 822.645829 381.965024 817.346412 387.064463L817.346412 387.064463zM897.63758 168.888462l-43.195249 81.391047-43.09526-81.391047-80.191179-43.695194 80.191179-43.895172 43.09526-81.291058L897.63758 81.398086l80.09119 43.895172L897.63758 168.888462z" p-id="69181" fill="#f54614"></path></svg>