<?xml version="1.0" standalone="no"?><!DOCTYPE svg PUBLIC "-//W3C//DTD SVG 1.1//EN" "http://www.w3.org/Graphics/SVG/1.1/DTD/svg11.dtd"><svg t="1547795293644" class="icon" style="" viewBox="0 0 1024 1024" version="1.1" xmlns="http://www.w3.org/2000/svg" p-id="39294" xmlns:xlink="http://www.w3.org/1999/xlink" width="200" height="200"><defs><style type="text/css"></style></defs><path d="M917.3504 128C962.0992 128 998.4 163.5328 998.4 207.36v634.88c0 42.0608-33.4592 76.3904-75.776 79.104-1.7664 0.1536-3.5328 0.256-5.2736 0.256h-243.2c-22.4 0-40.5504-17.7664-40.5504-39.68v-120.0896c0-27.904 9.7792-53.5552 26.1888-73.8304l131.9424-180.3008a40.5504 40.5504 0 0 0-36.5312-22.528c-9.1136 0-17.5104 2.944-24.2944 7.936l-129.792 95.232-0.1024-0.0512c-13.568 9.984-30.3872 15.872-48.64 15.872-18.688 0-35.84-6.1952-49.5616-16.5888l-184.064-127.9232a0.9216 0.9216 0 0 1 0.1536-0.1536 81.7152 81.7152 0 0 0 46.592 14.4384c20.8384 0 39.808-7.68 54.1952-20.3264L754.9952 158.4896A122.624 122.624 0 0 1 836.2496 128h81.1008zM189.2864 434.5856l213.7344 252.3904a117.0944 117.0944 0 0 1 27.904 75.904V882.0736C430.848 903.936 412.7744 921.6 390.4 921.6H106.6496a60.928 60.928 0 0 1-5.1968-0.256C59.136 918.6816 25.6 884.3264 25.6 842.24V207.36C25.6 163.5328 61.9264 128 106.6752 128h121.6256c26.0864 0 50.176 8.0384 69.9904 21.7344l0.0512-0.0256 241.8944 169.6512-139.136 122.7776h-0.0256a81.7664 81.7664 0 0 1-53.3248 19.6096 81.8176 81.8176 0 0 1-43.9296-12.7744l-52.0704-35.9168a40.8064 40.8064 0 0 0-23.4496-7.296 40.448 40.448 0 0 0-38.9376 28.672l-0.0512 0.1536z" fill="#00A2AC" p-id="39295"></path></svg>