<?xml version="1.0" standalone="no"?><!DOCTYPE svg PUBLIC "-//W3C//DTD SVG 1.1//EN" "http://www.w3.org/Graphics/SVG/1.1/DTD/svg11.dtd"><svg t="1547733544960" class="icon" style="" viewBox="0 0 1024 1024" version="1.1" xmlns="http://www.w3.org/2000/svg" p-id="97203" xmlns:xlink="http://www.w3.org/1999/xlink" width="200" height="200"><defs><style type="text/css"></style></defs><path d="M102.76864 656.46592l756.65408 0c36.0448 0 84.45952-29.24544 84.41856-65.24928 0-36.00384-48.41472-65.24928-84.45952-65.24928l-13.9264 0c-7.45472-118.29248-86.50752-210.57536-231.87456-243.0976L613.5808 245.39136c0-57.63072-72.33536-123.53536-129.96608-123.53536l-26.09152 0c-57.63072 0-129.96608 59.51488-129.96608 117.1456l0 44.35968c-131.8912 37.96992-203.89888 131.56352-210.90304 242.64704l-13.9264 0c-36.0448 0-63.93856 29.24544-63.93856 65.24928C38.83008 627.22048 66.7648 656.46592 102.76864 656.46592zM407.9616 230.8096c0-14.41792 11.6736-26.09152 26.09152-26.09152l73.15456 0c14.41792 0 24.7808 12.94336 24.7808 27.36128l0 54.02624c-17.08032-1.8432-43.37664-4.38272-61.15328-4.38272-26.91072 0-37.6832 2.37568-62.91456 6.51264L407.92064 230.8096zM846.39744 695.82848 115.83488 695.82848c-43.25376 0-77.0048 47.84128-77.0048 91.05408 0 43.25376 33.75104 73.15456 77.0048 73.15456l730.56256 0c43.25376 0 97.4848-29.9008 97.4848-73.15456C943.88224 743.66976 889.61024 695.82848 846.39744 695.82848z" p-id="97204" fill="#d81e06"></path></svg>