<?xml version="1.0" standalone="no"?><!DOCTYPE svg PUBLIC "-//W3C//DTD SVG 1.1//EN" "http://www.w3.org/Graphics/SVG/1.1/DTD/svg11.dtd"><svg t="1547731285638" class="icon" style="" viewBox="0 0 1303 1024" version="1.1" xmlns="http://www.w3.org/2000/svg" p-id="48173" xmlns:xlink="http://www.w3.org/1999/xlink" width="254.4921875" height="200"><defs><style type="text/css"></style></defs><path d="M82.089515 784.956879 1181.046451 784.956879C1224.391163 784.948506 1259.535301 749.815534 1259.535301 706.462446 1259.535301 663.109361 1224.393954 627.968014 1181.040869 627.968014L1174.799718 627.968014C1144.036387 413.516493 989.940616 239.177465 786.292475 179.466487 787.368488 172.064193 788.560336 164.694 788.560336 156.99305 788.560336 70.286876 718.267874 0 631.567286 0 544.861112 0 474.574236 70.28548 474.574236 156.99305 474.574236 164.694 475.767475 172.064193 476.835116 179.466487 273.188371 239.177465 119.100971 413.515097 88.33764 627.966619L82.096493 627.966619C38.743406 627.966619 3.602061 663.107966 3.602061 706.461051 3.602061 749.814139 38.743406 784.949901 82.09091 784.956879L82.089515 784.956879ZM631.568682 78.493036C674.921767 78.493036 710.063114 113.634383 710.063114 156.987468 710.063114 159.1367 709.012218 160.935639 708.837769 163.040211 683.522881 159.468857 657.861886 156.987468 631.565891 156.987468 605.269891 156.987468 579.601918 159.468857 554.294008 163.047188 554.120954 160.937034 553.068663 159.138096 553.068663 156.987468 553.068663 113.634383 588.21001 78.493036 631.563095 78.493036L631.568682 78.493036ZM300.539446 499.044779C351.33111 417.510719 430.371224 355.626781 524.811845 328.810225 526.7629 328.097068 528.783734 327.534638 530.863187 327.127121 531.019495 327.085256 531.171616 327.039201 531.326529 326.998727L531.336297 327.044782C533.713016 326.60796 536.162299 326.367914 538.667412 326.367914 560.80311 326.367914 578.751991 344.191192 578.751991 366.169187 578.751991 385.717429 564.547521 401.966466 545.83245 405.322896L545.871529 405.536423C471.921189 426.590525 409.654856 473.808042 368.901782 536.867078 362.872767 550.79662 349.011613 560.543527 332.871437 560.543527 311.192102 560.543527 293.624221 542.975644 293.624221 521.296311 293.621429 513.032931 296.18097 505.371059 300.542237 499.04757L300.539446 499.044779ZM1181.039473 863.451311 82.096493 863.451311C38.743406 863.451311 3.602061 898.592656 3.602061 941.945743 3.602061 985.29883 38.743406 1020.440174 82.096493 1020.440174L1181.039473 1020.440174C1224.392558 1020.440174 1259.533905 985.29883 1259.533905 941.945743 1259.533905 898.592656 1224.392558 863.451311 1181.039473 863.451311L1181.039473 863.451311Z" p-id="48174" fill="#eb4110"></path></svg>