<?xml version="1.0" standalone="no"?><!DOCTYPE svg PUBLIC "-//W3C//DTD SVG 1.1//EN" "http://www.w3.org/Graphics/SVG/1.1/DTD/svg11.dtd"><svg t="1547554537977" class="icon" style="" viewBox="0 0 1024 1024" version="1.1" xmlns="http://www.w3.org/2000/svg" p-id="10336" xmlns:xlink="http://www.w3.org/1999/xlink" width="200" height="200"><defs><style type="text/css"></style></defs><path d="M684.249212 63.550061C631.745939 21.581576 582.252606 0.868848 528.120242 0.868848c-29.261576 0-60.152242 6.268121-93.509818 18.540607-33.621333 12.25697-94.332121 59.950545-121.390545 132.437333 0 0-47.817697 159.495758 85.302303 283.942788l10.938182 11.450182c71.633455 72.486788 174.173091 112.546909 174.700606 226.459151 4.685576 90.453333-75.713939 179.044848-172.233697 183.125333h-8.223031c-49.198545 0-92.392727-18.540606-108.528484-30.533818a430.731636 430.731636 0 0 1-39.377455-32.690424c-13.668848-19.347394-80.92703-106.821818-15.049697-213.922909 29.758061-44.357818 79.778909-90.267152 131.661576-126.526061-33.062788-30.456242-122.166303-128.201697-92.594424-274.261333-375.047758 300.807758-173.924848 678.787879-12.25697 770.59103 61.238303 41.146182 140.8 62.401939 223.650909 62.40194 130.699636 0 269.591273-52.053333 360.091151-159.418182 127.689697-151.241697 218.453333-497.338182-167.051636-788.914424z" fill="#16BBA2" p-id="10337"></path></svg>