<?xml version="1.0" standalone="no"?><!DOCTYPE svg PUBLIC "-//W3C//DTD SVG 1.1//EN" "http://www.w3.org/Graphics/SVG/1.1/DTD/svg11.dtd"><svg t="1547794592737" class="icon" style="" viewBox="0 0 1024 1024" version="1.1" xmlns="http://www.w3.org/2000/svg" p-id="23747" xmlns:xlink="http://www.w3.org/1999/xlink" width="200" height="200"><defs><style type="text/css"></style></defs><path d="M541.298698 256.406269c47.097908 11.999467 92.2959-9.999556 100.995513-49.197814 8.699614-39.098263-22.399005-80.59642-69.396917-92.595887-47.097908-11.999467-92.2959 10.099551-100.995513 49.29781C463.102172 203.008642 494.200791 244.406803 541.298698 256.406269z" p-id="23748" fill="#1296db"></path><path d="M757.089112 45.315647C643.594154-23.981275 581.196926-4.982119 582.196882 43.415731c0.699969 36.098396 32.998534 45.097997 61.597264 59.097375 97.195682 47.697881 149.593354 120.894629 122.994536 180.291991-24.498912 54.497579-115.494869 73.796722-209.690685 38.998268-96.495713-35.598419-222.890098-120.394652-239.889343-24.698903-14.39936 80.796411 105.395318 84.496246 232.389676 215.590423 61.89725 63.897161 75.896628 195.591311 9.499578 267.888099C488.701035 857.079585 315.808716 833.980611 235.312292 740.984743c-158.192972-182.691884-53.597619-350.284439-31.098618-391.382613 17.499223-31.498601 26.498823-52.497668 26.198836-77.796544-0.499978-40.898183-28.398738-67.796988-67.197015-70.096886-46.197948-2.799876-81.096397 26.598818-100.39554 70.89685C-138.471104 734.385036 295.709608 1143.266872 682.892408 991.973593 1070.375195 840.580318 1141.972014 280.305208 757.089112 45.315647z" p-id="23749" fill="#1296db"></path></svg>