<?xml version="1.0" standalone="no"?><!DOCTYPE svg PUBLIC "-//W3C//DTD SVG 1.1//EN" "http://www.w3.org/Graphics/SVG/1.1/DTD/svg11.dtd"><svg t="1547554642344" class="icon" style="" viewBox="0 0 1024 1024" version="1.1" xmlns="http://www.w3.org/2000/svg" p-id="12237" xmlns:xlink="http://www.w3.org/1999/xlink" width="200" height="200"><defs><style type="text/css"></style></defs><path d="M539.428571 265.142857c45.714286 10.971429 87.771429-9.142857 96.914286-47.542857S614.4 138.971429 570.514286 128c-45.714286-10.971429-87.771429 9.142857-96.914286 47.542857-9.142857 36.571429 21.942857 76.8 65.828571 89.6z m418.742858 62.171429c-9.142857-27.428571-20.114286-53.028571-32.914286-76.8-36.571429-69.485714-87.771429-126.171429-148.114286-170.057143-10.971429-7.314286-31.085714-20.114286-31.085714-20.114286-111.542857-62.171429-168.228571-49.371429-166.4-1.828571 0 34.742857 31.085714 43.885714 58.514286 56.685714 93.257143 45.714286 142.628571 117.028571 117.028571 173.714286-23.771429 53.028571-109.714286 71.314286-199.314286 38.4-91.428571-34.742857-212.114286-117.028571-228.571428-23.771429-14.628571 78.628571 100.571429 80.457143 219.428571 208.457143 51.2 54.857143 64 149.942857 34.742857 226.742857-64 115.2-250.514286 87.771429-332.8-5.485714C151.771429 623.542857 164.571429 512 170.057143 484.571429c10.971429-56.685714 32.914286-102.4 49.371428-129.828572 16.457143-31.085714 25.6-51.2 25.6-74.971428 0-40.228571-27.428571-65.828571-64-67.657143-43.885714-1.828571-76.8 25.6-95.085714 67.657143-45.714286 98.742857-60.342857 213.942857-36.571428 327.314285 0 1.828571 0 3.657143 1.828571 5.485715 1.828571 10.971429 5.485714 21.942857 7.314286 32.914285 0 0 3.657143 18.285714 14.628571 42.057143l10.971429 27.428572v1.828571C188.342857 950.857143 442.514286 1066.057143 676.571429 974.628571c245.028571-95.085714 371.2-385.828571 281.6-647.314285z" fill="#1296DB" p-id="12238"></path></svg>