<?xml version="1.0" standalone="no"?><!DOCTYPE svg PUBLIC "-//W3C//DTD SVG 1.1//EN" "http://www.w3.org/Graphics/SVG/1.1/DTD/svg11.dtd"><svg t="1547774868287" class="icon" style="" viewBox="0 0 1024 1024" version="1.1" xmlns="http://www.w3.org/2000/svg" p-id="3451" xmlns:xlink="http://www.w3.org/1999/xlink" width="200" height="200"><defs><style type="text/css"></style></defs><path d="M333.7 461.2c-40.8 4.5-69.4 48.9-63.8 99.2 5.6 50.2 43.2 87.3 84 82.7 40.8-4.5 69.4-48.9 63.8-99.2s-43.2-87.2-84-82.7z m-5.1 83.1c-8.4 0-15.2-6.8-15.2-15.2 0-8.4 6.8-15.2 15.2-15.2 8.4 0 15.2 6.8 15.2 15.2 0 8.4-6.8 15.2-15.2 15.2zM607.5 544c-5.6 50.2 23 94.6 63.8 99.2 40.8 4.5 78.5-32.5 84-82.7 5.6-50.2-23-94.6-63.8-99.2-40.8-4.6-78.4 32.4-84 82.7z m89.2-30.2c8.4 0 15.2 6.8 15.2 15.2 0 8.4-6.8 15.2-15.2 15.2-8.4 0-15.2-6.8-15.2-15.2-0.1-8.3 6.8-15.2 15.2-15.2z" p-id="3452" fill="#cdcdcd"></path><path d="M599.4 254.3c35.4-64.9 67.4-97.4 79.3-108.2 14.2-12.9 52.4-40 75.8-45.6 15.1 15.1 54.8 25.9 64.1 25.9s59.8-3.7 59.8-29-38.2-32.7-57.9-32.7c-37 0-135.5 38.8-189.1 117.1-20.8 30.3-33.4 53.4-41.2 70.6-25.2-4.6-51.3-7.2-78.1-7.2-26.8 0-52.9 2.5-78.1 7.2-7.8-17.3-20.4-40.3-41.2-70.6-53.6-78.1-152.2-117-189.2-117-19.7 0-57.9 7.4-57.9 32.7s50.5 29 59.8 29c9.2 0 49-10.8 64.1-25.9 23.4 5.5 61.6 32.7 75.8 45.6 11.8 10.8 43.9 43.2 79.3 108.2C265.8 287.5 148 408.7 148 553.2c0 152.6 131.5 279.2 303.9 303.5-2.4 3.4-4.6 6.9-6.8 10.6-15.5 6.8-45.7 26.9-79.3 85.7-1.2 2.1-2.3 4.2-3.5 6.2H388c0.9-1.9 1.9-3.9 2.8-5.7 12.4-24.1 27.2-40.9 39.5-51.9-3.8 13.2-5.8 26.9-5.1 40.7 0.3 6 1.9 11.7 4.4 17h164.6c2.7-6.6 4.4-14.1 4.8-22.5 0.4-11.5-1.3-23.2-4.5-34.6 12.1 11 26.7 27.6 38.9 51.3 1 1.9 1.9 3.8 2.8 5.7h25.7c-1.2-2.1-2.3-4.1-3.5-6.2-33.7-59.1-64-79.1-79.4-85.8-2.2-3.6-4.5-7.1-7-10.5 172.6-24.2 304.2-150.8 304.2-303.5-0.1-144.6-117.9-265.8-276.8-298.9zM334.2 683.4c-85.7 0-155.3-69.5-155.3-155.3s69.5-155.3 155.3-155.3 155.3 69.5 155.3 155.3-69.6 155.3-155.3 155.3z m179.3 115.5c-31.9 0-62.4-15.9-62.4-58.2 19.9 3.2 44.8 3.2 63.3 3.2 17.6 0 42.5 0.5 58.5-3.5 0 41-27.5 58.5-59.4 58.5z m331.6-270.7c0 85.7-69.5 155.3-155.3 155.3S534.5 614 534.5 528.2 604 372.9 689.8 372.9s155.3 69.5 155.3 155.3z" p-id="3453" fill="#cdcdcd"></path></svg>