<?xml version="1.0" standalone="no"?><!DOCTYPE svg PUBLIC "-//W3C//DTD SVG 1.1//EN" "http://www.w3.org/Graphics/SVG/1.1/DTD/svg11.dtd"><svg t="1547554463975" class="icon" style="" viewBox="0 0 1024 1024" version="1.1" xmlns="http://www.w3.org/2000/svg" p-id="5907" xmlns:xlink="http://www.w3.org/1999/xlink" width="200" height="200"><defs><style type="text/css"></style></defs><path d="M687.286857 180.041143c75.629714-73.216 152.722286-98.304 153.563429-98.56a35.181714 35.181714 0 0 0 22.418285-43.776 35.254857 35.254857 0 0 0-43.410285-23.259429c-4.608 1.316571-111.506286 35.401143-206.921143 141.202286a447.670857 447.670857 0 0 0-104.082286-12.105143c-33.755429 0.256-66.523429 4.425143-98.084571 11.849143C315.465143 49.737143 208.749714 15.725714 204.141714 14.299429a35.474286 35.474286 0 0 0-43.410285 23.369142 35.072 35.072 0 0 0 22.564571 43.739429c0.841143 0.365714 77.312 24.758857 153.417143 98.523429-156.16 67.986286-265.106286 223.780571-263.789714 403.968a437.138286 437.138286 0 0 0 268.178285 399.798857 35.620571 35.620571 0 0 0 45.568-19.053715 35.035429 35.035429 0 0 0-18.029714-45.750857 366.884571 366.884571 0 0 1-225.060571-335.469714C142.08 381.074286 306.212571 215.332571 509.403429 213.906286a366.189714 366.189714 0 0 1 261.302857 105.618285 363.739429 363.739429 0 0 1 109.787428 258.669715 364.763429 364.763429 0 0 1-282.843428 359.606857L585.142857 940.251429c-12.141714 1.901714-16.237714-1.718857-18.176-3.474286-13.824-12.361143-18.724571-50.066286-17.664-71.533714l-2.523428-139.154286c158.902857-11.958857 181.028571-171.117714 181.76-176.859429-6.144-0.438857-183.04-9.252571-213.650286 168.484572l-3.291429 0.073143c-33.024-177.554286-209.956571-166.217143-216.027428-165.778286 0.731429 5.778286 24.905143 161.901714 180.553143 173.897143l2.596571 136.923428c-0.585143 13.750857-1.572571 87.917714 40.886857 126.098286 11.776 10.605714 30.939429 22.052571 59.501714 22.052571 5.741714 0 11.849143-0.475429 18.358858-1.499428l15.067428-2.962286c200.850286-46.811429 340.114286-223.195429 338.614857-428.873143a433.517714 433.517714 0 0 0-130.816-308.297143 440.539429 440.539429 0 0 0-133.046857-89.307428z" fill="#29AB91" p-id="5908"></path></svg>