<?xml version="1.0" standalone="no"?><!DOCTYPE svg PUBLIC "-//W3C//DTD SVG 1.1//EN" "http://www.w3.org/Graphics/SVG/1.1/DTD/svg11.dtd"><svg t="1547792432894" class="icon" style="" viewBox="0 0 1024 1024" version="1.1" xmlns="http://www.w3.org/2000/svg" p-id="5979" xmlns:xlink="http://www.w3.org/1999/xlink" width="200" height="200"><defs><style type="text/css"></style></defs><path d="M310.290906 848.548598c0.800234 0.400117 1.700498 0.800234 2.500732 1.100323M722.411644 308.390349L543.059099 170.549966c-18.205334-14.004103-43.512748-14.004103-61.718081 0L325.095243 290.585132c-6.301846-12.503663-10.303018-26.207678-12.903781-39.411546 30.809026-19.305656 51.615122-50.514799 57.71691-86.825437 5.201524-22.706652-3.901143-51.81518-27.708118-59.517437-19.705773-6.301846-44.7131 4.701377-57.116733 24.607209h-0.200059l-1.300381 2.400704c-8.60252 16.104718-13.603986 33.609847-14.904367 51.215004h-0.300087c-0.600176 6.501905-8.202403 77.522712 23.706945 133.339064-81.223796 68.219986-126.73713 170.950083-122.135782 277.281235 7.402169 175.151314 161.947446 325.195272 337.398847 327.696005h4.901436c90.626551 0 175.851519-34.910228 240.470451-98.628896 65.819283-64.919019 102.029892-151.544398 102.029891-243.871446 0-106.431181-48.214125-204.960047-132.338771-270.479242zM512.150044 348.101983c77.72277 0 146.542932 38.711341 188.255153 97.92869H643.188434c-18.305363 0-35.210316 9.102667-45.413305 24.307121l-85.625085 128.037511-85.625086-128.037511c-10.202989-15.204454-27.107942-24.307121-45.413304-24.307121h-57.216763C365.607111 386.813324 434.427274 348.101983 512.150044 348.101983zM282.082641 578.169386c0-25.807561 4.30126-50.614829 12.103546-73.821628l203.15952 303.388884C377.41057 800.134414 282.082641 700.105109 282.082641 578.169386z m244.87174 229.567256l203.15952-303.388884c7.902315 23.206799 12.103546 48.014067 12.103546 73.821628 0 121.935723-95.327928 221.965029-215.263066 229.567256zM673.897431 260.076194l1.500439 2.400704 2.600762-1.100323c3.701084-1.50044 7.002051-3.000879 10.10296-4.601348 36.210609-18.605451 60.917847-52.315327 67.619811-92.427078 5.201524-22.706652-3.901143-51.81518-27.708118-59.517437-19.705773-6.301846-44.7131 4.701377-57.116733 24.607209h-0.200059l-1.300381 2.400704c-19.805802 37.010843-20.305949 81.323825-1.200352 118.634756 1.700498 3.000879 3.501026 6.201817 5.701671 9.602813z" p-id="5980" fill="#1296db"></path></svg>