<?xml version="1.0" standalone="no"?><!DOCTYPE svg PUBLIC "-//W3C//DTD SVG 1.1//EN" "http://www.w3.org/Graphics/SVG/1.1/DTD/svg11.dtd"><svg t="1547860246901" class="icon" style="" viewBox="0 0 1024 1024" version="1.1" xmlns="http://www.w3.org/2000/svg" p-id="3396" xmlns:xlink="http://www.w3.org/1999/xlink" width="200" height="200"><defs><style type="text/css"></style></defs><path d="M512 0A512 512 0 1 1 0 512 512 512 0 0 1 512 0z m171.997288 260.946441L512 433.204068 339.829153 260.946441a26.077288 26.077288 0 0 0-36.881356 36.881356l170.348474 170.348474H296.092203a26.033898 26.033898 0 1 0 0 52.067797H485.966102v85.391186H296.092203a26.033898 26.033898 0 0 0 0 52.067797H485.966102v120.797288a26.033898 26.033898 0 1 0 52.067796 0V657.703051h189.873899a26.033898 26.033898 0 0 0 0-52.067797H538.033898v-85.391186h189.873899a26.033898 26.033898 0 1 0 0-52.067797H550.616949l170.348475-170.348474a26.112 26.112 0 0 0-36.968136-36.881356z" p-id="3397" fill="#1296db"></path></svg>