<?xml version="1.0" standalone="no"?><!DOCTYPE svg PUBLIC "-//W3C//DTD SVG 1.1//EN" "http://www.w3.org/Graphics/SVG/1.1/DTD/svg11.dtd"><svg t="1547633646839" class="icon" style="" viewBox="0 0 1024 1024" version="1.1" xmlns="http://www.w3.org/2000/svg" p-id="3255" xmlns:xlink="http://www.w3.org/1999/xlink" width="200" height="200"><defs><style type="text/css"></style></defs><path d="M512 0c140.099502 0 270.00995 56.039801 361.711443 150.288557 91.701493 91.701493 150.288557 219.064677 150.288557 361.711443 0 140.099502-58.587065 270.00995-150.288557 361.711443s-221.61194 150.288557-361.711443 150.288557c-142.646766 0-270.00995-58.587065-361.711443-150.288557-94.248756-91.701493-150.288557-221.61194-150.288557-361.711443C0 369.353234 56.039801 241.99005 150.288557 150.288557 241.99005 56.039801 369.353234 0 512 0z m323.502488 185.950249c-81.512438-81.512438-196.139303-135.004975-323.502488-135.004975S270.00995 104.437811 185.950249 185.950249c-81.512438 84.059701-135.004975 198.686567-135.004975 326.049751s53.492537 241.99005 135.004975 323.502488c84.059701 84.059701 198.686567 135.004975 326.049751 135.004975s241.99005-50.945274 323.502488-135.004975c84.059701-81.512438 135.004975-196.139303 135.004975-323.502488s-50.945274-241.99005-135.004975-326.049751z" p-id="3256" fill="#bfbfbf"></path><path d="M682.666667 259.820896c10.189055-10.189055 28.0199-10.189055 38.208955 0s10.189055 28.0199 0 38.208955l-170.666667 170.666666h178.308458c12.736318 0 25.472637 10.189055 25.472637 25.472637s-12.736318 25.472637-25.472637 25.472637h-191.044776v86.606965h191.044776c12.736318 0 25.472637 10.189055 25.472637 25.472637 0 12.736318-12.736318 25.472637-25.472637 25.472637h-191.044776v119.721393c0 15.283582-10.189055 28.0199-25.472637 28.0199s-25.472637-12.736318-25.472637-28.0199v-119.721393h-191.044776c-12.736318 0-25.472637-12.736318-25.472637-25.472637 0-15.283582 12.736318-25.472637 25.472637-25.472637h191.044776v-86.606965h-191.044776c-12.736318 0-25.472637-10.189055-25.472637-25.472637s12.736318-25.472637 25.472637-25.472637h178.308458l-170.666667-170.666666c-10.189055-10.189055-10.189055-28.0199 0-38.208955s25.472637-10.189055 35.661692 0l173.21393 173.21393 170.666667-173.21393z" p-id="3257" fill="#bfbfbf"></path></svg>