<?xml version="1.0" standalone="no"?><!DOCTYPE svg PUBLIC "-//W3C//DTD SVG 1.1//EN" "http://www.w3.org/Graphics/SVG/1.1/DTD/svg11.dtd"><svg t="1547794416660" class="icon" style="" viewBox="0 0 1024 1024" version="1.1" xmlns="http://www.w3.org/2000/svg" p-id="18557" xmlns:xlink="http://www.w3.org/1999/xlink" width="200" height="200"><defs><style type="text/css"></style></defs><path d="M866.986667 0H153.6C98.986667 0 54.613333 44.373333 54.613333 95.573333v832.853334c0 51.2 44.373333 95.573333 98.986667 95.573333h713.386667c54.613333 0 98.986667-44.373333 98.986666-95.573333V95.573333C962.56 44.373333 918.186667 0 866.986667 0z m-129.706667 737.28H286.72c-17.066667 0-27.306667-10.24-27.306667-27.306667s10.24-27.306667 27.306667-27.306666h453.973333c17.066667 0 27.306667 10.24 27.306667 27.306666s-13.653333 27.306667-30.72 27.306667z m0-197.973333H286.72c-17.066667 0-27.306667-10.24-27.306667-27.306667s10.24-27.306667 27.306667-27.306667h453.973333c17.066667 0 27.306667 10.24 27.306667 27.306667s-13.653333 27.306667-30.72 27.306667z m0-197.973334H286.72c-17.066667 0-27.306667-10.24-27.306667-27.306666s10.24-27.306667 27.306667-27.306667h453.973333c17.066667 0 27.306667 10.24 27.306667 27.306667s-13.653333 27.306667-30.72 27.306666z" fill="#e0620d" p-id="18558"></path></svg>