<?xml version="1.0" standalone="no"?><!DOCTYPE svg PUBLIC "-//W3C//DTD SVG 1.1//EN" "http://www.w3.org/Graphics/SVG/1.1/DTD/svg11.dtd"><svg t="1547731450333" class="icon" style="" viewBox="0 0 1356 1024" version="1.1" xmlns="http://www.w3.org/2000/svg" p-id="50413" xmlns:xlink="http://www.w3.org/1999/xlink" width="264.84375" height="200"><defs><style type="text/css"></style></defs><path d="M699.96999111 148.52778667c117.00110222 0 217.01518222 73.15911111 257.29365334 176.05063111h54.528c-42.47096889-131.79790222-166.18609778-227.42698667-311.82165334-227.42698667-145.77208889 0-269.48721778 95.62908445-311.82165333 227.42698667h54.528c40.1408-102.89038222 140.29141333-176.05063111 257.29365333-176.05063111z m0 0M1157.4272 340.47089778H242.51278222c-17.81077333 0-32.19569778 14.38492445-32.19569777 32.19569777v110.69895112c0 17.81077333 14.38492445 32.19683555 32.19569777 32.19683555h26.85155556l70.69582222 362.92380445s3.97312 50.96561778 43.01937778 50.96561778h636.52181333c38.90858667 0 43.01937778-50.96561778 43.01937778-50.96561778l70.69354666-362.92380445h24.24945778c17.81077333 0 32.19683555-14.38606222 32.19683556-32.19683555V372.66773333c-0.27420445-17.81077333-14.66026667-32.19569778-32.33336889-32.19569778zM563.92476445 808.75178667c0 18.90645333-15.34407111 34.25052445-34.25166223 34.25052444-18.90645333 0-34.25052445-15.34407111-34.25052444-34.25052444V530.22151111c0-18.90645333 15.34407111-34.25052445 34.25052444-34.25052444 18.90759111 0 34.25166222 15.34407111 34.25166223 34.25052444v278.53027556z m170.2957511 0c0 18.90645333-15.34407111 34.25052445-34.25052444 34.25052444s-34.25166222-15.34407111-34.25166222-34.25052444V530.22151111c0-18.90645333 15.34520889-34.25052445 34.25166222-34.25052444 18.90645333 0 34.25052445 15.34407111 34.25052444 34.25052444v278.53027556z m170.2968889 0c0 18.90645333-15.34407111 34.25052445-34.25166223 34.25052444-18.90645333 0-34.25052445-15.34407111-34.25052444-34.25052444V530.22151111c0-18.90645333 15.34407111-34.25052445 34.25052444-34.25052444 18.90759111 0 34.25166222 15.34407111 34.25166223 34.25052444v278.53027556z m0 0" fill="#1296db" p-id="50414"></path></svg>