<?xml version="1.0" standalone="no"?><!DOCTYPE svg PUBLIC "-//W3C//DTD SVG 1.1//EN" "http://www.w3.org/Graphics/SVG/1.1/DTD/svg11.dtd"><svg t="1547554153015" class="icon" style="" viewBox="0 0 1024 1024" version="1.1" xmlns="http://www.w3.org/2000/svg" p-id="1189" xmlns:xlink="http://www.w3.org/1999/xlink" width="200" height="200"><defs><style type="text/css"></style></defs><path d="M982.528 648.704l-47.914667-142.805333-122.069333 94.933333 65.408 18.432c-47.146667 155.690667-191.914667 269.44-363.008 269.44-170.709333 0-315.178667-113.237333-362.709333-268.288-2.944-10.24-12.074667-17.792-23.04-17.792-13.226667 0-23.936 10.965333-23.936 24.448 0 1.493333 0.170667 2.944 0.426666 4.394667l-0.426666 0.085333c52.437333 176.384 215.978667 304.981333 409.685333 304.981333 193.365333 0 356.736-128.256 409.429333-304.213333l58.154667 16.384zM147.456 404.224h3.157333c45.952-157.610667 191.829333-273.152 364.330667-273.152 171.946667 0 317.44 114.901333 363.818667 271.786667l0.469333-0.170667c3.84 8.277333 12.032 14.037333 21.589333 14.037333 13.269333 0 23.978667-10.965333 23.978667-24.490666 0-2.474667-0.469333-4.821333-1.152-7.082667l-0.085333-0.341333-0.768-2.304c-54.272-173.397333-216.32-299.306667-407.893334-299.306667-195.029333 0-359.509333 130.517333-410.709333 308.821333L43.861333 375.04l47.957334 142.805333 122.069333-94.933333-66.432-18.688z m246.656 190.464c-7.466667 0-13.098667 1.664-16.853333 4.992-3.754667 3.370667-5.589333 9.386667-5.589334 18.005333 0 15.744 7.850667 23.594667 23.637334 23.594667h92.757333v77.909333c0 10.624 1.706667 18.090667 5.034667 22.4 3.328 4.352 9.941333 6.485333 19.797333 6.485334s16.341333-2.133333 19.541333-6.485334c3.114667-4.309333 4.693333-11.776 4.693334-22.4V641.28h93.994666c15.744 0 23.637333-7.637333 23.637334-22.997333 0-15.744-7.893333-23.594667-23.637334-23.594667h-93.994666v-37.162667h93.994666c15.744 0 23.637333-7.68 23.637334-23.04 0-15.744-7.893333-23.594667-23.637334-23.594666h-68.565333l85.674667-143.402667c4.352-7.466667 6.528-13.866667 6.528-19.157333 0-5.333333-3.157333-9.941333-9.472-13.866667-5.930667-3.968-11.904-5.930667-18.005334-5.930667s-12.117333 4.949333-18.005333 14.762667l-96.384 162.304-96.341333-162.304c-5.504-9.429333-11.733333-14.122667-18.602667-14.122667-6.912 0-12.885333 1.92-18.005333 5.888-5.12 3.498667-7.722667 8.234667-7.722667 14.165334 0 5.888 1.792 11.989333 5.333333 18.261333l85.717334 143.402667H394.112c-7.466667 0-13.098667 1.664-16.853333 4.992-3.754667 3.370667-5.589333 9.386667-5.589334 18.005333 0 15.744 7.850667 23.637333 23.637334 23.637333h92.757333v37.162667H394.112z" fill="#1296db" p-id="1190"></path></svg>