<?xml version="1.0" standalone="no"?><!DOCTYPE svg PUBLIC "-//W3C//DTD SVG 1.1//EN" "http://www.w3.org/Graphics/SVG/1.1/DTD/svg11.dtd"><svg t="1547794522369" class="icon" style="" viewBox="0 0 1024 1024" version="1.1" xmlns="http://www.w3.org/2000/svg" p-id="22292" xmlns:xlink="http://www.w3.org/1999/xlink" width="200" height="200"><defs><style type="text/css"></style></defs><path d="M512 0C229.230933 0 0 229.229227 0 512c0 282.769067 229.230933 512 512 512s512-229.230933 512-512C1024 229.229227 794.769067 0 512 0zM682.666667 469.333333l0 64-128 0L554.666667 597.333333l128 0 0 64-128 0L554.666667 768l-85.333333 0 0-106.666667-128 0L341.333333 597.333333l128 0 0-64-128 0L341.333333 469.333333l93.090133 0L341.333333 298.666667l85.333333 0 85.333333 156.445013L597.333333 298.666667l85.333333 0-93.090133 170.666667L682.666667 469.333333z" p-id="22293" fill="#1296db"></path></svg>