<?xml version="1.0" standalone="no"?><!DOCTYPE svg PUBLIC "-//W3C//DTD SVG 1.1//EN" "http://www.w3.org/Graphics/SVG/1.1/DTD/svg11.dtd"><svg t="1547554417860" class="icon" style="" viewBox="0 0 1024 1024" version="1.1" xmlns="http://www.w3.org/2000/svg" p-id="5656" xmlns:xlink="http://www.w3.org/1999/xlink" width="200" height="200"><defs><style type="text/css"></style></defs><path d="M521.62137026 787.60284726c-112.45711585 6.09642245-211.39235021-61.60215413-254.52346146-153.89734882-47.39946364-101.41667509-38.45804605-201.54890073 29.21480656-290.91163872 64.51403162-85.1955638 154.18887941-119.04056447 260.38837311-106.35726297 52.71732759 6.29706278 99.19246747 27.9406467 139.71009271 62.3292663 21.9831304 18.66997055 21.4926738 27.0128925-2.87929434 40.99950827-21.17713357 12.15854572-42.46059013 24.12502461-63.52797196 36.47563713-58.24612154 34.12281297-116.85236876 67.65398948-174.41939564 102.90005219-30.82851628 18.86375172-36.99353207 48.95829662-19.76235319 80.1812361 18.64081614 33.7678304 54.77862116 41.62887101 93.06689228 19.49311611 113.77243239-65.79505231 227.16416163-132.24347531 341.29500532-197.41945448 18.8843309-10.78149159 20.95934279-21.75162127 12.5684033-40.02545259-29.52348762-64.2876673-73.00272055-117.09416914-131.26599086-156.5965803-128.74167741-87.28772443-266.10751947-101.27262583-406.77966389-34.96482167-140.33431063 66.15003318-216.56616327 182.31130333-229.23917353 335.4078001-10.50025057 126.91875381 37.79095536 234.37697467 129.40019456 322.81024409 127.72646503 123.29348249 341.18696796 142.69399398 487.90065646 43.57526802 38.20252731-25.80046853 38.20252731-25.80046853 14.51651466-65.20856067-25.6101161-42.5977819-51.0230189-50.51541355-95.481454-29.20280257C609.73567238 777.35125455 566.12782122 790.45127281 521.62137026 787.60284726z" fill="#1296db" p-id="5657"></path><path d="M907.79667222 607.24308406c-2.11617025-30.48896809-18.64939135-55.25535942-32.91724646-80.79001964-4.65763247-8.33949321-12.13110736-5.1309403-18.80030147-1.32560781-26.1503046 14.97095937-52.22001019 30.07053531-78.56924243 44.6779386-11.19992439 6.2096046-13.18061726 13.72938099-6.705206 24.64463392 15.00697296 25.29457586 29.90419079 50.65603408 44.29208892 76.29873164 6.2524757 11.1399029 13.75167455 13.68822429 24.54174136 6.86640572 15.75637701-9.95834604 32.0220771-19.19472467 47.23312083-29.91962521C900.40208198 638.14362409 908.35229513 624.72292251 907.79667222 607.24308406z" fill="#1296db" p-id="5658"></path></svg>