<?xml version="1.0" standalone="no"?><!DOCTYPE svg PUBLIC "-//W3C//DTD SVG 1.1//EN" "http://www.w3.org/Graphics/SVG/1.1/DTD/svg11.dtd"><svg t="1547702572526" class="icon" style="" viewBox="0 0 1024 1024" version="1.1" xmlns="http://www.w3.org/2000/svg" p-id="21880" xmlns:xlink="http://www.w3.org/1999/xlink" width="200" height="200"><defs><style type="text/css"></style></defs><path d="M512 179.768889c91.022222 0 168.391111 54.613333 211.626667 134.257778-234.382222 63.715556-425.528889 0-425.528889 0 45.511111-79.644444 122.88-134.257778 213.902222-134.257778zM976.213333 523.377778l-154.737777 252.586666c-18.204444 36.408889-52.337778 61.44-93.297778 65.991112H302.648889c-43.235556 0-81.92-27.306667-102.4-65.991112L47.786667 521.102222c-11.377778-20.48-20.48-45.511111-18.204445-70.542222 0-70.542222 36.408889-127.431111 113.777778-125.155556h6.826667s22.755556 2.275556 29.582222 2.275556c45.511111 11.377778 209.351111 52.337778 323.128889 52.337778 109.226667 0 261.688889-36.408889 320.853333-50.062222 13.653333-2.275556 56.888889-4.551111 59.164445-4.551112 77.368889 0 113.777778 56.888889 113.777777 127.431112-2.275556 27.306667-9.102222 52.337778-20.48 70.542222z m0 0" fill="#1296db" p-id="21881"></path></svg>