<?xml version="1.0" standalone="no"?><!DOCTYPE svg PUBLIC "-//W3C//DTD SVG 1.1//EN" "http://www.w3.org/Graphics/SVG/1.1/DTD/svg11.dtd"><svg t="1547303812551" class="icon" style="" viewBox="0 0 1024 1024" version="1.1" xmlns="http://www.w3.org/2000/svg" p-id="2507" xmlns:xlink="http://www.w3.org/1999/xlink" width="200" height="200"><defs><style type="text/css"></style></defs><path d="M807.872614 68.191078l0 98.624205-98.624205 0L709.24841 68.191078 314.75159 68.191078l0 98.624205-98.624205 0L216.127386 68.191078l-98.624205 0 0 887.617843 98.624205 0 0-98.624205 98.624205 0 0 98.624205 394.496819 0 0-98.624205 98.624205 0 0 98.624205 98.624205 0L906.496819 68.191078 807.872614 68.191078zM314.75159 758.560512l-98.624205 0 0-98.624205 98.624205 0L314.75159 758.560512zM314.75159 561.312102l-98.624205 0 0-98.624205 98.624205 0L314.75159 561.312102zM314.75159 364.063693l-98.624205 0 0-98.624205 98.624205 0L314.75159 364.063693zM807.872614 758.560512l-98.624205 0 0-98.624205 98.624205 0L807.872614 758.560512zM807.872614 561.312102l-98.624205 0 0-98.624205 98.624205 0L807.872614 561.312102zM807.872614 364.063693l-98.624205 0 0-98.624205 98.624205 0L807.872614 364.063693z" p-id="2508"></path></svg>