<?xml version="1.0" standalone="no"?><!DOCTYPE svg PUBLIC "-//W3C//DTD SVG 1.1//EN" "http://www.w3.org/Graphics/SVG/1.1/DTD/svg11.dtd"><svg t="1547294760717" class="icon" style="" viewBox="0 0 1024 1024" version="1.1" xmlns="http://www.w3.org/2000/svg" p-id="5749" xmlns:xlink="http://www.w3.org/1999/xlink" width="200" height="200"><defs><style type="text/css"></style></defs><path d="M810.4 978H152C68.2 978 0 909.7 0 825.8V198.2C0 114.3 68.2 46 152 46h648.4c17.7 0 32 14.3 32 32s-14.3 32-32 32H152c-48.5 0-88 39.5-88 88.1v627.6c0 48.6 39.5 88.1 88 88.1h658.4c48.5 0 88-39.5 88-88.1V537.1c0-17.7 14.3-32 32-32s32 14.3 32 32v288.7c0 83.9-68.2 152.2-152 152.2z" fill="" p-id="5750"></path><path d="M1014.7 199.3L460.3 754.4c-12.4 12.5-32.8 12.5-45.3 0-12.4-12.5-12.4-32.9 0-45.3L969.4 154c12.4-12.5 32.8-12.5 45.3 0 12.4 12.5 12.4 32.8 0 45.3z" fill="" p-id="5751"></path></svg>