<?xml version="1.0" standalone="no"?><!DOCTYPE svg PUBLIC "-//W3C//DTD SVG 1.1//EN" "http://www.w3.org/Graphics/SVG/1.1/DTD/svg11.dtd"><svg t="1547303934948" class="icon" style="" viewBox="0 0 1024 1024" version="1.1" xmlns="http://www.w3.org/2000/svg" p-id="8296" xmlns:xlink="http://www.w3.org/1999/xlink" width="200" height="200"><defs><style type="text/css"></style></defs><path d="M576 268.8h313.6c12.8 0 19.2-12.8 19.2-25.6V166.4c0-12.8-6.4-25.6-19.2-25.6H518.4c-19.2 0-25.6 25.6-12.8 38.4l57.6 83.2c0 6.4 6.4 6.4 12.8 6.4z" p-id="8297"></path><path d="M902.4 320H576c-12.8 0-32-6.4-38.4-25.6L409.6 128c-12.8-12.8-25.6-19.2-44.8-19.2H128c-32 0-57.6 32-57.6 64v627.2c0 38.4 25.6 64 57.6 64h774.4c32 0 57.6-32 57.6-64V384c0-38.4-25.6-64-57.6-64z m-268.8 352c0 19.2-12.8 32-32 32H204.8c-19.2 0-32-12.8-32-32s12.8-32 32-32h403.2c12.8 0 25.6 12.8 25.6 32z m166.4 0c0 19.2-12.8 32-32 32h-25.6c-19.2 0-32-12.8-32-32s12.8-32 32-32h25.6c19.2 0 32 12.8 32 32z" p-id="8298"></path></svg>