<?xml version="1.0" standalone="no"?><!DOCTYPE svg PUBLIC "-//W3C//DTD SVG 1.1//EN" "http://www.w3.org/Graphics/SVG/1.1/DTD/svg11.dtd"><svg t="1547303744941" class="icon" style="" viewBox="0 0 1024 1024" version="1.1" xmlns="http://www.w3.org/2000/svg" p-id="2208" xmlns:xlink="http://www.w3.org/1999/xlink" width="200" height="200"><defs><style type="text/css"></style></defs><path d="M512 580.266667m-102.4 0a102.4 102.4 0 1 0 204.8 0 102.4 102.4 0 1 0-204.8 0Z" fill="#040000" p-id="2209"></path><path d="M921.6 238.933333h-132.983467a68.266667 68.266667 0 0 1-62.020266-39.748266l-26.231467-57.0368A68.266667 68.266667 0 0 0 638.344533 102.4H395.1616a68.232533 68.232533 0 0 0-62.020267 39.748267l-26.231466 57.0368A68.266667 68.266667 0 0 1 244.8896 238.933333H102.4c-37.546667 0-68.266667 30.72-68.266667 68.266667v546.133333c0 37.546667 30.72 68.266667 68.266667 68.266667h819.2c37.546667 0 68.266667-30.72 68.266667-68.266667V307.2c0-37.546667-30.72-68.266667-68.266667-68.266667zM273.066667 409.6h-102.4a34.133333 34.133333 0 0 1 0-68.266667h102.4a34.133333 34.133333 0 0 1 0 68.266667z m238.933333 341.333333c-94.1056 0-170.666667-76.561067-170.666667-170.666666s76.561067-170.6496 170.666667-170.6496S682.666667 486.161067 682.666667 580.266667s-76.561067 170.666667-170.666667 170.666666z" fill="#040000" p-id="2210"></path></svg>