<?xml version="1.0" standalone="no"?><!DOCTYPE svg PUBLIC "-//W3C//DTD SVG 1.1//EN" "http://www.w3.org/Graphics/SVG/1.1/DTD/svg11.dtd"><svg t="1547195327686" class="icon" style="" viewBox="0 0 1024 1024" version="1.1" xmlns="http://www.w3.org/2000/svg" p-id="3658" xmlns:xlink="http://www.w3.org/1999/xlink" width="200" height="200"><defs><style type="text/css"></style></defs><path d="M617.6 345.2L576 335.1c-18.7-4.6-30.2-23.5-25.7-42.2l10.1-41.5c20.9-85.9 107.5-138.7 193.5-117.7l41.5 10.1c18.7 4.6 30.2 23.5 25.7 42.2L811 227.4c-20.9 86-107.5 138.7-193.4 117.8z" fill="#FFD401" p-id="3659"></path><path d="M502.9 944.2c-313.3 0-457.7-305.1-349.3-557 51.4-119.5 153.3-143.9 271.2-133 52.4 4.8 104.1 6 156.6 1.4 109.6-9.5 208.1 8.2 261.9 115.9 129.6 259.4-34.2 572.7-340.4 572.7z" fill="#8BC03C" p-id="3660"></path><path d="M526.7 314.9c-6.9-66.6 30.2-123.5 74.9-169.2 30.5-31.1-17.3-79-47.8-47.8-56.2 57.5-103.3 133.5-94.7 217.1 4.4 42.8 72 43.3 67.6-0.1z" fill="#22802A" p-id="3661"></path><path d="M576 335.1l41.5 10.1c61 14.8 122.3-7.4 160.2-52.3-53.5-37.7-122.4-43.7-196.4-37.3-7.5 0.7-14.9 1.2-22.4 1.6l-8.7 35.7c-4.4 18.7 7.1 37.6 25.8 42.2z" fill="#8BA000" p-id="3662"></path><path d="M459 314.9c4.4 42.9 72.1 43.3 67.6 0-2-19.8-0.1-38.7 4.6-56.7-23.2 0.5-46.3 0-69.5-1.3-3.5 18.8-4.7 38.2-2.7 58z" fill="#13600A" p-id="3663"></path><path d="M256.3 401.5c-15.9 20.1-26 44.3-22.8 70.4 2 16.4 13.2 32.6 31.8 31.8 15.5-0.7 33.9-14.1 31.8-31.8-0.5-4.1-0.6-8-0.6-12 0-6.3-1.5 3 0.7-3.5 0.1-0.4 3.4-9.2 0.9-3.7 0.5-1.2 6.6-10.6 3.1-6.2 10.3-13 13.6-32.4 0-44.9-11.5-10.6-33.9-14-44.9-0.1z" fill="#FFFFFF" p-id="3664"></path></svg>