<?xml version="1.0" standalone="no"?><!DOCTYPE svg PUBLIC "-//W3C//DTD SVG 1.1//EN" "http://www.w3.org/Graphics/SVG/1.1/DTD/svg11.dtd"><svg t="1547511321191" class="icon" style="" viewBox="0 0 1024 1024" version="1.1" xmlns="http://www.w3.org/2000/svg" p-id="1864" xmlns:xlink="http://www.w3.org/1999/xlink" width="200" height="200"><defs><style type="text/css"></style></defs><path d="M457.3 517.9c16.6-8.4 31-18.9 45.5-33.6 33.1-33.6 51.7-77.7 51.7-128.1 0-50.4-20.7-96.6-51.7-128.1-33.1-33.6-76.6-52.5-124.2-52.5-49.7 0-93.1 21-124.2 52.5-33.1 33.6-51.7 77.7-51.7 128.1 0 50.4 20.7 96.6 51.7 128.1 12.4 12.6 29 25.2 45.5 33.6-53.8 14.7-103.5 44.1-142.8 84C99.2 660.7 64 734.2 64 824.5v2.1c2.1 10.5 20.7 18.9 20.7 18.9s376.7 2.1 589.9 0c10.3 0 18.6-8.4 20.7-18.9v-2.1c0-88.2-35.2-163.8-93.1-222.6-39.4-39.9-89.1-69.3-144.9-84zM629 278.4v42h331.1v-42H629z m186.3 462.1h144.9v-42H815.3v42z m-103.5-210h248.4v-42H711.8v42z" p-id="1865" fill="#1afa29"></path></svg>