<?xml version="1.0" standalone="no"?><!DOCTYPE svg PUBLIC "-//W3C//DTD SVG 1.1//EN" "http://www.w3.org/Graphics/SVG/1.1/DTD/svg11.dtd"><svg t="1547477479771" class="icon" style="" viewBox="0 0 1024 1024" version="1.1" xmlns="http://www.w3.org/2000/svg" p-id="7912" xmlns:xlink="http://www.w3.org/1999/xlink" width="200" height="200"><defs><style type="text/css"></style></defs><path d="M921.6 992.768c-8.704 0-17.408-3.584-23.552-10.752L130.56 81.92c-11.264-12.8-9.216-32.256 3.584-43.52 12.8-11.264 32.256-9.216 43.52 3.584l768 900.608c11.264 12.8 9.216 32.256-3.584 43.52-6.144 4.608-13.312 6.656-20.48 6.656zM310.784 166.912L866.816 819.2h9.216c25.088 0 45.568-19.968 45.568-44.032 0-24.576-20.48-44.032-45.568-44.032-45.568 0-56.832-150.016-56.832-150.016V409.6c0-155.136-84.992-264.192-217.6-306.688 1.024-4.608 1.024-9.728 1.024-14.336 0-48.64-40.96-88.576-91.136-88.576-50.176 0-91.136 39.424-91.136 88.576 0 5.12 0.512 9.728 1.024 14.848-40.96 13.824-78.848 35.328-110.592 63.488zM732.16 819.2L245.248 247.808c-25.6 46.08-39.936 100.352-39.936 161.792v170.496s-11.776 148.48-56.32 150.016c-26.624 0-46.592 19.968-46.592 44.032 0 24.576 20.48 44.032 45.568 44.032H732.16zM512 972.8c75.776 0 136.192-60.928 136.192-136.192H375.296C375.808 911.872 436.736 972.8 512 972.8z" fill="#666666" p-id="7913"></path></svg>