<?xml version="1.0" standalone="no"?><!DOCTYPE svg PUBLIC "-//W3C//DTD SVG 1.1//EN" "http://www.w3.org/Graphics/SVG/1.1/DTD/svg11.dtd"><svg t="1547511381231" class="icon" style="" viewBox="0 0 1024 1024" version="1.1" xmlns="http://www.w3.org/2000/svg" p-id="2823" xmlns:xlink="http://www.w3.org/1999/xlink" width="200" height="200"><defs><style type="text/css"></style></defs><path d="M532.48 102.4c105.813333 0 213.333333 90.453333 213.333333 155.306667v141.653333c0 59.733333-29.013333 167.253333-92.16 216.746667-10.24 8.533333-17.066667 22.186667-15.36 37.546666 1.706667 13.653333 10.24 25.6 23.893334 32.426667L909.653333 802.133333c11.946667 5.12 27.306667 15.36 32.426667 22.186667v81.92c0 8.533333-6.826667 15.36-15.36 15.36H138.24c-8.533333 0-15.36-6.826667-15.36-15.36v-81.92c5.12-6.826667 18.773333-17.066667 32.426667-22.186667l247.466666-116.053333c11.946667-6.826667 22.186667-18.773333 23.893334-32.426667 1.706667-13.653333-3.413333-27.306667-15.36-37.546666-63.146667-51.2-92.16-157.013333-92.16-216.746667v-141.653333C319.146667 192.853333 426.666667 102.4 532.48 102.4z" p-id="2824" fill="#1afa29"></path></svg>