<?xml version="1.0" standalone="no"?><!DOCTYPE svg PUBLIC "-//W3C//DTD SVG 1.1//EN" "http://www.w3.org/Graphics/SVG/1.1/DTD/svg11.dtd"><svg t="1547477430690" class="icon" style="" viewBox="0 0 1024 1024" version="1.1" xmlns="http://www.w3.org/2000/svg" p-id="7134" xmlns:xlink="http://www.w3.org/1999/xlink" width="200" height="200"><defs><style type="text/css"></style></defs><path d="M833.3 684.2c-9.7-11.7-20.5-25.7-32.5-42-11.6-15.6-22.7-33.2-33.1-52.5-10.1-18.4-19.1-38.6-26.7-60.3-6.9-19.9-10.4-40.5-10.4-61.3 0-25.2-4-48.5-12-69.2-3.9-10.3-8.5-20.1-13.8-29.4L426.3 756.3H796c7.8 0 15.6-3.4 22.3-6.9 7-3.4 12.9-9.1 17.1-14.9 4.8-6.4 7.5-14.1 8-22.3 0.7-9.7-2.8-19.4-10.1-28zM638.4 795.7H397.9l-33.8 46.9c1.9 0.4 3.9 0.6 6 0.6v0.1h268.3v-0.1c14.6-0.2 26.5-10.7 26.5-23.7-0.1-13.1-11.9-23.6-26.5-23.8zM611 287.4c-9-3.9-18.7-7.3-29.2-10.5 4.5-8.6 7.2-18.1 7.2-28.3 0-37.4-34.4-67.9-76.6-67.9-42.2 0-76.6 30.4-76.6 67.9 0 10 2.6 19.6 7.1 28.1-2 0.4-4.3 0.8-6.1 1.2-18.7 5.7-37.1 14.2-55.1 25.3-17.9 11.5-33.4 25.1-46.3 40.4-13.6 16.1-24.5 34.6-32.4 54.9-8.4 21.1-12.6 44.7-12.6 70.2 0 21.5-3.5 42.3-10.4 61.7-7.5 20.9-16.4 40.8-26.5 59.4-9.6 17.8-20.3 35.2-32.5 52.8-12.2 17.4-22.7 33.1-31.1 46.2-15.1 20.8-9.2 38.2-4.2 45.9 8.4 12.8 22.3 21.4 39.4 21.4h48L611 287.4zM725.9 234c-9.3-6.7-22.2-4.6-28.9 4.7L261.7 843.1c-6.7 9.3-4.6 22.2 4.7 28.9 9.3 6.7 22.2 4.6 28.9-4.7l435.3-604.4c6.7-9.2 4.6-22.2-4.7-28.9z" p-id="7135"></path></svg>